<svg xmlns="http://www.w3.org/2000/svg" viewBox="0 0 1336 768" id="flower_aster" class="flowers">
    <g id="aster">
      <path id="asterCorolla" fill="white" stroke="black" stroke-width="2" vector-effect="non-scaling-stroke" d="M 466.14,270.76
           C 466.14,270.76 483.62,311.32 499.64,337.01
             508.38,360.00 516.39,377.18 516.39,376.90
             516.39,376.23 530.23,290.37 530.23,289.01
             530.23,287.66 545.53,261.97 552.81,263.32
             562.28,268.06 552.08,288.34 548.44,301.86
             549.90,332.96 533.14,366.08 533.14,366.08
             533.14,366.08 540.43,371.49 540.43,371.49
             540.43,371.49 554.27,364.73 560.82,348.51
             567.38,324.17 582.56,310.18 591.41,307.94
             591.41,307.94 603.79,286.31 619.09,291.72
             619.82,303.21 608.89,326.20 605.98,330.93
             596.51,345.13 567.38,373.52 569.56,378.93
             572.10,384.03 600.88,379.61 616.90,359.32
             633.66,349.18 650.41,350.54 650.41,350.54
             650.41,350.54 672.99,351.21 674.44,357.30
             677.36,362.03 659.15,374.87 646.77,378.93
             629.28,385.01 599.42,387.04 581.94,397.18
             565.92,400.56 564.46,408.68 572.47,415.44
             608.16,416.79 649.68,419.49 665.70,423.55
             681.00,433.69 687.55,447.21 686.10,449.92
             672.99,451.94 667.16,452.62 646.77,449.24
             625.64,447.89 576.84,427.61 575.39,427.61
             573.93,427.61 552.81,420.85 570.29,437.75
             570.29,437.75 588.50,458.70 609.62,471.55
             622.00,480.34 616.90,483.04 627.65,491.69
             640.21,500.62 640.36,509.80 638.03,514.14
             632.93,520.90 590.68,486.42 590.68,486.42
             590.68,486.42 560.82,445.86 560.82,445.18
             560.82,444.51 547.71,439.77 546.98,440.45
             546.25,441.13 557.18,485.75 561.55,506.03
             565.19,516.85 566.65,547.94 552.81,556.06
             533.87,560.11 541.88,514.14 539.70,497.24
             542.61,475.61 529.50,439.77 529.50,439.77
             529.50,439.77 536.79,432.34 524.40,430.31
             506.92,443.15 487.26,489.80 487.26,489.80
             487.26,489.80 466.14,517.52 449.39,510.76
             438.46,506.70 469.05,485.75 471.96,484.39
             479.25,469.52 515.66,424.23 515.66,424.23
             515.66,424.23 517.85,422.87 506.20,416.79
             493.09,416.11 481.43,430.31 473.42,429.63
             456.67,430.31 438.04,438.13 435.55,440.45
             435.55,440.45 402.04,447.21 402.04,435.04
             399.86,427.61 413.70,421.52 426.08,421.52
             446.47,421.52 474.88,415.44 503.28,408.00
             503.28,408.00 500.37,394.48 500.37,394.48
             500.37,394.48 454.48,380.96 428.26,378.25
             427.54,378.25 388.93,371.49 382.38,356.62
             404.23,349.18 420.25,353.24 436.28,362.03
             436.28,362.03 497.46,383.66 497.46,383.66
             497.46,383.66 505.47,376.90 505.47,376.90
             505.47,376.90 492.36,343.77 475.80,333.32
             461.72,312.65 447.93,292.39 447.93,292.39
             447.93,292.39 429.72,274.82 448.66,260.62
             447.20,260.62 463.95,257.92 466.14,270.76 Z" />

      <path id="asterPetals" fill="white" stroke="black" stroke-width="2" vector-effect="non-scaling-stroke" d="M 520.76,197.75
           C 528.05,198.42 520.03,246.42 522.95,255.89
             533.87,272.11 534.60,293.75 534.60,293.75
             534.60,293.75 525.86,364.73 537.51,374.87
             537.51,374.87 550.62,339.04 550.62,339.04
             550.62,339.04 544.80,289.01 557.91,276.17
             570.29,252.51 571.75,219.38 587.04,220.06
             597.24,219.38 582.67,247.10 588.50,270.76
             588.50,271.44 588.50,302.54 579.76,310.65
             573.20,340.39 554.99,368.11 559.36,376.23
             559.36,376.23 570.29,376.23 593.60,360.00
             593.60,360.00 608.89,332.96 616.90,325.52
             623.78,317.86 630.74,312.68 648.22,305.92
             657.69,291.04 678.08,278.87 695.56,278.87
             697.02,292.39 659.88,327.55 655.51,332.28
             633.66,354.59 613.99,369.46 605.25,374.20
             596.51,376.23 569.56,397.18 577.57,399.21
             575.39,407.32 636.57,395.83 643.85,383.66
             643.85,383.66 656.96,368.11 689.01,370.14
             711.59,380.96 727.61,376.23 731.98,387.04
             710.13,401.92 694.11,401.24 681.73,403.27
             660.60,406.65 656.23,410.03 646.04,414.08
             626.37,420.17 579.03,414.08 574.66,416.79
             570.29,420.85 589.95,435.72 625.64,451.94
             642.40,454.65 654.05,466.14 658.42,472.23
             671.53,485.75 690.47,502.65 689.74,516.85
             686.82,523.61 664.97,511.44 654.05,501.30
             640.94,498.59 619.09,486.42 605.98,475.61
             590.68,453.97 568.10,436.39 567.38,441.80
             557.91,442.48 590.68,489.13 590.68,489.13
             590.68,489.13 622.73,512.11 628.56,536.45
             634.38,545.24 629.28,591.89 620.54,600.00
             613.26,599.32 599.42,572.96 596.51,554.70
             593.60,545.24 571.75,519.55 560.82,500.62
             560.09,484.39 552.08,444.51 547.71,445.86
             531.69,435.72 523.68,488.45 523.68,488.45
             523.68,488.45 526.59,535.10 511.29,548.62
             501.83,571.61 486.53,577.01 455.94,589.86
             445.74,589.18 471.96,561.46 471.24,538.48
             467.59,522.25 487.26,493.18 487.26,493.18
             487.26,493.18 520.76,429.63 520.76,429.63
             520.76,429.63 482.16,441.13 469.78,455.32
             447.93,478.99 424.62,498.59 401.31,496.56
             370.72,491.83 361.98,489.80 336.49,489.80
             344.70,483.18 356.16,474.25 378.74,472.90
             391.35,464.91 394.18,451.97 404.96,450.59
             404.96,450.59 431.18,443.15 436.28,441.13
             443.56,428.96 496.00,423.55 504.74,414.08
             505.47,406.65 463.22,407.32 463.22,406.65
             452.30,412.06 399.86,422.20 386.02,418.14
             358.34,420.85 351.79,400.56 327.02,389.07
             332.85,380.28 359.80,381.63 378.74,386.37
             404.23,389.07 407.14,387.04 422.44,385.69
             444.29,381.63 474.15,388.39 502.55,393.80
             507.65,392.45 470.51,361.35 439.92,357.30
             409.33,350.54 376.55,322.14 376.55,322.14
             376.55,322.14 346.69,266.70 344.50,241.01
             349.60,229.52 376.55,273.46 407.14,276.85
             423.89,284.96 430.45,298.48 441.37,316.06
             461.77,335.66 498.91,375.55 514.21,380.96
             512.75,367.44 517.85,343.77 506.20,325.52
             506.20,325.52 478.52,299.15 496.00,263.32
             513.48,243.04 504.74,197.75 520.76,197.75 Z" />

      <path id="asterDiskOuter" fill="white" stroke="black" stroke-width="2" vector-effect="non-scaling-stroke" d="M 539.70,365.07
           C 539.70,365.07 539.08,368.11 539.08,368.11
             539.08,368.11 538.75,371.83 538.75,371.83
             538.75,371.83 536.47,375.55 536.47,375.55
             536.47,375.55 535.98,384.68 535.98,384.68
             535.98,384.68 534.97,387.72 534.97,387.72
             534.97,387.72 534.24,387.72 534.24,387.72
             532.87,383.27 530.00,383.14 528.36,380.62
             527.28,378.96 527.68,375.17 527.68,373.18
             526.24,374.78 524.84,377.82 525.28,379.94
             525.44,380.72 525.93,381.60 526.32,382.31
             526.73,383.07 527.13,383.88 527.82,384.46
             528.59,385.11 530.00,385.64 530.96,386.03
             530.96,386.03 530.60,389.07 530.60,389.07
             530.60,389.07 525.86,387.19 525.86,387.19
             525.86,387.19 521.85,386.90 521.85,386.90
             521.85,386.90 517.85,385.69 517.85,385.69
             517.85,386.37 517.75,387.60 518.21,388.15
             518.82,388.88 521.58,389.34 522.58,389.55
             526.00,390.27 527.92,390.38 530.23,393.13
             528.61,393.65 528.62,393.66 526.95,393.37
             523.56,392.62 520.47,392.49 517.12,393.37
             514.16,394.24 512.88,395.33 513.84,398.20
             513.84,398.20 517.12,396.44 517.12,396.44
             518.91,395.74 523.34,394.94 524.93,396.44
             525.52,396.90 525.92,398.43 526.23,399.21
             520.83,399.87 517.37,399.23 512.02,401.61
             509.65,402.67 508.06,402.74 508.02,405.30
             508.02,405.30 508.02,407.32 508.02,407.32
             511.54,404.98 509.94,404.99 514.57,403.27
             513.20,405.50 512.65,405.38 513.11,408.00
             514.60,407.23 514.58,406.67 515.73,405.87
             517.67,404.52 520.29,404.24 522.58,404.62
             522.58,404.62 522.58,405.30 522.58,405.30
             517.36,407.78 514.73,409.54 510.57,413.41
             508.93,414.93 508.11,415.58 506.92,417.46
             508.30,417.36 510.48,417.18 511.66,416.55
             513.58,415.53 517.25,412.12 519.31,411.88
             519.85,411.81 520.90,411.99 521.49,412.06
             519.63,414.61 515.61,419.65 512.39,420.50
             511.45,420.73 510.77,420.60 509.84,420.50
             510.20,421.04 510.44,421.51 511.05,421.85
             512.28,422.55 513.82,422.01 514.94,421.39
             517.62,419.91 519.32,418.13 521.49,416.11
             519.80,421.49 519.62,420.47 517.03,425.24
             516.56,426.11 515.25,428.16 515.12,428.96
             514.97,429.94 515.72,431.32 516.03,432.34
             517.16,430.74 517.18,428.63 518.24,426.93
             519.28,425.27 522.99,422.31 524.77,421.22
             526.46,420.18 528.20,418.90 529.83,420.53
             530.20,420.91 530.72,421.53 530.81,422.05
             531.19,424.32 527.63,426.29 526.40,427.64
             524.76,429.43 525.31,430.25 525.50,432.34
             530.01,428.13 529.48,428.25 535.69,426.25
             537.55,430.43 534.88,431.63 534.01,435.38
             533.41,438.00 534.19,439.35 535.69,441.46
             535.69,441.46 537.01,434.03 537.01,434.03
             537.01,434.03 539.34,428.62 539.34,428.62
             539.34,428.62 542.25,429.30 542.25,429.30
             542.25,429.30 539.84,435.38 539.84,435.38
             538.79,439.64 539.34,444.71 541.52,448.56
             542.53,446.20 540.94,443.37 541.17,439.44
             541.34,436.58 543.06,435.22 543.69,433.01
             544.35,430.68 543.50,428.22 546.25,427.27
             546.25,427.27 549.81,437.41 549.81,437.41
             549.81,437.41 548.99,441.13 548.99,441.13
             548.99,441.13 548.80,444.51 548.80,444.51
             549.63,444.13 550.14,443.94 550.62,443.14
             551.40,441.80 551.35,436.43 551.35,434.70
             554.32,436.79 555.71,438.31 557.18,441.46
             557.18,441.46 557.91,441.46 557.91,441.46
             559.46,437.44 553.10,434.34 552.55,430.99
             552.46,430.40 552.67,429.85 552.81,429.30
             552.81,429.30 564.46,438.42 564.46,438.42
             563.32,433.78 557.85,430.52 554.99,425.92
             558.14,426.70 561.98,427.75 563.01,430.99
             565.05,426.87 561.13,427.20 559.25,425.11
             558.47,424.24 557.82,421.98 557.54,420.85
             560.50,423.36 561.94,424.55 565.92,425.04
             568.24,425.34 569.06,425.27 570.65,423.55
             566.65,423.55 566.54,424.16 563.37,421.86
             566.71,418.84 565.84,420.19 568.83,418.64
             568.83,418.64 571.75,416.79 571.75,416.79
             569.05,415.80 563.09,417.64 561.34,414.40
             561.01,413.78 560.93,413.07 560.82,412.39
             560.82,412.39 568.47,413.81 568.47,413.81
             568.47,413.81 572.11,413.81 572.11,413.81
             569.32,412.55 568.74,413.67 564.10,410.03
             568.70,410.83 573.22,412.63 576.84,408.68
             576.84,408.68 571.75,408.95 571.75,408.95
             568.37,409.17 561.95,406.57 559.36,404.62
             559.36,404.62 565.19,401.57 565.19,401.57
             567.13,400.70 571.23,399.92 572.49,398.33
             572.89,397.82 573.34,395.89 573.57,395.15
             572.58,396.00 571.70,397.30 570.64,397.86
             569.90,398.26 568.26,398.52 567.38,398.67
             562.54,399.48 562.10,399.38 557.91,396.85
             557.91,396.85 562.64,394.64 562.64,394.64
             566.36,393.67 569.68,394.73 572.70,391.68
             573.29,391.09 573.91,390.21 574.05,389.41
             574.17,388.70 573.70,387.20 573.57,386.37
             572.89,387.83 573.06,389.04 571.67,390.25
             568.80,392.76 564.13,390.78 560.82,390.25
             560.82,390.25 556.09,389.75 556.09,389.75
             557.60,387.92 560.43,383.59 560.58,381.30
             560.58,381.30 560.09,377.92 560.09,377.92
             560.09,377.92 559.11,380.28 559.11,380.28
             559.11,380.28 552.69,388.72 552.69,388.72
             552.69,388.72 549.90,391.10 549.90,391.10
             551.71,387.19 554.73,382.20 552.81,377.92
             551.31,380.19 551.62,382.75 550.63,385.01
             549.21,388.29 546.79,389.72 543.71,391.44
             543.71,391.44 544.31,387.72 544.31,387.72
             544.31,387.72 546.80,383.66 546.80,383.66
             546.80,383.66 550.32,375.21 550.32,375.21
             550.32,375.21 549.17,368.79 549.17,368.79
             549.17,368.79 547.24,376.90 547.24,376.90
             547.24,376.90 543.99,380.96 543.99,380.96
             543.99,380.96 540.06,388.39 540.06,388.39
             539.45,387.40 538.64,386.14 538.38,385.01
             537.38,380.69 539.74,378.08 540.60,374.20
             540.93,372.75 540.37,369.70 540.17,368.11
             540.02,366.96 540.17,366.18 539.70,365.07 Z
           M 514.94,402.93
           C 514.94,402.93 514.94,403.27 514.94,403.27
             514.94,403.27 514.57,402.93 514.57,402.93
             514.57,402.93 514.94,402.93 514.94,402.93 Z
           M 564.10,409.69
           C 564.10,409.69 564.10,410.03 564.10,410.03
             564.10,410.03 563.73,409.69 563.73,409.69
             563.73,409.69 564.10,409.69 564.10,409.69 Z" />

      <path id="asterDiskInner" fill="white" stroke="black" stroke-width="2" vector-effect="non-scaling-stroke" d="M 536.79,398.08
            C 528.15,399.86 530.19,409.00 532.90,415.89
              534.49,419.93 545.28,423.55 547.95,421.97
              551.35,420.85 553.23,411.63 550.33,404.96
              548.57,400.94 541.72,397.55 536.79,398.08 Z" />
    </g>
  </svg>
