<svg xmlns="http://www.w3.org/2000/svg" viewBox="0 0 1336 768" id="flower_orchid_2" class="flowers">


    <g id="weirdOrchid">
      <path id="weirdOrchidCorolla" fill="white" stroke="black" stroke-width="2" vector-effect="non-scaling-stroke" d="M 1259.66,384.68
           C 1253.65,362.87 1238.90,352.73 1230.71,348.68
             1223.61,338.54 1224.16,297.97 1224.16,297.97
             1224.16,297.97 1252.01,326.87 1252.56,341.07
             1253.65,348.17 1250.38,358.31 1259.66,384.68 Z
           M 1111.63,319.77
           C 1144.40,305.07 1137.85,292.90 1154.78,286.31
             1154.78,286.31 1190.29,286.82 1212.14,288.85
             1212.14,288.85 1181.00,308.11 1162.43,314.70
             1144.95,318.25 1148.77,308.62 1111.63,319.77 Z" />

      <path id="weirdOrchidPetals" fill="white" stroke="black" stroke-width="2" vector-effect="non-scaling-stroke" d="M 1224.16,286.31
           C 1221.97,286.82 1183.19,294.93 1182.64,294.93
             1182.09,294.93 1154.78,306.08 1144.40,295.94
             1140.41,288.53 1136.76,276.17 1134.57,252.34
             1125.83,231.55 1093.60,199.61 1093.60,187.94
             1096.58,185.18 1129.11,207.72 1153.69,229.01
             1182.64,243.72 1196.84,246.76 1211.05,264.00
             1200.12,246.76 1204.49,240.17 1205.58,235.10
             1220.88,215.83 1242.73,210.76 1243.27,210.25
             1252.56,205.69 1246.55,195.04 1255.84,189.46
             1272.23,183.89 1298.99,150.93 1302.82,152.96
             1306.04,153.86 1292.98,199.61 1291.35,208.23
             1284.79,220.90 1284.24,224.96 1284.79,234.59
             1284.24,265.01 1260.75,275.66 1237.81,279.21
             1237.81,279.21 1257.48,278.20 1271.68,278.70
             1281.51,280.73 1294.62,291.89 1305.55,313.69
             1311.01,323.32 1353.94,343.38 1353.62,348.17
             1351.43,354.25 1297.35,337.01 1274.41,341.07
             1260.21,345.13 1240.54,336.51 1237.27,332.45
             1239.45,319.77 1229.07,296.96 1229.07,296.96
             1229.07,296.96 1230.71,301.01 1230.71,314.20
             1238.90,321.80 1236.08,333.38 1235.63,338.54
             1230.71,346.14 1218.15,357.30 1218.15,357.30
             1218.15,357.30 1203.94,367.94 1199.57,394.82
             1199.39,404.92 1194.66,414.08 1182.64,420.17
             1179.17,422.79 1172.81,430.31 1164.07,431.83
             1155.87,430.82 1144.95,448.06 1144.95,448.06
             1144.95,448.06 1148.23,434.87 1154.24,428.28
             1172.26,419.15 1180.46,411.55 1183.19,404.96
             1184.83,387.72 1189.20,379.10 1194.66,364.39
             1196.40,361.16 1206.68,347.66 1214.87,339.55
             1218.69,329.41 1220.88,329.92 1218.15,321.30
             1218.69,310.65 1203.40,308.11 1203.40,308.62
             1203.40,309.13 1187.01,307.61 1182.09,316.23
             1182.09,319.02 1178.82,323.32 1183.19,331.94
             1182.96,339.50 1182.66,349.12 1178.82,353.24
             1175.54,358.82 1168.98,368.45 1164.61,374.03
             1149.87,388.73 1151.50,396.85 1149.32,405.46
             1149.87,410.03 1147.68,428.79 1147.68,428.79
             1147.68,428.79 1141.13,446.03 1141.13,446.03
             1141.13,446.03 1140.58,430.31 1138.39,423.72
             1138.39,423.72 1129.11,404.96 1135.66,380.62
             1139.49,375.04 1148.96,364.56 1153.69,355.77
             1154.71,353.87 1155.33,344.11 1155.33,344.11
             1155.33,344.11 1151.43,329.12 1154.78,313.69
             1155.73,309.31 1158.61,306.59 1164.07,303.04
             1173.35,296.45 1226.34,285.80 1224.16,286.31 Z" />

      <path id="weirdOrchidStamen" fill="white" stroke="black" stroke-width="2" vector-effect="non-scaling-stroke" d="M 1245.46,268.56
           C 1258.57,269.07 1262.94,274.14 1260.21,280.23
             1259.20,284.19 1252.01,293.92 1239.45,291.89
             1228.53,296.96 1234.53,305.07 1241.09,306.08
             1248.74,303.55 1257.48,291.89 1260.87,298.43
             1265.13,305.07 1256.40,317.85 1251.47,315.72
             1251.47,315.72 1234.53,316.73 1231.26,309.63
             1227.43,296.45 1218.15,302.03 1217.60,300.51
             1217.60,293.92 1199.57,300.51 1181.00,295.44
             1181.00,295.44 1166.80,285.30 1166.25,274.14
             1164.61,272.62 1167.89,260.96 1180.46,261.46
             1187.82,260.78 1191.38,275.66 1191.38,285.80
             1193.63,289.74 1199.31,290.32 1203.94,288.34
             1208.42,286.00 1208.31,277.18 1203.12,271.58
             1197.94,267.55 1196.40,258.41 1196.84,256.90
             1196.84,252.34 1196.30,242.20 1212.68,247.27
             1225.25,253.35 1224.70,259.94 1226.89,262.99
             1229.62,274.65 1223.61,286.82 1223.61,286.82
             1223.61,286.82 1230.71,275.15 1245.46,268.56 Z" />

      <path id="weirdOrchidPistil" fill="white" stroke="black" stroke-width="2" vector-effect="non-scaling-stroke" d="M 1205.04,331.94
             C 1205.04,331.94 1207.22,315.21 1202.31,309.13
               1200.12,298.99 1201.21,284.79 1210.50,282.25
               1232.35,278.70 1232.90,293.92 1233.99,296.96
               1237.81,307.10 1229.07,314.20 1224.70,316.73
               1214.32,318.76 1205.04,331.94 1205.04,331.94 Z" />
    </g>
  </svg>
