<svg xmlns="http://www.w3.org/2000/svg" viewBox="0 0 1336 768" id="flower_edelweiss" class="flowers">

    <g id="edelweiss">
      <path id="edelweissPetals" fill="white" stroke="black" stroke-width="2" vector-effect="non-scaling-stroke" d="M 920.98,520.56
           C 934.69,536.12 945.92,554.86 946.66,561.13
             984.90,667.10 917.16,590.54 908.42,572.28
             906.35,567.10 893.00,543.97 888.21,529.69
             882.20,505.35 880.56,489.63 880.56,489.63
             880.56,489.63 881.65,502.82 881.11,509.92
             877.83,516.51 878.06,519.41 876.74,522.59
             860.35,541.86 853.80,536.79 849.97,525.63
             849.83,521.11 854.66,513.79 857.07,509.41
             867.45,498.76 875.10,488.62 875.10,488.62
             875.10,488.62 858.17,508.90 848.33,512.96
             837.95,518.03 830.85,511.44 839.05,501.80
             839.05,501.30 868.54,484.56 868.54,484.56
             868.54,484.56 834.13,504.85 824.84,505.35
             805.73,507.89 799.72,498.25 822.11,489.13
             822.11,489.13 868.00,478.48 868.00,478.48
             868.00,478.48 858.17,481.52 836.86,480.00
             818.52,472.02 792.94,446.01 784.42,435.38
             774.04,422.70 764.76,416.62 772.40,409.01
             781.14,402.42 784.42,407.49 793.16,411.55
             809.54,415.09 839.78,445.66 856.53,462.25
             863.80,469.46 868.71,471.89 868.54,471.89
             868.00,471.89 837.41,444.00 837.95,430.82
             839.59,411.55 851.06,419.66 852.70,424.73
             854.78,426.66 858.33,442.69 863.63,454.65
             868.06,464.66 874.55,471.10 874.55,470.87
             874.55,470.64 861.69,448.68 861.44,440.45
             861.15,430.89 863.08,421.69 873.46,434.87
             877.83,440.96 876.19,459.72 878.38,466.82
             878.38,466.82 874.55,433.35 877.83,424.73
             880.56,417.13 895.86,412.06 895.31,425.75
             893.13,431.32 886.57,473.92 886.57,473.92
             886.57,473.92 890.39,447.04 898.04,432.34
             902.96,418.65 906.18,415.08 914.43,403.44
             927.00,385.71 957.89,364.06 960.86,386.70
             957.58,400.39 935.73,429.80 930.82,437.41
             923.72,448.56 890.94,474.42 890.94,474.42
             890.94,474.42 902.09,466.71 910.06,459.21
             916.64,454.53 922.33,451.12 929.18,449.07
             948.84,447.04 956.49,459.21 937.92,466.82
             934.64,471.89 889.30,480.51 889.30,480.51
             889.30,480.51 915.52,474.93 928.63,474.93
             937.37,474.42 945.02,484.56 928.09,490.14
             919.89,489.13 886.57,483.04 886.57,483.04
             886.57,483.04 919.89,489.13 931.36,496.73
             938.46,501.30 937.37,521.07 919.35,515.49
             918.25,511.44 887.66,489.13 887.66,489.13
             887.66,489.13 905.63,503.15 920.98,520.56 Z" />

      <path id="edelweissFilament" fill="white" stroke="black" stroke-width="2" vector-effect="non-scaling-stroke" d="M 865.18,492.42
            C 863.63,493.10 859.35,490.48 860.35,488.96
              864.08,484.48 875.46,480.59 875.46,480.59
              875.46,480.59 876.67,479.84 875.55,479.58
              872.64,478.56 866.27,479.41 865.63,478.73
              865.27,478.48 864.27,476.20 866.45,474.59
              868.00,473.75 875.55,477.97 875.55,477.97
              875.55,477.97 876.45,477.22 875.46,476.28
              871.91,473.41 869.18,469.94 864.36,467.32
              859.90,464.62 871.18,463.52 871.46,466.73
              873.37,472.65 877.65,476.70 877.92,476.79
              877.74,472.48 881.11,469.27 882.11,469.01
              885.30,468.51 887.30,472.14 886.66,472.99
              883.57,473.41 882.66,474.76 880.38,476.70
              893.49,477.89 898.13,474.08 899.86,475.01
              901.14,475.61 900.05,480.59 896.40,481.18
              893.03,481.52 880.65,478.23 880.65,478.23
              880.65,478.23 878.71,478.63 879.65,480.34
              880.75,482.33 884.76,485.77 884.66,487.27
              884.66,489.38 881.20,492.17 879.92,489.46
              879.92,489.46 882.47,485.83 878.10,481.86
              875.83,482.96 865.54,485.41 865.18,492.42 Z" />

      <path id="edelweissAnthers" fill="white" stroke="black" stroke-width="2" vector-effect="non-scaling-stroke" d="M 892.03,472.39
           C 896.40,469.86 894.76,468.85 894.22,464.79
             893.13,460.23 888.21,458.20 884.39,459.72
             880.56,461.24 880.02,466.82 882.20,468.85
             886.57,473.92 886.02,473.41 892.03,472.39 Z
           M 865.27,482.03
           C 864.72,484.06 853.25,486.08 850.52,480.00
             850.52,472.90 853.80,470.37 859.80,471.38
             864.17,470.87 870.18,473.92 865.27,482.03 Z
           M 875.10,453.63
           C 871.82,449.58 865.27,450.59 861.44,453.63
             858.17,455.66 855.43,462.25 859.80,463.77
             869.09,467.83 880.02,462.25 875.10,453.63 Z
           M 863.08,489.13
           C 857.62,487.10 849.97,492.17 851.06,496.73
             852.16,503.32 862.54,503.32 864.17,499.77
             867.45,497.24 870.18,491.15 863.08,489.13 Z
           M 902.41,486.59
           C 902.41,486.59 913.88,485.07 910.06,478.99
             907.87,475.94 902.96,473.41 899.13,477.46
             896.40,478.99 893.67,486.08 902.41,486.59 Z
           M 886.02,486.92
           C 884.20,487.30 883.07,489.43 881.65,490.65
             876.07,495.45 880.30,501.51 887.66,500.28
             888.84,500.09 891.19,499.59 892.21,499.01
             894.76,496.73 895.31,493.18 892.58,489.63
             890.55,487.67 888.86,486.56 886.02,486.92 Z" />
    </g>

  </svg>
