<svg xmlns="http://www.w3.org/2000/svg" viewBox="0 0 1336 768" id="flower_bleeding_heart" class="flowers">

    <g id="bleed1">
      <path id="bleedPistil1" fill="white" stroke="black" stroke-width="2" vector-effect="non-scaling-stroke" d="M 515.30,687.55
           C 520.76,687.89 517.12,682.14 525.50,669.97
             527.68,662.54 515.66,647.66 532.42,631.44
             523.68,598.65 509.47,630.08 509.47,630.42
             521.85,652.06 504.37,661.86 508.38,670.31
             515.66,679.10 509.84,687.21 515.30,687.55 Z" />

      <path id="bleedPetal1" fill="white" stroke="black" stroke-width="2" vector-effect="non-scaling-stroke" d="M 518.94,615.89
             C 526.23,609.13 544.43,602.03 550.26,615.21
               552.08,621.63 534.60,634.48 534.97,641.24
               529.87,658.14 535.33,658.48 545.89,644.96
               545.89,644.96 543.71,668.28 526.95,661.18
               516.39,656.11 519.67,642.59 522.22,638.87
               531.69,629.41 528.05,625.01 522.58,620.28
               508.74,638.20 510.93,641.24 513.11,655.77
               512.39,666.93 499.28,665.24 495.27,663.89
               489.81,661.18 488.35,653.75 479.98,649.01
               486.53,646.99 496.36,656.45 498.91,647.66
               499.05,645.31 505.10,637.18 496.73,631.77
               494.18,626.70 492.36,619.27 497.09,615.89
               506.56,608.11 515.30,614.54 518.94,615.89 Z" />
    </g>

    <g id="bleed2">
      <path id="bleedPistil2" fill="white" stroke="black" stroke-width="2" vector-effect="non-scaling-stroke" d="M 577.21,634.48
               C 582.31,634.48 580.12,628.73 583.40,624.00
                 585.62,621.43 579.76,606.76 591.05,581.75
                 590.17,577.84 585.82,575.54 583.04,574.65
                 583.04,574.65 574.43,579.08 574.30,579.72
                 577.13,594.31 576.84,617.58 573.57,620.96
                 571.02,624.34 571.68,626.45 572.11,627.04
                 577.57,631.77 571.75,634.14 577.21,634.48 Z" />

      <path id="bleedPetal2" fill="white" stroke="black" stroke-width="2" vector-effect="non-scaling-stroke" d="M 581.58,569.24
             C 581.58,569.24 599.06,556.73 604.89,567.89
               612.53,580.73 586.31,604.39 587.77,609.13
               590.32,613.86 597.24,611.83 597.97,598.31
               603.43,603.38 601.61,615.21 588.13,618.25
               580.12,619.61 580.49,600.68 586.68,590.20
               586.68,590.20 588.86,579.38 582.31,578.37
               582.31,578.37 573.20,584.11 576.48,592.23
               576.48,592.23 581.94,604.39 576.48,612.17
               575.39,615.55 567.74,619.27 563.37,619.27
               559.73,618.93 551.35,601.01 565.56,598.65
               565.56,598.65 559.36,611.49 567.38,609.80
               576.12,608.11 568.83,594.25 559.00,587.49
               551.72,580.73 559.36,565.52 581.58,569.24 Z" />
    </g>
  </svg>
