<svg xmlns="http://www.w3.org/2000/svg" viewBox="0 0 1336 768" id="flower_lily" class="flowers">

    <g id="lily">
      <path id="lilyCorolla" fill="white" stroke="black" stroke-width="2" vector-effect="non-scaling-stroke" d="M 880.02,207.72
           C 898.89,210.88 918.80,214.82 918.80,214.82
             918.80,214.82 931.36,176.79 939.56,152.96
             943.93,123.04 926.45,117.97 946.11,98.70
             946.11,98.70 957.06,87.50 958.13,87.04
             964.70,84.26 978.17,84.40 983.80,71.32
             983.80,70.65 1003.60,59.04 1009.48,69.30
             1016.82,82.11 1003.47,85.52 1011.12,98.20
             1011.12,98.20 1016.23,113.51 1007.29,127.10
             985.99,144.34 972.88,159.04 967.42,164.62
             959.22,169.18 936.83,210.76 936.28,213.80
             945.57,220.39 967.42,247.27 977.25,254.87
             999.65,267.55 1020.96,271.76 1034.61,286.31
             1041.25,293.40 1041.70,307.35 1043.89,319.27
             1046.19,331.81 1049.92,342.30 1043.89,348.17
             1041.16,354.25 1017.13,335.49 988.72,330.93
             988.72,330.93 975.06,318.25 974.52,303.04
             969.06,288.85 950.48,271.10 946.11,261.97
             934.09,245.75 931.91,234.59 916.07,230.03
             916.07,230.03 862.54,230.54 818.29,245.24
             812.13,249.58 802.95,246.91 786.61,242.20
             768.58,231.04 752.74,237.13 752.74,223.94
             754.27,216.14 762.57,219.89 772.95,208.23
             788.79,199.61 803.12,195.60 814.47,194.54
             829.21,189.46 839.05,212.79 880.02,207.72 Z
           M 1093.05,209.75" />

      <path id="lilyPetals" fill="white" stroke="black" stroke-width="2" vector-effect="non-scaling-stroke" d="M 1064.10,226.48
           C 1088.14,217.35 1088.05,215.42 1092.51,210.76
             1094.15,196.06 1066.29,195.55 1052.63,187.44
             1049.35,187.94 1036.79,175.77 1010.02,173.75
             997.96,171.80 986.72,185.50 972.88,194.03
             957.88,203.27 940.30,207.35 928.09,203.66
             920.44,201.63 914.98,188.45 914.43,163.61
             922.62,126.08 909.09,126.03 905.14,118.48
             869.64,91.61 851.61,89.07 833.04,89.58
             825.91,92.34 823.09,108.64 821.57,126.08
             816.10,143.83 818.96,156.11 825.94,165.13
             842.32,186.42 875.65,185.41 881.11,186.42
             889.85,190.99 904.60,204.17 906.24,220.39
             899.13,242.20 893.67,242.20 875.65,253.35
             858.71,258.42 845.60,269.58 843.42,278.70
             837.95,306.08 841.78,329.41 854.34,339.55
             866.36,345.13 888.76,317.24 911.70,307.61
             923.17,294.93 918.80,253.86 918.80,253.86
             918.80,253.86 932.46,220.39 932.46,220.39
             932.46,220.39 954.85,217.35 991.45,233.07
             1010.02,247.77 1032.97,250.31 1037.88,247.77
             1048.26,243.72 1055.91,233.58 1064.10,226.48 Z" />

      <path id="lilyFilament" fill="white" stroke="black" stroke-width="2" vector-effect="non-scaling-stroke" d="M 878.01,144.68
             C 888.21,160.90 890.03,169.01 900.96,185.24
               907.40,199.29 915.98,203.02 923.53,213.63
               937.54,213.63 941.01,207.55 971.24,208.90
               981.80,207.55 991.52,206.51 1006.56,207.21
               1006.56,207.21 1007.66,211.61 1007.29,211.94
               993.06,210.36 983.62,210.59 971.97,212.28
               934.82,209.58 924.63,219.38 924.63,219.38
               924.63,219.38 914.79,232.90 899.13,251.49
               891.55,263.05 890.51,270.08 887.12,283.27
               887.12,283.27 882.38,281.92 882.38,281.58
               890.40,267.19 890.94,259.39 897.31,248.79
               911.15,236.28 916.74,223.30 918.07,218.37
               910.68,210.58 920.62,213.30 905.69,198.76
               888.81,176.98 900.57,184.01 883.11,167.32
               879.25,163.63 876.79,159.82 872.55,157.18
               872.91,157.86 878.01,145.01 878.01,144.68 Z" />

      <path id="lilyPistil" fill="white" stroke="black" stroke-width="2" vector-effect="non-scaling-stroke" d="M 921.96,220.62
           C 931.67,219.83 934.94,213.52 934.94,213.52
             934.94,213.52 926.08,210.59 922.08,215.89
             921.23,209.35 914.31,206.87 914.31,206.87
             914.31,206.87 911.88,216.45 916.61,219.61
             911.27,222.99 914.92,232.23 914.92,232.23
             914.92,232.23 921.96,230.76 921.96,220.62 Z" />

      <path id="lilyAnthers" fill="white" stroke="black" stroke-width="2" vector-effect="non-scaling-stroke" d="M 878.50,282.70
           C 874.49,283.83 873.25,287.13 871.82,288.34
             870.85,293.97 874.86,296.56 878.92,295.94
             882.02,295.32 884.12,293.09 886.02,291.27
             887.60,289.35 889.18,286.20 886.57,283.77
             884.08,282.48 880.75,282.42 878.50,282.70 Z
           M 1008.75,206.65
           C 1006.93,211.38 1007.33,215.05 1014.21,215.31
             1020.87,215.56 1021.62,211.94 1021.50,209.13
             1021.62,207.77 1020.16,204.17 1015.30,204.06
             1013.36,204.06 1009.48,204.73 1008.75,206.65 Z
           M 872.06,137.46
           C 865.76,139.34 862.62,147.16 864.86,152.11
             865.94,154.51 867.71,156.84 870.73,157.12
             874.12,157.43 876.27,155.06 877.53,152.45
             880.30,146.77 880.38,136.26 872.06,137.46 Z
           M 878.62,145.46" />
    </g>


  </svg>
