<svg xmlns="http://www.w3.org/2000/svg" viewBox="0 -300 1336 768" id="flower_diasy" class="flowers">

    <g id="daisy">
      <path id="daisyPetals" fill="white" stroke="black" stroke-width="2" vector-effect="non-scaling-stroke" d="M 1217.78,101.75
           C 1210.99,92.73 1202.09,85.35 1196.18,83.04
             1184.76,77.86 1178.70,85.75 1182.34,91.38
             1184.40,95.03 1189.06,102.09 1196.18,108.28
             1209.53,117.07 1222.40,127.21 1222.40,127.21
             1222.40,127.21 1200.79,108.51 1177.24,109.86
             1161.70,111.66 1164.86,121.80 1174.57,125.86
             1174.57,125.86 1184.21,129.93 1196.18,131.04
             1207.24,132.07 1220.70,130.14 1220.70,130.14
             1220.70,130.14 1203.46,132.39 1187.19,132.85
             1176.20,135.75 1169.23,139.15 1168.98,147.04
             1168.98,147.04 1167.53,155.83 1176.27,155.83
             1185.25,156.73 1211.47,137.58 1221.67,133.52
             1221.67,133.52 1182.58,156.73 1178.70,157.86
             1170.68,165.30 1182.58,175.66 1191.81,171.15
             1192.78,171.83 1193.75,166.65 1201.12,156.49
             1210.43,145.77 1222.88,136.23 1222.88,136.23
             1222.88,136.23 1193.99,159.89 1192.53,174.31
             1189.13,186.70 1197.39,193.24 1206.62,181.75
             1215.36,170.25 1212.46,162.84 1215.84,154.03
             1220.94,142.54 1224.82,138.25 1224.82,138.25
             1224.82,138.25 1218.67,147.96 1216.08,157.41
             1213.45,167.00 1213.41,177.46 1215.60,184.45
             1227.49,196.39 1229.19,178.82 1229.19,178.82
             1229.19,178.82 1227.98,138.48 1227.98,138.48
             1227.98,138.48 1227.98,172.06 1232.11,176.79
             1234.05,183.77 1246.92,187.38 1249.34,177.24
             1249.59,164.62 1243.52,173.41 1230.65,136.45
             1236.96,150.42 1239.63,159.44 1248.62,168.23
             1250.32,172.06 1265.13,171.15 1258.08,157.63
             1258.08,157.63 1245.46,141.18 1232.59,133.97
             1238.18,135.32 1260.27,157.86 1263.67,158.54
             1270.47,161.01 1282.61,152.68 1272.41,141.41
             1260.51,132.39 1241.09,133.07 1232.59,130.82
             1241.09,131.04 1258.57,135.10 1269.50,130.14
             1277.51,127.21 1282.36,117.07 1271.92,114.37
             1255.90,110.08 1235.51,127.89 1231.14,127.89
             1246.67,115.94 1259.30,113.24 1263.67,109.63
             1266.82,107.15 1271.44,92.06 1254.69,92.73
             1243.03,93.63 1228.47,125.18 1228.47,125.18
             1228.47,125.18 1235.26,104.00 1250.32,92.06
             1253.71,87.32 1253.71,83.27 1252.01,80.34
             1246.43,75.38 1240.28,73.64 1231.14,83.49
             1231.14,83.49 1217.54,91.83 1224.58,124.73
             1221.18,116.17 1224.42,112.93 1217.78,101.75 Z" />

      <path id="daisyStamenOuter" fill="white" stroke="black" stroke-width="2" vector-effect="non-scaling-stroke" d="M 1220.21,117.75
           C 1217.05,109.86 1212.20,116.17 1218.27,119.32
             1210.99,114.82 1209.29,121.13 1217.05,122.70
             1211.71,121.13 1208.31,126.99 1216.33,127.89
             1210.74,129.24 1211.23,131.94 1215.84,132.85
             1210.74,132.85 1208.80,138.93 1215.84,136.68
             1211.23,139.83 1216.08,141.63 1218.75,139.38
             1215.84,141.86 1216.57,146.59 1223.37,144.11
             1221.67,147.04 1225.55,152.68 1228.95,145.92
             1230.41,150.42 1235.99,150.87 1234.53,145.46
             1238.66,148.39 1240.85,145.69 1239.63,142.76
             1244.00,145.46 1247.89,140.06 1241.33,138.25
             1241.82,138.33 1242.28,138.38 1242.70,138.40
             1250.15,138.93 1246.92,132.62 1242.30,133.30
             1245.70,131.72 1245.46,125.18 1239.39,127.89
             1246.19,123.83 1240.12,120.45 1236.48,124.06
             1240.60,121.13 1237.21,115.49 1231.86,120.90
             1233.81,112.56 1227.74,113.92 1225.79,118.65
             1228.95,114.82 1221.67,109.86 1220.21,117.75 Z" />

      <path id="daisyStamenMiddle" fill="white" stroke="black" stroke-width="2" vector-effect="non-scaling-stroke" d="M 1229.92,125.18
           C 1230.59,120.25 1221.18,115.72 1227.01,125.41
             1221.67,116.62 1219.00,123.15 1222.40,126.31
             1218.03,125.41 1214.14,129.46 1220.94,129.92
             1220.94,129.92 1213.90,134.65 1224.34,134.20
             1215.36,136.68 1223.85,141.41 1226.28,136.45
             1221.91,143.89 1227.74,147.49 1229.92,140.06
             1236.48,146.14 1233.32,138.48 1234.05,136.90
             1240.85,144.79 1239.63,134.42 1237.21,133.97
             1244.25,134.42 1241.58,131.27 1238.42,131.27
             1242.30,126.31 1239.39,126.54 1235.51,126.76
             1236.96,124.96 1232.35,116.17 1229.92,125.18 Z
           M 1228.71,130.59" />

      <path id="daisyStamenInner" fill="white" stroke="black" stroke-width="2" vector-effect="non-scaling-stroke" d="M 1233.08,129.46
           C 1233.32,125.41 1229.68,124.28 1228.95,128.79
             1226.77,125.18 1222.64,128.11 1225.55,130.14
             1223.24,131.93 1224.82,136.23 1228.71,133.30
             1226.52,137.80 1231.38,138.48 1232.35,134.87
             1234.53,137.80 1239.15,135.10 1235.26,132.62
             1239.39,129.46 1235.51,127.89 1233.08,129.46 Z" />
    </g>
  </svg>
