<svg xmlns="http://www.w3.org/2000/svg" viewBox="0 0 1336 768" id="flower_pansy" class="flowers">

    <g id="pansy">
      <path id="pansyPetalTop" fill="white" stroke="black" stroke-width="2" vector-effect="non-scaling-stroke" d="M 357.80,527.66
               C 352.33,518.54 365.99,486.59 371.45,482.03
                 378.01,477.97 412.97,493.69 421.16,505.35
                 426.08,512.96 421.71,556.56 421.71,556.56
                 421.71,556.56 410.78,561.63 410.78,561.63
                 410.78,561.63 361.07,540.85 357.80,527.66 Z" />

      <path id="pansyPetals" fill="white" stroke="black" stroke-width="2" vector-effect="non-scaling-stroke" d="M 399.31,600.68
               C 389.97,607.89 376.37,609.80 370.91,609.30
                 355.07,610.82 323.38,548.96 355.61,539.83
                 362.86,535.35 384.56,542.37 405.87,543.89
                 410.78,541.35 409.72,522.43 409.14,515.49
                 417.88,489.63 446.29,506.37 444.65,505.86
                 474.15,515.49 474.70,545.41 474.15,544.90
                 470.87,558.59 466.50,565.18 458.85,566.20
                 449.92,569.92 443.55,563.73 438.10,564.68
                 439.19,566.20 464.86,570.76 469.23,571.77
                 486.17,576.34 474.70,610.82 454.48,602.70
                 450.11,601.18 439.19,596.62 432.09,581.92
                 432.09,581.92 449.02,611.32 443.56,611.83
                 444.65,626.03 415.15,637.69 400.95,615.38
                 396.58,608.28 404.23,585.46 404.23,585.46
                 403.87,592.06 400.95,594.08 399.31,600.68 Z" />

      <path id="pansyPetalMark" fill="white" stroke="black" stroke-width="2" vector-effect="non-scaling-stroke" d="M 418.79,558.61
           C 411.80,560.65 410.30,565.52 416.37,569.13
             417.51,569.27 420.76,569.28 421.71,568.68
             423.65,567.77 425.36,557.88 418.79,558.61 Z
           M 438.64,582.93
           C 434.58,575.89 437.97,574.76 440.28,576.34
             437.97,573.63 438.70,572.51 443.56,570.76
             427.29,567.32 427.29,560.56 428.26,556.51
             431.42,546.37 434.58,548.39 452.78,548.62
             440.16,541.41 444.04,542.54 449.63,533.52
             436.76,538.70 436.03,546.37 434.27,534.25
             426.08,553.35 426.56,549.97 427.72,539.32
             420.49,558.08 424.38,553.13 421.16,540.34
             419.83,545.52 420.40,555.94 416.12,557.41
             408.92,559.89 398.40,551.32 396.03,550.99
             420.49,565.30 396.70,555.83 394.76,554.93
             427.29,568.00 402.53,565.30 368.72,562.14
             379.46,570.03 382.38,567.32 368.18,574.31
             384.81,574.08 382.14,574.76 377.28,582.42
             392.82,572.96 388.20,565.52 411.27,574.08
             418.07,577.46 413.21,589.63 412.42,591.55
             419.04,585.80 416.37,593.92 416.25,596.11
             420.25,589.86 419.28,583.10 426.08,591.04
             419.04,577.01 427.72,575.83 427.72,575.83
             427.72,575.83 430.69,573.18 438.64,582.93 Z" />
    </g>


  </svg>
