<svg xmlns="http://www.w3.org/2000/svg" viewBox="0 0 1336 768" id="flowers" class="flowers">
    <g id="aster">
      <path id="asterCorolla" fill="white" stroke="black" stroke-width="2" vector-effect="non-scaling-stroke" d="M 466.14,270.76
           C 466.14,270.76 483.62,311.32 499.64,337.01
             508.38,360.00 516.39,377.18 516.39,376.90
             516.39,376.23 530.23,290.37 530.23,289.01
             530.23,287.66 545.53,261.97 552.81,263.32
             562.28,268.06 552.08,288.34 548.44,301.86
             549.90,332.96 533.14,366.08 533.14,366.08
             533.14,366.08 540.43,371.49 540.43,371.49
             540.43,371.49 554.27,364.73 560.82,348.51
             567.38,324.17 582.56,310.18 591.41,307.94
             591.41,307.94 603.79,286.31 619.09,291.72
             619.82,303.21 608.89,326.20 605.98,330.93
             596.51,345.13 567.38,373.52 569.56,378.93
             572.10,384.03 600.88,379.61 616.90,359.32
             633.66,349.18 650.41,350.54 650.41,350.54
             650.41,350.54 672.99,351.21 674.44,357.30
             677.36,362.03 659.15,374.87 646.77,378.93
             629.28,385.01 599.42,387.04 581.94,397.18
             565.92,400.56 564.46,408.68 572.47,415.44
             608.16,416.79 649.68,419.49 665.70,423.55
             681.00,433.69 687.55,447.21 686.10,449.92
             672.99,451.94 667.16,452.62 646.77,449.24
             625.64,447.89 576.84,427.61 575.39,427.61
             573.93,427.61 552.81,420.85 570.29,437.75
             570.29,437.75 588.50,458.70 609.62,471.55
             622.00,480.34 616.90,483.04 627.65,491.69
             640.21,500.62 640.36,509.80 638.03,514.14
             632.93,520.90 590.68,486.42 590.68,486.42
             590.68,486.42 560.82,445.86 560.82,445.18
             560.82,444.51 547.71,439.77 546.98,440.45
             546.25,441.13 557.18,485.75 561.55,506.03
             565.19,516.85 566.65,547.94 552.81,556.06
             533.87,560.11 541.88,514.14 539.70,497.24
             542.61,475.61 529.50,439.77 529.50,439.77
             529.50,439.77 536.79,432.34 524.40,430.31
             506.92,443.15 487.26,489.80 487.26,489.80
             487.26,489.80 466.14,517.52 449.39,510.76
             438.46,506.70 469.05,485.75 471.96,484.39
             479.25,469.52 515.66,424.23 515.66,424.23
             515.66,424.23 517.85,422.87 506.20,416.79
             493.09,416.11 481.43,430.31 473.42,429.63
             456.67,430.31 438.04,438.13 435.55,440.45
             435.55,440.45 402.04,447.21 402.04,435.04
             399.86,427.61 413.70,421.52 426.08,421.52
             446.47,421.52 474.88,415.44 503.28,408.00
             503.28,408.00 500.37,394.48 500.37,394.48
             500.37,394.48 454.48,380.96 428.26,378.25
             427.54,378.25 388.93,371.49 382.38,356.62
             404.23,349.18 420.25,353.24 436.28,362.03
             436.28,362.03 497.46,383.66 497.46,383.66
             497.46,383.66 505.47,376.90 505.47,376.90
             505.47,376.90 492.36,343.77 475.80,333.32
             461.72,312.65 447.93,292.39 447.93,292.39
             447.93,292.39 429.72,274.82 448.66,260.62
             447.20,260.62 463.95,257.92 466.14,270.76 Z" />

      <path id="asterPetals" fill="white" stroke="black" stroke-width="2" vector-effect="non-scaling-stroke" d="M 520.76,197.75
           C 528.05,198.42 520.03,246.42 522.95,255.89
             533.87,272.11 534.60,293.75 534.60,293.75
             534.60,293.75 525.86,364.73 537.51,374.87
             537.51,374.87 550.62,339.04 550.62,339.04
             550.62,339.04 544.80,289.01 557.91,276.17
             570.29,252.51 571.75,219.38 587.04,220.06
             597.24,219.38 582.67,247.10 588.50,270.76
             588.50,271.44 588.50,302.54 579.76,310.65
             573.20,340.39 554.99,368.11 559.36,376.23
             559.36,376.23 570.29,376.23 593.60,360.00
             593.60,360.00 608.89,332.96 616.90,325.52
             623.78,317.86 630.74,312.68 648.22,305.92
             657.69,291.04 678.08,278.87 695.56,278.87
             697.02,292.39 659.88,327.55 655.51,332.28
             633.66,354.59 613.99,369.46 605.25,374.20
             596.51,376.23 569.56,397.18 577.57,399.21
             575.39,407.32 636.57,395.83 643.85,383.66
             643.85,383.66 656.96,368.11 689.01,370.14
             711.59,380.96 727.61,376.23 731.98,387.04
             710.13,401.92 694.11,401.24 681.73,403.27
             660.60,406.65 656.23,410.03 646.04,414.08
             626.37,420.17 579.03,414.08 574.66,416.79
             570.29,420.85 589.95,435.72 625.64,451.94
             642.40,454.65 654.05,466.14 658.42,472.23
             671.53,485.75 690.47,502.65 689.74,516.85
             686.82,523.61 664.97,511.44 654.05,501.30
             640.94,498.59 619.09,486.42 605.98,475.61
             590.68,453.97 568.10,436.39 567.38,441.80
             557.91,442.48 590.68,489.13 590.68,489.13
             590.68,489.13 622.73,512.11 628.56,536.45
             634.38,545.24 629.28,591.89 620.54,600.00
             613.26,599.32 599.42,572.96 596.51,554.70
             593.60,545.24 571.75,519.55 560.82,500.62
             560.09,484.39 552.08,444.51 547.71,445.86
             531.69,435.72 523.68,488.45 523.68,488.45
             523.68,488.45 526.59,535.10 511.29,548.62
             501.83,571.61 486.53,577.01 455.94,589.86
             445.74,589.18 471.96,561.46 471.24,538.48
             467.59,522.25 487.26,493.18 487.26,493.18
             487.26,493.18 520.76,429.63 520.76,429.63
             520.76,429.63 482.16,441.13 469.78,455.32
             447.93,478.99 424.62,498.59 401.31,496.56
             370.72,491.83 361.98,489.80 336.49,489.80
             344.70,483.18 356.16,474.25 378.74,472.90
             391.35,464.91 394.18,451.97 404.96,450.59
             404.96,450.59 431.18,443.15 436.28,441.13
             443.56,428.96 496.00,423.55 504.74,414.08
             505.47,406.65 463.22,407.32 463.22,406.65
             452.30,412.06 399.86,422.20 386.02,418.14
             358.34,420.85 351.79,400.56 327.02,389.07
             332.85,380.28 359.80,381.63 378.74,386.37
             404.23,389.07 407.14,387.04 422.44,385.69
             444.29,381.63 474.15,388.39 502.55,393.80
             507.65,392.45 470.51,361.35 439.92,357.30
             409.33,350.54 376.55,322.14 376.55,322.14
             376.55,322.14 346.69,266.70 344.50,241.01
             349.60,229.52 376.55,273.46 407.14,276.85
             423.89,284.96 430.45,298.48 441.37,316.06
             461.77,335.66 498.91,375.55 514.21,380.96
             512.75,367.44 517.85,343.77 506.20,325.52
             506.20,325.52 478.52,299.15 496.00,263.32
             513.48,243.04 504.74,197.75 520.76,197.75 Z" />

      <path id="asterDiskOuter" fill="white" stroke="black" stroke-width="2" vector-effect="non-scaling-stroke" d="M 539.70,365.07
           C 539.70,365.07 539.08,368.11 539.08,368.11
             539.08,368.11 538.75,371.83 538.75,371.83
             538.75,371.83 536.47,375.55 536.47,375.55
             536.47,375.55 535.98,384.68 535.98,384.68
             535.98,384.68 534.97,387.72 534.97,387.72
             534.97,387.72 534.24,387.72 534.24,387.72
             532.87,383.27 530.00,383.14 528.36,380.62
             527.28,378.96 527.68,375.17 527.68,373.18
             526.24,374.78 524.84,377.82 525.28,379.94
             525.44,380.72 525.93,381.60 526.32,382.31
             526.73,383.07 527.13,383.88 527.82,384.46
             528.59,385.11 530.00,385.64 530.96,386.03
             530.96,386.03 530.60,389.07 530.60,389.07
             530.60,389.07 525.86,387.19 525.86,387.19
             525.86,387.19 521.85,386.90 521.85,386.90
             521.85,386.90 517.85,385.69 517.85,385.69
             517.85,386.37 517.75,387.60 518.21,388.15
             518.82,388.88 521.58,389.34 522.58,389.55
             526.00,390.27 527.92,390.38 530.23,393.13
             528.61,393.65 528.62,393.66 526.95,393.37
             523.56,392.62 520.47,392.49 517.12,393.37
             514.16,394.24 512.88,395.33 513.84,398.20
             513.84,398.20 517.12,396.44 517.12,396.44
             518.91,395.74 523.34,394.94 524.93,396.44
             525.52,396.90 525.92,398.43 526.23,399.21
             520.83,399.87 517.37,399.23 512.02,401.61
             509.65,402.67 508.06,402.74 508.02,405.30
             508.02,405.30 508.02,407.32 508.02,407.32
             511.54,404.98 509.94,404.99 514.57,403.27
             513.20,405.50 512.65,405.38 513.11,408.00
             514.60,407.23 514.58,406.67 515.73,405.87
             517.67,404.52 520.29,404.24 522.58,404.62
             522.58,404.62 522.58,405.30 522.58,405.30
             517.36,407.78 514.73,409.54 510.57,413.41
             508.93,414.93 508.11,415.58 506.92,417.46
             508.30,417.36 510.48,417.18 511.66,416.55
             513.58,415.53 517.25,412.12 519.31,411.88
             519.85,411.81 520.90,411.99 521.49,412.06
             519.63,414.61 515.61,419.65 512.39,420.50
             511.45,420.73 510.77,420.60 509.84,420.50
             510.20,421.04 510.44,421.51 511.05,421.85
             512.28,422.55 513.82,422.01 514.94,421.39
             517.62,419.91 519.32,418.13 521.49,416.11
             519.80,421.49 519.62,420.47 517.03,425.24
             516.56,426.11 515.25,428.16 515.12,428.96
             514.97,429.94 515.72,431.32 516.03,432.34
             517.16,430.74 517.18,428.63 518.24,426.93
             519.28,425.27 522.99,422.31 524.77,421.22
             526.46,420.18 528.20,418.90 529.83,420.53
             530.20,420.91 530.72,421.53 530.81,422.05
             531.19,424.32 527.63,426.29 526.40,427.64
             524.76,429.43 525.31,430.25 525.50,432.34
             530.01,428.13 529.48,428.25 535.69,426.25
             537.55,430.43 534.88,431.63 534.01,435.38
             533.41,438.00 534.19,439.35 535.69,441.46
             535.69,441.46 537.01,434.03 537.01,434.03
             537.01,434.03 539.34,428.62 539.34,428.62
             539.34,428.62 542.25,429.30 542.25,429.30
             542.25,429.30 539.84,435.38 539.84,435.38
             538.79,439.64 539.34,444.71 541.52,448.56
             542.53,446.20 540.94,443.37 541.17,439.44
             541.34,436.58 543.06,435.22 543.69,433.01
             544.35,430.68 543.50,428.22 546.25,427.27
             546.25,427.27 549.81,437.41 549.81,437.41
             549.81,437.41 548.99,441.13 548.99,441.13
             548.99,441.13 548.80,444.51 548.80,444.51
             549.63,444.13 550.14,443.94 550.62,443.14
             551.40,441.80 551.35,436.43 551.35,434.70
             554.32,436.79 555.71,438.31 557.18,441.46
             557.18,441.46 557.91,441.46 557.91,441.46
             559.46,437.44 553.10,434.34 552.55,430.99
             552.46,430.40 552.67,429.85 552.81,429.30
             552.81,429.30 564.46,438.42 564.46,438.42
             563.32,433.78 557.85,430.52 554.99,425.92
             558.14,426.70 561.98,427.75 563.01,430.99
             565.05,426.87 561.13,427.20 559.25,425.11
             558.47,424.24 557.82,421.98 557.54,420.85
             560.50,423.36 561.94,424.55 565.92,425.04
             568.24,425.34 569.06,425.27 570.65,423.55
             566.65,423.55 566.54,424.16 563.37,421.86
             566.71,418.84 565.84,420.19 568.83,418.64
             568.83,418.64 571.75,416.79 571.75,416.79
             569.05,415.80 563.09,417.64 561.34,414.40
             561.01,413.78 560.93,413.07 560.82,412.39
             560.82,412.39 568.47,413.81 568.47,413.81
             568.47,413.81 572.11,413.81 572.11,413.81
             569.32,412.55 568.74,413.67 564.10,410.03
             568.70,410.83 573.22,412.63 576.84,408.68
             576.84,408.68 571.75,408.95 571.75,408.95
             568.37,409.17 561.95,406.57 559.36,404.62
             559.36,404.62 565.19,401.57 565.19,401.57
             567.13,400.70 571.23,399.92 572.49,398.33
             572.89,397.82 573.34,395.89 573.57,395.15
             572.58,396.00 571.70,397.30 570.64,397.86
             569.90,398.26 568.26,398.52 567.38,398.67
             562.54,399.48 562.10,399.38 557.91,396.85
             557.91,396.85 562.64,394.64 562.64,394.64
             566.36,393.67 569.68,394.73 572.70,391.68
             573.29,391.09 573.91,390.21 574.05,389.41
             574.17,388.70 573.70,387.20 573.57,386.37
             572.89,387.83 573.06,389.04 571.67,390.25
             568.80,392.76 564.13,390.78 560.82,390.25
             560.82,390.25 556.09,389.75 556.09,389.75
             557.60,387.92 560.43,383.59 560.58,381.30
             560.58,381.30 560.09,377.92 560.09,377.92
             560.09,377.92 559.11,380.28 559.11,380.28
             559.11,380.28 552.69,388.72 552.69,388.72
             552.69,388.72 549.90,391.10 549.90,391.10
             551.71,387.19 554.73,382.20 552.81,377.92
             551.31,380.19 551.62,382.75 550.63,385.01
             549.21,388.29 546.79,389.72 543.71,391.44
             543.71,391.44 544.31,387.72 544.31,387.72
             544.31,387.72 546.80,383.66 546.80,383.66
             546.80,383.66 550.32,375.21 550.32,375.21
             550.32,375.21 549.17,368.79 549.17,368.79
             549.17,368.79 547.24,376.90 547.24,376.90
             547.24,376.90 543.99,380.96 543.99,380.96
             543.99,380.96 540.06,388.39 540.06,388.39
             539.45,387.40 538.64,386.14 538.38,385.01
             537.38,380.69 539.74,378.08 540.60,374.20
             540.93,372.75 540.37,369.70 540.17,368.11
             540.02,366.96 540.17,366.18 539.70,365.07 Z
           M 514.94,402.93
           C 514.94,402.93 514.94,403.27 514.94,403.27
             514.94,403.27 514.57,402.93 514.57,402.93
             514.57,402.93 514.94,402.93 514.94,402.93 Z
           M 564.10,409.69
           C 564.10,409.69 564.10,410.03 564.10,410.03
             564.10,410.03 563.73,409.69 563.73,409.69
             563.73,409.69 564.10,409.69 564.10,409.69 Z" />

      <path id="asterDiskInner" fill="white" stroke="black" stroke-width="2" vector-effect="non-scaling-stroke" d="M 536.79,398.08
            C 528.15,399.86 530.19,409.00 532.90,415.89
              534.49,419.93 545.28,423.55 547.95,421.97
              551.35,420.85 553.23,411.63 550.33,404.96
              548.57,400.94 541.72,397.55 536.79,398.08 Z" />
    </g>

    <g id="bleed1">
      <path id="bleedPistil1" fill="white" stroke="black" stroke-width="2" vector-effect="non-scaling-stroke" d="M 515.30,687.55
           C 520.76,687.89 517.12,682.14 525.50,669.97
             527.68,662.54 515.66,647.66 532.42,631.44
             523.68,598.65 509.47,630.08 509.47,630.42
             521.85,652.06 504.37,661.86 508.38,670.31
             515.66,679.10 509.84,687.21 515.30,687.55 Z" />

      <path id="bleedPetal1" fill="white" stroke="black" stroke-width="2" vector-effect="non-scaling-stroke" d="M 518.94,615.89
             C 526.23,609.13 544.43,602.03 550.26,615.21
               552.08,621.63 534.60,634.48 534.97,641.24
               529.87,658.14 535.33,658.48 545.89,644.96
               545.89,644.96 543.71,668.28 526.95,661.18
               516.39,656.11 519.67,642.59 522.22,638.87
               531.69,629.41 528.05,625.01 522.58,620.28
               508.74,638.20 510.93,641.24 513.11,655.77
               512.39,666.93 499.28,665.24 495.27,663.89
               489.81,661.18 488.35,653.75 479.98,649.01
               486.53,646.99 496.36,656.45 498.91,647.66
               499.05,645.31 505.10,637.18 496.73,631.77
               494.18,626.70 492.36,619.27 497.09,615.89
               506.56,608.11 515.30,614.54 518.94,615.89 Z" />
    </g>

    <g id="bleed2">
      <path id="bleedPistil2" fill="white" stroke="black" stroke-width="2" vector-effect="non-scaling-stroke" d="M 577.21,634.48
               C 582.31,634.48 580.12,628.73 583.40,624.00
                 585.62,621.43 579.76,606.76 591.05,581.75
                 590.17,577.84 585.82,575.54 583.04,574.65
                 583.04,574.65 574.43,579.08 574.30,579.72
                 577.13,594.31 576.84,617.58 573.57,620.96
                 571.02,624.34 571.68,626.45 572.11,627.04
                 577.57,631.77 571.75,634.14 577.21,634.48 Z" />

      <path id="bleedPetal2" fill="white" stroke="black" stroke-width="2" vector-effect="non-scaling-stroke" d="M 581.58,569.24
             C 581.58,569.24 599.06,556.73 604.89,567.89
               612.53,580.73 586.31,604.39 587.77,609.13
               590.32,613.86 597.24,611.83 597.97,598.31
               603.43,603.38 601.61,615.21 588.13,618.25
               580.12,619.61 580.49,600.68 586.68,590.20
               586.68,590.20 588.86,579.38 582.31,578.37
               582.31,578.37 573.20,584.11 576.48,592.23
               576.48,592.23 581.94,604.39 576.48,612.17
               575.39,615.55 567.74,619.27 563.37,619.27
               559.73,618.93 551.35,601.01 565.56,598.65
               565.56,598.65 559.36,611.49 567.38,609.80
               576.12,608.11 568.83,594.25 559.00,587.49
               551.72,580.73 559.36,565.52 581.58,569.24 Z" />
    </g>

    <g id="bleed3">
      <path id="bleedPistil3" fill="white" stroke="black" stroke-width="2" vector-effect="non-scaling-stroke" d="M 805.54,395.83
               C 805.91,400.56 802.99,404.96 807.36,406.99
                 812.10,408.34 811.37,401.24 814.28,398.20
                 821.57,395.83 818.09,390.97 817.92,386.70
                 817.41,382.16 823.36,377.04 828.85,369.13
                 831.12,365.86 831.70,356.47 834.68,354.59
                 835.77,348.51 831.40,345.13 827.76,344.11
                 819.75,341.07 813.92,347.15 813.92,350.20
                 815.58,354.16 810.44,359.92 810.28,365.07
                 809.91,379.27 812.83,377.92 809.18,384.68
                 806.20,389.63 802.63,390.76 805.54,395.83 Z" />

      <path id="bleedPetal3" fill="white" stroke="black" stroke-width="2" vector-effect="non-scaling-stroke" d="M 828.49,342.42
             C 828.49,342.42 841.96,338.37 845.60,345.80
               845.60,345.80 845.97,359.32 833.58,364.73
               826.66,367.10 829.21,385.35 839.05,372.51
               844.15,382.99 827.03,385.01 822.66,371.83
               822.66,372.17 821.93,363.72 827.03,360.00
               827.03,360.00 835.04,348.85 825.94,345.13
               825.94,345.13 817.20,344.79 817.56,354.25
               819.38,363.04 816.47,385.35 797.53,373.86
               808.09,374.54 807.36,368.45 808.46,365.07
               810.28,357.63 799.35,348.51 804.81,342.08
               809.18,337.01 820.11,331.94 828.49,342.42 Z" />
    </g>

    <g id="daisy">
      <path id="daisyPetals" fill="white" stroke="black" stroke-width="2" vector-effect="non-scaling-stroke" d="M 1217.78,101.75
           C 1210.99,92.73 1202.09,85.35 1196.18,83.04
             1184.76,77.86 1178.70,85.75 1182.34,91.38
             1184.40,95.03 1189.06,102.09 1196.18,108.28
             1209.53,117.07 1222.40,127.21 1222.40,127.21
             1222.40,127.21 1200.79,108.51 1177.24,109.86
             1161.70,111.66 1164.86,121.80 1174.57,125.86
             1174.57,125.86 1184.21,129.93 1196.18,131.04
             1207.24,132.07 1220.70,130.14 1220.70,130.14
             1220.70,130.14 1203.46,132.39 1187.19,132.85
             1176.20,135.75 1169.23,139.15 1168.98,147.04
             1168.98,147.04 1167.53,155.83 1176.27,155.83
             1185.25,156.73 1211.47,137.58 1221.67,133.52
             1221.67,133.52 1182.58,156.73 1178.70,157.86
             1170.68,165.30 1182.58,175.66 1191.81,171.15
             1192.78,171.83 1193.75,166.65 1201.12,156.49
             1210.43,145.77 1222.88,136.23 1222.88,136.23
             1222.88,136.23 1193.99,159.89 1192.53,174.31
             1189.13,186.70 1197.39,193.24 1206.62,181.75
             1215.36,170.25 1212.46,162.84 1215.84,154.03
             1220.94,142.54 1224.82,138.25 1224.82,138.25
             1224.82,138.25 1218.67,147.96 1216.08,157.41
             1213.45,167.00 1213.41,177.46 1215.60,184.45
             1227.49,196.39 1229.19,178.82 1229.19,178.82
             1229.19,178.82 1227.98,138.48 1227.98,138.48
             1227.98,138.48 1227.98,172.06 1232.11,176.79
             1234.05,183.77 1246.92,187.38 1249.34,177.24
             1249.59,164.62 1243.52,173.41 1230.65,136.45
             1236.96,150.42 1239.63,159.44 1248.62,168.23
             1250.32,172.06 1265.13,171.15 1258.08,157.63
             1258.08,157.63 1245.46,141.18 1232.59,133.97
             1238.18,135.32 1260.27,157.86 1263.67,158.54
             1270.47,161.01 1282.61,152.68 1272.41,141.41
             1260.51,132.39 1241.09,133.07 1232.59,130.82
             1241.09,131.04 1258.57,135.10 1269.50,130.14
             1277.51,127.21 1282.36,117.07 1271.92,114.37
             1255.90,110.08 1235.51,127.89 1231.14,127.89
             1246.67,115.94 1259.30,113.24 1263.67,109.63
             1266.82,107.15 1271.44,92.06 1254.69,92.73
             1243.03,93.63 1228.47,125.18 1228.47,125.18
             1228.47,125.18 1235.26,104.00 1250.32,92.06
             1253.71,87.32 1253.71,83.27 1252.01,80.34
             1246.43,75.38 1240.28,73.64 1231.14,83.49
             1231.14,83.49 1217.54,91.83 1224.58,124.73
             1221.18,116.17 1224.42,112.93 1217.78,101.75 Z" />

      <path id="daisyStamenOuter" fill="white" stroke="black" stroke-width="2" vector-effect="non-scaling-stroke" d="M 1220.21,117.75
           C 1217.05,109.86 1212.20,116.17 1218.27,119.32
             1210.99,114.82 1209.29,121.13 1217.05,122.70
             1211.71,121.13 1208.31,126.99 1216.33,127.89
             1210.74,129.24 1211.23,131.94 1215.84,132.85
             1210.74,132.85 1208.80,138.93 1215.84,136.68
             1211.23,139.83 1216.08,141.63 1218.75,139.38
             1215.84,141.86 1216.57,146.59 1223.37,144.11
             1221.67,147.04 1225.55,152.68 1228.95,145.92
             1230.41,150.42 1235.99,150.87 1234.53,145.46
             1238.66,148.39 1240.85,145.69 1239.63,142.76
             1244.00,145.46 1247.89,140.06 1241.33,138.25
             1241.82,138.33 1242.28,138.38 1242.70,138.40
             1250.15,138.93 1246.92,132.62 1242.30,133.30
             1245.70,131.72 1245.46,125.18 1239.39,127.89
             1246.19,123.83 1240.12,120.45 1236.48,124.06
             1240.60,121.13 1237.21,115.49 1231.86,120.90
             1233.81,112.56 1227.74,113.92 1225.79,118.65
             1228.95,114.82 1221.67,109.86 1220.21,117.75 Z" />

      <path id="daisyStamenMiddle" fill="white" stroke="black" stroke-width="2" vector-effect="non-scaling-stroke" d="M 1229.92,125.18
           C 1230.59,120.25 1221.18,115.72 1227.01,125.41
             1221.67,116.62 1219.00,123.15 1222.40,126.31
             1218.03,125.41 1214.14,129.46 1220.94,129.92
             1220.94,129.92 1213.90,134.65 1224.34,134.20
             1215.36,136.68 1223.85,141.41 1226.28,136.45
             1221.91,143.89 1227.74,147.49 1229.92,140.06
             1236.48,146.14 1233.32,138.48 1234.05,136.90
             1240.85,144.79 1239.63,134.42 1237.21,133.97
             1244.25,134.42 1241.58,131.27 1238.42,131.27
             1242.30,126.31 1239.39,126.54 1235.51,126.76
             1236.96,124.96 1232.35,116.17 1229.92,125.18 Z
           M 1228.71,130.59" />

      <path id="daisyStamenInner" fill="white" stroke="black" stroke-width="2" vector-effect="non-scaling-stroke" d="M 1233.08,129.46
           C 1233.32,125.41 1229.68,124.28 1228.95,128.79
             1226.77,125.18 1222.64,128.11 1225.55,130.14
             1223.24,131.93 1224.82,136.23 1228.71,133.30
             1226.52,137.80 1231.38,138.48 1232.35,134.87
             1234.53,137.80 1239.15,135.10 1235.26,132.62
             1239.39,129.46 1235.51,127.89 1233.08,129.46 Z" />
    </g>

    <g id="edelweiss">
      <path id="edelweissPetals" fill="white" stroke="black" stroke-width="2" vector-effect="non-scaling-stroke" d="M 920.98,520.56
           C 934.69,536.12 945.92,554.86 946.66,561.13
             984.90,667.10 917.16,590.54 908.42,572.28
             906.35,567.10 893.00,543.97 888.21,529.69
             882.20,505.35 880.56,489.63 880.56,489.63
             880.56,489.63 881.65,502.82 881.11,509.92
             877.83,516.51 878.06,519.41 876.74,522.59
             860.35,541.86 853.80,536.79 849.97,525.63
             849.83,521.11 854.66,513.79 857.07,509.41
             867.45,498.76 875.10,488.62 875.10,488.62
             875.10,488.62 858.17,508.90 848.33,512.96
             837.95,518.03 830.85,511.44 839.05,501.80
             839.05,501.30 868.54,484.56 868.54,484.56
             868.54,484.56 834.13,504.85 824.84,505.35
             805.73,507.89 799.72,498.25 822.11,489.13
             822.11,489.13 868.00,478.48 868.00,478.48
             868.00,478.48 858.17,481.52 836.86,480.00
             818.52,472.02 792.94,446.01 784.42,435.38
             774.04,422.70 764.76,416.62 772.40,409.01
             781.14,402.42 784.42,407.49 793.16,411.55
             809.54,415.09 839.78,445.66 856.53,462.25
             863.80,469.46 868.71,471.89 868.54,471.89
             868.00,471.89 837.41,444.00 837.95,430.82
             839.59,411.55 851.06,419.66 852.70,424.73
             854.78,426.66 858.33,442.69 863.63,454.65
             868.06,464.66 874.55,471.10 874.55,470.87
             874.55,470.64 861.69,448.68 861.44,440.45
             861.15,430.89 863.08,421.69 873.46,434.87
             877.83,440.96 876.19,459.72 878.38,466.82
             878.38,466.82 874.55,433.35 877.83,424.73
             880.56,417.13 895.86,412.06 895.31,425.75
             893.13,431.32 886.57,473.92 886.57,473.92
             886.57,473.92 890.39,447.04 898.04,432.34
             902.96,418.65 906.18,415.08 914.43,403.44
             927.00,385.71 957.89,364.06 960.86,386.70
             957.58,400.39 935.73,429.80 930.82,437.41
             923.72,448.56 890.94,474.42 890.94,474.42
             890.94,474.42 902.09,466.71 910.06,459.21
             916.64,454.53 922.33,451.12 929.18,449.07
             948.84,447.04 956.49,459.21 937.92,466.82
             934.64,471.89 889.30,480.51 889.30,480.51
             889.30,480.51 915.52,474.93 928.63,474.93
             937.37,474.42 945.02,484.56 928.09,490.14
             919.89,489.13 886.57,483.04 886.57,483.04
             886.57,483.04 919.89,489.13 931.36,496.73
             938.46,501.30 937.37,521.07 919.35,515.49
             918.25,511.44 887.66,489.13 887.66,489.13
             887.66,489.13 905.63,503.15 920.98,520.56 Z" />

      <path id="edelweissFilament" fill="white" stroke="black" stroke-width="2" vector-effect="non-scaling-stroke" d="M 865.18,492.42
            C 863.63,493.10 859.35,490.48 860.35,488.96
              864.08,484.48 875.46,480.59 875.46,480.59
              875.46,480.59 876.67,479.84 875.55,479.58
              872.64,478.56 866.27,479.41 865.63,478.73
              865.27,478.48 864.27,476.20 866.45,474.59
              868.00,473.75 875.55,477.97 875.55,477.97
              875.55,477.97 876.45,477.22 875.46,476.28
              871.91,473.41 869.18,469.94 864.36,467.32
              859.90,464.62 871.18,463.52 871.46,466.73
              873.37,472.65 877.65,476.70 877.92,476.79
              877.74,472.48 881.11,469.27 882.11,469.01
              885.30,468.51 887.30,472.14 886.66,472.99
              883.57,473.41 882.66,474.76 880.38,476.70
              893.49,477.89 898.13,474.08 899.86,475.01
              901.14,475.61 900.05,480.59 896.40,481.18
              893.03,481.52 880.65,478.23 880.65,478.23
              880.65,478.23 878.71,478.63 879.65,480.34
              880.75,482.33 884.76,485.77 884.66,487.27
              884.66,489.38 881.20,492.17 879.92,489.46
              879.92,489.46 882.47,485.83 878.10,481.86
              875.83,482.96 865.54,485.41 865.18,492.42 Z" />

      <path id="edelweissAnthers" fill="white" stroke="black" stroke-width="2" vector-effect="non-scaling-stroke" d="M 892.03,472.39
           C 896.40,469.86 894.76,468.85 894.22,464.79
             893.13,460.23 888.21,458.20 884.39,459.72
             880.56,461.24 880.02,466.82 882.20,468.85
             886.57,473.92 886.02,473.41 892.03,472.39 Z
           M 865.27,482.03
           C 864.72,484.06 853.25,486.08 850.52,480.00
             850.52,472.90 853.80,470.37 859.80,471.38
             864.17,470.87 870.18,473.92 865.27,482.03 Z
           M 875.10,453.63
           C 871.82,449.58 865.27,450.59 861.44,453.63
             858.17,455.66 855.43,462.25 859.80,463.77
             869.09,467.83 880.02,462.25 875.10,453.63 Z
           M 863.08,489.13
           C 857.62,487.10 849.97,492.17 851.06,496.73
             852.16,503.32 862.54,503.32 864.17,499.77
             867.45,497.24 870.18,491.15 863.08,489.13 Z
           M 902.41,486.59
           C 902.41,486.59 913.88,485.07 910.06,478.99
             907.87,475.94 902.96,473.41 899.13,477.46
             896.40,478.99 893.67,486.08 902.41,486.59 Z
           M 886.02,486.92
           C 884.20,487.30 883.07,489.43 881.65,490.65
             876.07,495.45 880.30,501.51 887.66,500.28
             888.84,500.09 891.19,499.59 892.21,499.01
             894.76,496.73 895.31,493.18 892.58,489.63
             890.55,487.67 888.86,486.56 886.02,486.92 Z" />
    </g>

    <g id="falseRueAll">
      <path id="falseRue2" fill="white" stroke="black" stroke-width="2" vector-effect="non-scaling-stroke" d="M 651.14,59.49
           C 683.91,63.21 681.36,60.51 699.93,50.03
             709.04,39.89 724.70,15.21 720.69,12.17
             714.86,7.44 679.54,9.80 670.80,13.86
             658.05,14.87 636.20,52.39 636.20,52.39
             636.20,52.39 636.93,27.72 634.38,19.94
             623.46,-0.34 597.24,-3.72 594.32,-2.37
             588.86,-2.37 588.86,24.34 589.59,29.07
             593.96,43.27 610.71,58.48 610.71,58.48
             610.71,58.48 589.23,40.23 581.21,38.87
             553.90,26.70 527.68,35.15 526.95,41.24
             524.04,43.61 544.43,66.25 555.72,69.97
             585.58,78.08 612.90,68.28 612.90,68.28
             612.90,68.28 601.97,87.21 603.43,105.46
             608.89,126.76 612.90,138.59 623.82,139.61
             635.84,139.61 646.04,114.25 647.13,109.18
             648.22,93.30 636.20,71.32 636.20,71.32
             636.20,71.32 644.22,86.87 651.86,95.66
             662.79,108.51 688.64,118.65 691.19,114.25
             696.66,107.83 689.74,82.48 685.73,80.45
             674.81,63.21 651.14,59.83 651.14,59.49 Z" />

      <path id="falseRue3" fill="white" stroke="black" stroke-width="2" vector-effect="non-scaling-stroke" d="M 841.60,63.55
           C 841.60,63.21 869.64,71.32 880.20,67.61
             888.57,65.58 913.34,57.46 914.07,46.99
             908.60,37.52 888.21,34.48 880.93,33.46
             863.81,32.79 845.24,52.06 842.32,48.68
             840.87,46.31 848.52,47.32 866.72,26.03
             874.37,8.45 878.01,-14.20 869.27,-15.21
             852.89,-12.85 848.52,-7.44 831.03,13.18
             825.94,22.31 824.12,45.63 824.12,45.63
             824.12,45.63 813.55,28.39 801.54,20.62
             778.96,8.11 766.94,9.80 757.11,8.79
             739.26,8.79 750.92,26.03 760.02,36.17
             760.02,36.17 771.68,51.72 776.41,52.73
             776.77,54.08 796.07,56.79 808.82,59.49
             808.82,59.49 771.68,65.58 757.47,81.80
             756.74,85.18 748.73,108.51 752.74,114.93
             760.39,121.35 789.52,106.48 793.53,102.42
             803.36,95.66 800.81,73.69 812.46,72.34
             812.46,72.34 804.81,90.59 813.92,105.13
             825.94,120.34 848.15,136.90 851.06,130.14
             854.71,122.03 857.26,108.17 856.89,90.59
             855.43,74.70 841.60,63.89 841.60,63.55 Z" />

      <path id="falseRue1" fill="white" stroke="black" stroke-width="2" vector-effect="non-scaling-stroke" d="M 709.04,135.21
             C 704.04,124.55 697.21,117.30 690.02,112.38
               679.54,104.45 653.68,101.07 652.96,107.15
               652.23,120.34 657.33,128.45 661.12,136.42
               667.56,144.40 678.34,151.53 696.29,154.82
               686.53,152.82 670.86,158.93 662.06,171.04
               655.87,186.59 652.57,197.75 656.96,202.14
               663.88,206.54 682.16,202.09 691.19,197.41
               704.79,190.36 712.32,178.82 711.59,170.70
               715.59,170.37 705.12,198.01 726.88,212.96
               744.66,222.98 759.29,227.49 762.21,223.77
               767.10,217.94 769.05,206.05 765.44,193.76
               761.51,180.41 751.00,166.59 730.52,159.55
               730.52,159.55 755.21,168.53 774.89,161.87
               784.29,158.68 797.17,147.04 796.44,138.93
               798.26,135.89 790.30,130.94 773.91,128.27
               766.79,127.11 757.61,126.62 745.82,127.44
               722.51,144.68 726.14,142.31 724.70,141.97
               741.77,131.35 747.93,121.20 749.83,108.51
               752.74,93.97 752.37,81.46 748.73,77.75
               740.72,69.30 687.92,92.96 709.04,135.21 Z
             M 785.88,222.76" />
    </g>

    <g id="ghostFlower">
      <path id="ghostFlowerCorolla" fill="white" stroke="black" stroke-width="2" vector-effect="non-scaling-stroke" d="M 1128.68,381.63
           C 1114.60,388.39 1121.16,393.58 1118.00,397.18
             1118.00,397.18 1111.20,400.11 1106.59,394.25
             1104.65,397.63 1100.76,398.08 1098.09,400.79
             1098.09,400.79 1096.39,400.34 1092.75,399.66
             1091.78,398.99 1097.12,396.28 1099.31,393.58
             1100.28,391.55 1098.82,386.37 1103.68,384.34
             1107.80,383.89 1111.93,382.31 1128.68,381.63 Z
           M 1108.29,389.30
           C 1108.29,389.30 1114.12,391.32 1115.57,393.35
             1115.57,393.35 1115.09,387.04 1116.54,385.46
             1112.42,385.24 1108.29,389.30 1108.29,389.30 Z
           M 1072.84,395.38
           C 1066.53,396.73 1059.49,396.28 1054.15,394.03
             1050.02,391.32 1042.01,376.90 1036.91,373.07
             1046.14,377.80 1052.21,375.10 1056.82,376.68
             1058.03,377.58 1062.40,379.15 1063.86,382.31
             1064.35,384.56 1061.43,385.24 1061.43,386.37
             1062.65,388.62 1065.07,392.68 1072.84,395.38 Z
           M 1074.79,473.58
           C 1075.27,456.90 1089.84,452.85 1092.02,446.54
             1093.68,440.78 1093.76,431.10 1093.48,425.58
             1093.43,424.61 1092.51,418.14 1091.29,414.08
             1090.02,414.79 1089.47,417.76 1088.62,421.07
             1089.84,430.31 1087.41,433.69 1085.71,435.04
             1082.55,431.89 1079.64,430.76 1076.49,432.56
             1073.81,435.27 1071.39,444.06 1071.39,444.28
             1071.14,450.82 1069.93,460.96 1074.79,473.58 Z
           M 1075.03,453.30
           C 1075.03,453.30 1076.24,448.56 1076.24,442.03
             1075.51,438.42 1078.18,436.62 1079.88,437.30
             1079.88,437.30 1084.50,440.45 1086.68,438.65
             1084.74,442.93 1080.61,448.11 1075.03,453.30 Z
           M 1061.19,392.03
           C 1061.10,390.68 1057.18,389.07 1055.45,386.45
             1054.45,384.42 1056.00,383.07 1056.46,382.31
             1054.82,379.77 1048.26,380.03 1048.26,380.03
             1048.99,381.63 1056.27,391.27 1061.19,392.03 Z" />

      <path id="ghostFlowerPetals" fill="white" stroke="black" stroke-width="2" vector-effect="non-scaling-stroke" d="M 1086.20,405.52
           C 1087.41,407.10 1086.20,411.83 1084.25,413.86
             1082.41,415.94 1078.67,418.37 1072.67,418.53
             1068.80,419.38 1064.82,420.00 1062.16,420.62
             1065.32,418.14 1074.30,415.44 1074.30,415.44
             1079.88,415.21 1086.44,407.32 1086.20,405.52 Z
           M 1069.20,406.65
           C 1066.05,403.72 1059.98,404.17 1058.03,405.30
             1054.39,408.90 1048.32,411.61 1046.62,411.61
             1055.36,409.80 1055.61,410.93 1059.25,408.68
             1060.22,407.55 1064.10,405.52 1069.20,406.65 Z
           M 1038.61,431.89
           C 1043.47,433.69 1047.84,431.44 1049.29,430.31
             1050.51,427.61 1052.94,425.80 1055.12,423.32
             1052.21,424.45 1050.02,426.25 1048.32,427.61
             1047.11,428.73 1042.01,432.11 1038.61,431.89 Z
           M 1027.20,431.66
           C 1027.93,428.06 1033.51,423.77 1035.46,422.65
             1037.88,421.30 1045.89,419.94 1048.08,420.39
             1041.04,422.87 1036.91,425.35 1036.91,425.13
             1036.91,424.90 1028.90,429.63 1027.20,431.66 Z
           M 1032.78,433.92
           C 1032.78,435.94 1029.87,437.52 1028.66,437.75
             1026.96,438.20 1023.56,436.62 1023.56,436.62
             1025.74,436.85 1028.41,436.62 1032.78,433.92 Z
           M 1018.95,433.69
           C 1018.95,433.69 1017.98,433.46 1015.79,433.92
             1014.58,434.82 1013.85,438.20 1013.85,438.20
             1013.85,438.20 1016.76,434.14 1018.95,433.69 Z
           M 1102.71,403.04
           C 1108.29,403.27 1112.66,408.68 1114.36,411.83
             1115.82,414.76 1115.09,421.97 1116.30,427.83
             1113.87,425.35 1112.17,417.01 1111.69,414.31
             1110.96,412.51 1109.50,409.58 1102.71,403.04 Z
           M 1103.19,423.10
           C 1099.79,429.86 1102.95,435.72 1104.89,437.97
             1107.08,440.00 1112.17,438.87 1113.63,437.97
             1106.35,436.39 1104.40,433.92 1103.19,423.10 Z
           M 1118.97,432.56
           C 1123.12,434.74 1127.95,439.77 1130.14,444.28
             1131.11,447.21 1129.17,451.72 1129.17,451.72
             1128.44,445.63 1129.90,446.08 1118.97,432.56 Z
           M 1114.36,452.17
           C 1118.49,449.92 1116.06,461.18 1131.60,463.44
             1127.95,463.66 1124.07,462.54 1120.43,461.18
             1118.00,458.48 1112.17,453.52 1114.36,452.17 Z
           M 1128.68,470.87
           C 1127.47,478.99 1129.65,479.89 1129.65,479.89
             1129.65,479.89 1135.48,483.72 1138.15,483.49
             1135.48,481.69 1129.65,478.99 1128.68,470.87 Z
           M 1136.94,464.11
           C 1140.34,467.27 1138.88,467.04 1138.88,470.42
             1138.64,470.87 1136.21,475.15 1136.21,475.15
             1136.94,470.42 1138.15,467.49 1136.94,464.11 Z
           M 1082.80,390.20
           C 1076.49,389.52 1076.97,385.92 1076.24,382.99
             1077.21,376.23 1084.01,370.14 1090.81,365.86
             1081.10,378.25 1075.27,385.24 1082.80,390.20 Z
           M 1102.71,358.87
           C 1102.71,359.32 1100.52,362.70 1100.03,364.51
             1101.25,368.79 1104.65,372.17 1104.40,375.10
             1103.43,378.48 1096.15,381.86 1096.15,381.86
             1096.15,381.86 1098.82,378.48 1101.01,375.77
             1101.01,375.77 1101.01,372.39 1097.36,366.31
             1097.85,361.58 1102.71,358.42 1102.71,358.87 Z
           M 1099.55,350.08
           C 1093.72,352.34 1092.21,357.59 1094.94,360.23
             1088.14,357.30 1092.02,351.21 1092.27,351.21
             1097.85,348.28 1098.82,347.83 1102.22,343.55
             1101.49,347.38 1101.84,346.29 1099.55,350.08 Z
           M 1102.95,353.46
           C 1102.95,353.46 1109.02,348.96 1109.99,346.48
             1109.99,346.48 1109.99,343.10 1107.56,337.92
             1106.59,343.55 1107.56,348.06 1102.95,353.46 Z
           M 1103.92,337.69
           C 1103.92,337.69 1102.71,334.99 1102.95,331.83
             1104.65,330.93 1105.86,329.58 1110.72,327.77
             1105.13,333.41 1103.92,337.69 1103.92,337.69 Z
           M 1112.42,329.80
           C 1112.42,329.80 1118.24,327.55 1118.73,326.65
             1118.73,326.65 1119.70,323.94 1119.46,320.34
             1119.21,320.79 1116.54,326.87 1112.42,329.80 Z" />
    </g>

    <g id="lily">
      <path id="lilyCorolla" fill="white" stroke="black" stroke-width="2" vector-effect="non-scaling-stroke" d="M 880.02,207.72
           C 898.89,210.88 918.80,214.82 918.80,214.82
             918.80,214.82 931.36,176.79 939.56,152.96
             943.93,123.04 926.45,117.97 946.11,98.70
             946.11,98.70 957.06,87.50 958.13,87.04
             964.70,84.26 978.17,84.40 983.80,71.32
             983.80,70.65 1003.60,59.04 1009.48,69.30
             1016.82,82.11 1003.47,85.52 1011.12,98.20
             1011.12,98.20 1016.23,113.51 1007.29,127.10
             985.99,144.34 972.88,159.04 967.42,164.62
             959.22,169.18 936.83,210.76 936.28,213.80
             945.57,220.39 967.42,247.27 977.25,254.87
             999.65,267.55 1020.96,271.76 1034.61,286.31
             1041.25,293.40 1041.70,307.35 1043.89,319.27
             1046.19,331.81 1049.92,342.30 1043.89,348.17
             1041.16,354.25 1017.13,335.49 988.72,330.93
             988.72,330.93 975.06,318.25 974.52,303.04
             969.06,288.85 950.48,271.10 946.11,261.97
             934.09,245.75 931.91,234.59 916.07,230.03
             916.07,230.03 862.54,230.54 818.29,245.24
             812.13,249.58 802.95,246.91 786.61,242.20
             768.58,231.04 752.74,237.13 752.74,223.94
             754.27,216.14 762.57,219.89 772.95,208.23
             788.79,199.61 803.12,195.60 814.47,194.54
             829.21,189.46 839.05,212.79 880.02,207.72 Z
           M 1093.05,209.75" />

      <path id="lilyPetals" fill="white" stroke="black" stroke-width="2" vector-effect="non-scaling-stroke" d="M 1064.10,226.48
           C 1088.14,217.35 1088.05,215.42 1092.51,210.76
             1094.15,196.06 1066.29,195.55 1052.63,187.44
             1049.35,187.94 1036.79,175.77 1010.02,173.75
             997.96,171.80 986.72,185.50 972.88,194.03
             957.88,203.27 940.30,207.35 928.09,203.66
             920.44,201.63 914.98,188.45 914.43,163.61
             922.62,126.08 909.09,126.03 905.14,118.48
             869.64,91.61 851.61,89.07 833.04,89.58
             825.91,92.34 823.09,108.64 821.57,126.08
             816.10,143.83 818.96,156.11 825.94,165.13
             842.32,186.42 875.65,185.41 881.11,186.42
             889.85,190.99 904.60,204.17 906.24,220.39
             899.13,242.20 893.67,242.20 875.65,253.35
             858.71,258.42 845.60,269.58 843.42,278.70
             837.95,306.08 841.78,329.41 854.34,339.55
             866.36,345.13 888.76,317.24 911.70,307.61
             923.17,294.93 918.80,253.86 918.80,253.86
             918.80,253.86 932.46,220.39 932.46,220.39
             932.46,220.39 954.85,217.35 991.45,233.07
             1010.02,247.77 1032.97,250.31 1037.88,247.77
             1048.26,243.72 1055.91,233.58 1064.10,226.48 Z" />

      <path id="lilyFilament" fill="white" stroke="black" stroke-width="2" vector-effect="non-scaling-stroke" d="M 878.01,144.68
             C 888.21,160.90 890.03,169.01 900.96,185.24
               907.40,199.29 915.98,203.02 923.53,213.63
               937.54,213.63 941.01,207.55 971.24,208.90
               981.80,207.55 991.52,206.51 1006.56,207.21
               1006.56,207.21 1007.66,211.61 1007.29,211.94
               993.06,210.36 983.62,210.59 971.97,212.28
               934.82,209.58 924.63,219.38 924.63,219.38
               924.63,219.38 914.79,232.90 899.13,251.49
               891.55,263.05 890.51,270.08 887.12,283.27
               887.12,283.27 882.38,281.92 882.38,281.58
               890.40,267.19 890.94,259.39 897.31,248.79
               911.15,236.28 916.74,223.30 918.07,218.37
               910.68,210.58 920.62,213.30 905.69,198.76
               888.81,176.98 900.57,184.01 883.11,167.32
               879.25,163.63 876.79,159.82 872.55,157.18
               872.91,157.86 878.01,145.01 878.01,144.68 Z" />

      <path id="lilyPistil" fill="white" stroke="black" stroke-width="2" vector-effect="non-scaling-stroke" d="M 921.96,220.62
           C 931.67,219.83 934.94,213.52 934.94,213.52
             934.94,213.52 926.08,210.59 922.08,215.89
             921.23,209.35 914.31,206.87 914.31,206.87
             914.31,206.87 911.88,216.45 916.61,219.61
             911.27,222.99 914.92,232.23 914.92,232.23
             914.92,232.23 921.96,230.76 921.96,220.62 Z" />

      <path id="lilyAnthers" fill="white" stroke="black" stroke-width="2" vector-effect="non-scaling-stroke" d="M 878.50,282.70
           C 874.49,283.83 873.25,287.13 871.82,288.34
             870.85,293.97 874.86,296.56 878.92,295.94
             882.02,295.32 884.12,293.09 886.02,291.27
             887.60,289.35 889.18,286.20 886.57,283.77
             884.08,282.48 880.75,282.42 878.50,282.70 Z
           M 1008.75,206.65
           C 1006.93,211.38 1007.33,215.05 1014.21,215.31
             1020.87,215.56 1021.62,211.94 1021.50,209.13
             1021.62,207.77 1020.16,204.17 1015.30,204.06
             1013.36,204.06 1009.48,204.73 1008.75,206.65 Z
           M 872.06,137.46
           C 865.76,139.34 862.62,147.16 864.86,152.11
             865.94,154.51 867.71,156.84 870.73,157.12
             874.12,157.43 876.27,155.06 877.53,152.45
             880.30,146.77 880.38,136.26 872.06,137.46 Z
           M 878.62,145.46" />
    </g>

    <g id="loosestrife">
      <path id="loosestrifeCorolla" fill="white" stroke="black" stroke-width="2" vector-effect="non-scaling-stroke" d="M 1082.31,699.83
           C 1065.80,711.32 1073.33,717.63 1073.33,717.63
             1073.33,717.63 1074.06,726.87 1063.13,726.65
             1068.96,731.61 1065.56,732.96 1068.72,736.56
             1067.99,745.13 1076.49,748.51 1076.49,748.51
             1076.49,748.51 1072.21,750.17 1068.47,748.96
             1067.53,748.65 1061.92,743.77 1061.92,743.77
             1061.92,743.77 1051.48,731.61 1051.48,731.61
             1051.48,731.61 1054.15,738.14 1048.81,743.77
             1046.62,752.11 1043.22,749.18 1029.87,757.75
             1038.85,748.28 1039.10,739.27 1039.10,739.27
             1039.10,739.27 1042.74,726.87 1038.13,729.58
             1033.51,732.28 1025.50,731.83 1025.50,731.83
             1025.50,731.83 1008.51,731.38 1004.38,736.34
             1004.38,736.34 1018.70,722.37 1025.26,720.79
             1025.26,720.79 1032.30,722.82 1038.61,718.99
             1034.73,709.97 1037.40,710.65 1035.94,702.08
             1030.60,696.68 1038.37,690.14 1040.80,682.03
             1039.10,702.31 1053.66,699.38 1052.21,712.00
             1052.21,712.00 1058.28,712.23 1066.05,706.37
             1071.63,703.66 1074.06,698.70 1082.31,699.83 Z" />

      <path id="loosestrifePetals" fill="white" stroke="black" stroke-width="2" vector-effect="non-scaling-stroke" d="M 1046.38,717.86
           C 1046.38,717.86 1040.07,714.03 1041.04,705.69
             1040.31,697.80 1045.65,697.58 1046.14,691.72
             1047.11,686.31 1043.47,683.61 1043.22,674.82
             1050.26,673.92 1053.91,681.35 1053.91,681.35
             1054.15,690.37 1058.03,693.30 1058.28,693.97
             1063.62,698.03 1064.83,706.59 1064.59,706.59
             1067.02,713.58 1056.33,719.21 1056.33,719.21
             1056.33,719.21 1067.75,710.65 1076.24,717.18
             1085.95,721.01 1095.42,708.85 1102.46,708.85
             1103.43,715.38 1096.64,719.44 1096.15,724.85
             1090.81,732.73 1084.74,729.58 1081.58,733.86
             1073.81,740.39 1060.46,733.86 1055.85,728.68
             1061.43,736.11 1061.68,735.44 1059.98,741.52
             1056.33,746.48 1057.31,749.86 1059.73,753.24
             1061.19,763.38 1066.53,767.89 1063.13,777.13
             1058.52,772.62 1046.38,768.11 1047.84,760.00
             1047.84,751.21 1036.43,749.86 1049.29,729.58
             1049.29,729.58 1042.50,741.07 1036.91,742.87
             1028.90,748.06 1029.14,748.28 1022.35,757.07
             1019.19,760.45 1003.89,759.32 1001.71,756.39
             1001.22,753.69 1005.84,750.31 1019.67,743.77
             1026.47,737.46 1019.67,738.14 1023.56,730.70
             1030.11,724.39 1039.10,725.30 1044.92,722.82
             1023.80,727.77 1018.95,713.80 1018.70,707.04
             1019.43,696.00 1012.88,698.93 1008.75,691.72
             1006.32,685.86 1009.72,679.77 1010.69,679.55
             1016.52,689.01 1015.06,689.01 1022.59,693.75
             1029.14,696.90 1033.51,693.75 1036.18,702.31
             1042.25,719.66 1046.38,717.86 1046.38,717.86 Z" />
    </g>

    <g id="orchid">
      <path id="orchidPetals" fill="white" stroke="black" stroke-width="2" vector-effect="non-scaling-stroke" d="M 1116.54,649.35
           C 1107.80,660.51 1083.22,681.30 1087.05,687.89
             1122.01,697.01 1128.56,675.72 1154.78,661.52
             1164.07,648.85 1165.16,630.08 1163.52,621.97
             1160.79,616.90 1150.41,607.77 1150.41,607.77
             1150.41,607.77 1160.24,615.38 1169.53,616.90
             1187.56,608.28 1198.48,610.31 1211.05,610.31
             1244.91,606.76 1247.10,592.56 1242.73,585.97
             1240.54,560.11 1199.57,571.27 1179.91,569.24
             1155.33,573.80 1155.33,570.76 1146.59,565.69
             1141.13,555.55 1159.15,540.34 1160.24,515.49
             1164.61,489.63 1163.52,490.14 1158.61,477.97
             1147.68,464.28 1141.13,472.39 1136.21,475.44
             1128.56,495.21 1119.82,506.37 1117.64,509.92
             1105.62,517.52 1096.33,522.59 1091.96,532.23
             1089.23,542.37 1092.51,545.92 1097.42,552.51
             1084.86,542.87 1073.94,539.32 1059.73,541.86
             1005.65,552.00 1001.83,606.25 1011.12,604.73
             1018.76,605.75 1020.40,590.03 1059.19,584.45
             1068.47,584.45 1087.59,575.32 1091.42,563.66
             1091.42,563.66 1118.18,555.55 1137.85,575.83
             1149.87,583.44 1147.13,600.68 1143.31,606.25
             1125.83,598.14 1124.19,618.42 1124.19,618.42
             1124.19,618.42 1120.91,641.24 1116.54,649.35 Z" />

      <path id="orchidPetalTop" fill="white" stroke="black" stroke-width="2" vector-effect="non-scaling-stroke" d="M 1144.95,529.18
           C 1153.69,522.59 1167.35,535.27 1167.89,539.32
             1185.37,541.35 1179.78,553.14 1176.63,556.06
             1181.00,564.68 1179.91,574.31 1174.99,574.82
             1167.89,581.41 1140.58,573.80 1134.02,576.85
             1134.02,569.24 1130.20,547.44 1144.95,529.18 Z" />

      <path id="orchidPetalBottom" fill="white" stroke="black" stroke-width="2" vector-effect="non-scaling-stroke" d="M 1070.66,615.89
             C 1067.93,621.97 1061.92,625.52 1067.38,628.06
               1072.26,630.00 1076.67,628.06 1082.76,630.46
               1086.15,630.07 1092.19,629.29 1098.52,626.54
               1107.80,624.00 1095.79,618.93 1110.54,614.87
               1116.09,616.49 1118.18,617.41 1124.74,614.87
               1128.00,613.66 1126.19,608.80 1128.56,606.25
               1130.16,604.54 1135.93,604.66 1137.85,604.73
               1154.24,606.25 1150.96,594.08 1150.41,590.03
               1149.32,586.99 1144.95,582.93 1146.59,576.85
               1147.68,574.82 1152.05,566.70 1146.59,564.68
               1144.40,559.61 1137.30,565.18 1135.66,565.69
               1119.28,553.52 1109.99,552.51 1107.80,556.06
               1094.69,557.07 1104.53,571.77 1102.34,576.85
               1103.98,578.87 1103.98,585.97 1095.24,586.48
               1095.24,586.48 1094.69,585.46 1090.87,592.56
               1088.98,593.98 1079.35,593.40 1077.76,596.11
               1074.70,602.30 1071.75,608.79 1070.66,615.89 Z" />
    </g>

    <g id="pansy">
      <path id="pansyPetalTop" fill="white" stroke="black" stroke-width="2" vector-effect="non-scaling-stroke" d="M 357.80,527.66
               C 352.33,518.54 365.99,486.59 371.45,482.03
                 378.01,477.97 412.97,493.69 421.16,505.35
                 426.08,512.96 421.71,556.56 421.71,556.56
                 421.71,556.56 410.78,561.63 410.78,561.63
                 410.78,561.63 361.07,540.85 357.80,527.66 Z" />

      <path id="pansyPetals" fill="white" stroke="black" stroke-width="2" vector-effect="non-scaling-stroke" d="M 399.31,600.68
               C 389.97,607.89 376.37,609.80 370.91,609.30
                 355.07,610.82 323.38,548.96 355.61,539.83
                 362.86,535.35 384.56,542.37 405.87,543.89
                 410.78,541.35 409.72,522.43 409.14,515.49
                 417.88,489.63 446.29,506.37 444.65,505.86
                 474.15,515.49 474.70,545.41 474.15,544.90
                 470.87,558.59 466.50,565.18 458.85,566.20
                 449.92,569.92 443.55,563.73 438.10,564.68
                 439.19,566.20 464.86,570.76 469.23,571.77
                 486.17,576.34 474.70,610.82 454.48,602.70
                 450.11,601.18 439.19,596.62 432.09,581.92
                 432.09,581.92 449.02,611.32 443.56,611.83
                 444.65,626.03 415.15,637.69 400.95,615.38
                 396.58,608.28 404.23,585.46 404.23,585.46
                 403.87,592.06 400.95,594.08 399.31,600.68 Z" />

      <path id="pansyPetalMark" fill="white" stroke="black" stroke-width="2" vector-effect="non-scaling-stroke" d="M 418.79,558.61
           C 411.80,560.65 410.30,565.52 416.37,569.13
             417.51,569.27 420.76,569.28 421.71,568.68
             423.65,567.77 425.36,557.88 418.79,558.61 Z
           M 438.64,582.93
           C 434.58,575.89 437.97,574.76 440.28,576.34
             437.97,573.63 438.70,572.51 443.56,570.76
             427.29,567.32 427.29,560.56 428.26,556.51
             431.42,546.37 434.58,548.39 452.78,548.62
             440.16,541.41 444.04,542.54 449.63,533.52
             436.76,538.70 436.03,546.37 434.27,534.25
             426.08,553.35 426.56,549.97 427.72,539.32
             420.49,558.08 424.38,553.13 421.16,540.34
             419.83,545.52 420.40,555.94 416.12,557.41
             408.92,559.89 398.40,551.32 396.03,550.99
             420.49,565.30 396.70,555.83 394.76,554.93
             427.29,568.00 402.53,565.30 368.72,562.14
             379.46,570.03 382.38,567.32 368.18,574.31
             384.81,574.08 382.14,574.76 377.28,582.42
             392.82,572.96 388.20,565.52 411.27,574.08
             418.07,577.46 413.21,589.63 412.42,591.55
             419.04,585.80 416.37,593.92 416.25,596.11
             420.25,589.86 419.28,583.10 426.08,591.04
             419.04,577.01 427.72,575.83 427.72,575.83
             427.72,575.83 430.69,573.18 438.64,582.93 Z" />
    </g>

    <g id="trillium">
      <path id="trilliumCorolla" fill="white" stroke="black" stroke-width="2" vector-effect="non-scaling-stroke" d="M 1022.04,613.35
           C 1022.04,613.35 979.43,618.42 963.59,611.32
             959.77,607.77 955.40,601.18 944.47,599.66
             929.72,601.18 908.42,612.85 885.48,603.21
             859.26,591.04 867.45,575.32 850.52,558.08
             841.23,549.46 836.32,555.55 829.76,548.96
             816.10,536.79 804.09,525.63 793.16,510.42
             806.27,530.20 811.19,533.75 817.74,552.51
             817.20,567.21 812.83,565.18 820.47,580.90
             840.14,605.24 843.96,603.21 840.69,626.03
             841.78,647.83 836.86,670.14 825.94,679.77
             817.74,688.39 825.94,703.61 821.57,712.23
             817.74,721.35 801.90,732.51 788.25,742.65
             788.25,742.65 818.29,728.45 827.58,718.31
             836.32,708.68 861.44,709.18 861.44,700.56
             865.27,687.38 866.91,671.15 891.49,651.38
             904.05,635.66 947.75,635.15 947.75,635.15
             947.75,635.15 963.05,630.59 965.78,625.52
             973.43,619.94 1022.04,613.35 1022.04,613.35 Z" />

      <path id="trilliumPetals" fill="white" stroke="black" stroke-width="2" vector-effect="non-scaling-stroke" d="M 823.21,582.42
           C 846.69,573.80 854.89,595.10 849.97,603.72
             829.21,619.44 839.59,632.11 845.60,639.21
             869.64,653.41 857.62,677.75 842.87,674.70
             812.83,662.03 819.93,667.61 788.79,646.82
             773.50,633.63 699.75,637.69 697.02,625.01
             697.02,610.31 756.56,616.90 783.33,605.24
             805.18,596.62 800.81,597.13 823.21,582.42 Z
           M 897.50,636.17
           C 907.87,609.30 936.83,612.85 936.28,632.62
             936.28,632.62 938.03,648.56 939.01,650.37
             943.04,657.76 951.41,675.64 963.59,691.94
             981.07,711.21 996.80,730.30 992.00,735.04
             983.80,746.70 940.65,711.21 923.17,709.18
             910.61,704.62 892.03,706.65 872.91,702.59
             855.98,694.48 842.32,667.61 870.73,664.06
             882.75,661.01 889.30,664.06 897.50,636.17 Z
           M 935.19,589.01
           C 936.28,600.68 926.99,627.04 902.96,609.30
             902.96,609.30 895.31,591.55 869.64,589.52
             869.64,589.52 833.58,591.04 854.34,562.14
             863.08,543.89 889.85,543.89 901.87,533.75
             914.98,525.63 946.66,477.46 960.32,485.07
             979.43,491.15 932.46,534.76 935.19,589.01 Z" />

      <path id="trilliumStamenOuter" fill="white" stroke="black" stroke-width="2" vector-effect="non-scaling-stroke" d="M 861.14,624.34
           C 859.97,619.69 854.74,624.77 853.86,630.87
             851.67,628.62 855.31,623.44 857.01,623.21
             855.31,614.20 857.74,612.85 859.20,612.62
             857.98,611.04 856.04,606.76 859.93,605.86
             856.77,596.85 866.48,592.34 867.94,592.79
             873.04,592.79 868.67,598.42 866.48,602.70
             874.74,595.27 874.98,600.45 874.98,603.83
             878.62,599.55 882.26,603.61 882.50,608.79
             885.66,596.85 893.91,604.28 889.06,613.30
             897.31,607.44 896.59,614.87 890.27,622.76
             899.01,613.07 898.53,622.08 893.91,627.04
             893.91,627.04 889.54,630.87 889.54,630.87
             889.54,630.87 892.46,637.41 887.36,641.01
             887.36,641.01 884.93,651.15 883.23,650.70
             883.09,646.51 884.28,642.04 883.96,640.11
             881.05,634.70 878.53,643.29 878.13,649.13
             878.13,649.13 874.74,655.21 872.79,657.01
             880.56,639.21 868.91,648.45 869.15,650.93
             869.15,650.93 869.90,645.69 871.34,641.01
             874.01,637.63 874.57,634.77 873.28,634.03
             873.39,632.19 871.09,633.35 868.18,636.51
             869.39,640.56 867.99,642.61 866.72,645.30
             868.91,631.55 863.57,639.66 863.32,645.75
             863.32,645.75 860.65,640.34 865.51,636.73
             863.57,635.15 867.94,629.07 869.64,625.24
             869.15,621.72 863.42,624.47 859.44,634.70
             859.83,630.66 861.57,626.04 861.14,624.34 Z" />

      <path id="trilliumStamenInner" fill="white" stroke="black" stroke-width="2" vector-effect="non-scaling-stroke" d="M 885.17,635.83
             C 886.90,631.15 889.30,627.04 887.85,625.01
               885.90,623.21 884.97,624.99 882.07,630.44
               881.70,630.96 883.12,622.87 882.99,623.21
               877.65,615.10 878.13,627.27 875.71,630.65
               875.71,623.66 873.28,627.49 870.85,627.94
               871.34,620.73 868.67,622.99 866.24,622.99
               864.30,616.45 862.84,620.96 861.14,622.31
               863.32,617.58 861.38,612.39 861.38,612.39
               861.38,612.39 860.65,606.31 865.02,609.92
               864.54,604.96 872.31,598.65 867.94,613.52
               867.94,613.52 875.46,606.99 877.65,615.10
               876.92,611.49 884.45,605.63 881.53,616.23
               883.72,613.52 889.30,611.49 886.15,621.18
               886.15,621.41 894.64,621.18 885.17,635.83 Z
             M 904.60,619.83" />
    </g>
    <g id="geranium">
      <path id="geraniumPetals" fill="white" stroke="black" stroke-width="2" vector-effect="non-scaling-stroke" d="M 919.53,337.35
           C 919.53,337.35 911.52,315.72 922.44,312.00
             932.64,300.85 947.21,307.61 947.57,307.27
             952.67,319.10 958.49,311.66 962.14,310.99
             974.52,312.68 977.07,324.51 976.34,324.17
             983.26,333.97 967.96,336.68 961.41,346.48
             967.23,343.10 976.70,329.24 986.54,336.00
             986.54,336.00 993.82,345.46 989.45,348.51
             985.44,360.68 991.63,364.73 991.63,364.06
             1001.10,376.56 992.73,384.34 986.90,391.44
             971.97,389.41 953.76,380.62 951.21,377.24
             970.88,397.86 993.09,384.34 988.36,404.96
             988.36,404.96 989.45,411.04 971.60,415.44
             948.30,412.39 951.58,419.49 949.39,425.58
             926.08,442.48 917.71,434.37 918.80,434.70
             889.30,433.35 913.34,409.69 912.97,404.96
             895.49,422.54 910.06,430.99 886.75,434.37
             866.72,431.32 869.27,418.48 868.91,418.82
             873.28,399.89 860.90,406.31 860.90,405.97
             848.52,404.62 844.87,378.25 852.52,376.23
             864.17,361.69 870.37,376.23 885.66,370.14
             855.07,370.82 856.89,359.32 856.89,359.32
             849.61,349.52 864.90,331.27 869.64,334.31
             876.92,335.32 878.01,334.31 881.65,324.85
             892.58,309.63 904.60,308.62 909.70,315.38
             915.16,326.87 919.53,337.35 919.53,337.35 Z" />

      <path id="geraniumStamen" fill="white" stroke="black" stroke-width="2" vector-effect="non-scaling-stroke" d="M 900.59,441.80M 905.14,381.13
           C 917.16,367.94 921.53,373.52 911.70,353.75
             923.72,363.38 922.08,367.94 933.55,351.21
             934.09,366.93 931.91,364.90 945.02,366.42
             935.73,371.49 932.46,373.01 935.73,390.25
             924.81,377.07 928.63,375.04 905.14,381.13 Z" />
    </g>

    <g id="weirdOrchid">
      <path id="weirdOrchidCorolla" fill="white" stroke="black" stroke-width="2" vector-effect="non-scaling-stroke" d="M 1259.66,384.68
           C 1253.65,362.87 1238.90,352.73 1230.71,348.68
             1223.61,338.54 1224.16,297.97 1224.16,297.97
             1224.16,297.97 1252.01,326.87 1252.56,341.07
             1253.65,348.17 1250.38,358.31 1259.66,384.68 Z
           M 1111.63,319.77
           C 1144.40,305.07 1137.85,292.90 1154.78,286.31
             1154.78,286.31 1190.29,286.82 1212.14,288.85
             1212.14,288.85 1181.00,308.11 1162.43,314.70
             1144.95,318.25 1148.77,308.62 1111.63,319.77 Z" />

      <path id="weirdOrchidPetals" fill="white" stroke="black" stroke-width="2" vector-effect="non-scaling-stroke" d="M 1224.16,286.31
           C 1221.97,286.82 1183.19,294.93 1182.64,294.93
             1182.09,294.93 1154.78,306.08 1144.40,295.94
             1140.41,288.53 1136.76,276.17 1134.57,252.34
             1125.83,231.55 1093.60,199.61 1093.60,187.94
             1096.58,185.18 1129.11,207.72 1153.69,229.01
             1182.64,243.72 1196.84,246.76 1211.05,264.00
             1200.12,246.76 1204.49,240.17 1205.58,235.10
             1220.88,215.83 1242.73,210.76 1243.27,210.25
             1252.56,205.69 1246.55,195.04 1255.84,189.46
             1272.23,183.89 1298.99,150.93 1302.82,152.96
             1306.04,153.86 1292.98,199.61 1291.35,208.23
             1284.79,220.90 1284.24,224.96 1284.79,234.59
             1284.24,265.01 1260.75,275.66 1237.81,279.21
             1237.81,279.21 1257.48,278.20 1271.68,278.70
             1281.51,280.73 1294.62,291.89 1305.55,313.69
             1311.01,323.32 1353.94,343.38 1353.62,348.17
             1351.43,354.25 1297.35,337.01 1274.41,341.07
             1260.21,345.13 1240.54,336.51 1237.27,332.45
             1239.45,319.77 1229.07,296.96 1229.07,296.96
             1229.07,296.96 1230.71,301.01 1230.71,314.20
             1238.90,321.80 1236.08,333.38 1235.63,338.54
             1230.71,346.14 1218.15,357.30 1218.15,357.30
             1218.15,357.30 1203.94,367.94 1199.57,394.82
             1199.39,404.92 1194.66,414.08 1182.64,420.17
             1179.17,422.79 1172.81,430.31 1164.07,431.83
             1155.87,430.82 1144.95,448.06 1144.95,448.06
             1144.95,448.06 1148.23,434.87 1154.24,428.28
             1172.26,419.15 1180.46,411.55 1183.19,404.96
             1184.83,387.72 1189.20,379.10 1194.66,364.39
             1196.40,361.16 1206.68,347.66 1214.87,339.55
             1218.69,329.41 1220.88,329.92 1218.15,321.30
             1218.69,310.65 1203.40,308.11 1203.40,308.62
             1203.40,309.13 1187.01,307.61 1182.09,316.23
             1182.09,319.02 1178.82,323.32 1183.19,331.94
             1182.96,339.50 1182.66,349.12 1178.82,353.24
             1175.54,358.82 1168.98,368.45 1164.61,374.03
             1149.87,388.73 1151.50,396.85 1149.32,405.46
             1149.87,410.03 1147.68,428.79 1147.68,428.79
             1147.68,428.79 1141.13,446.03 1141.13,446.03
             1141.13,446.03 1140.58,430.31 1138.39,423.72
             1138.39,423.72 1129.11,404.96 1135.66,380.62
             1139.49,375.04 1148.96,364.56 1153.69,355.77
             1154.71,353.87 1155.33,344.11 1155.33,344.11
             1155.33,344.11 1151.43,329.12 1154.78,313.69
             1155.73,309.31 1158.61,306.59 1164.07,303.04
             1173.35,296.45 1226.34,285.80 1224.16,286.31 Z" />

      <path id="weirdOrchidStamen" fill="white" stroke="black" stroke-width="2" vector-effect="non-scaling-stroke" d="M 1245.46,268.56
           C 1258.57,269.07 1262.94,274.14 1260.21,280.23
             1259.20,284.19 1252.01,293.92 1239.45,291.89
             1228.53,296.96 1234.53,305.07 1241.09,306.08
             1248.74,303.55 1257.48,291.89 1260.87,298.43
             1265.13,305.07 1256.40,317.85 1251.47,315.72
             1251.47,315.72 1234.53,316.73 1231.26,309.63
             1227.43,296.45 1218.15,302.03 1217.60,300.51
             1217.60,293.92 1199.57,300.51 1181.00,295.44
             1181.00,295.44 1166.80,285.30 1166.25,274.14
             1164.61,272.62 1167.89,260.96 1180.46,261.46
             1187.82,260.78 1191.38,275.66 1191.38,285.80
             1193.63,289.74 1199.31,290.32 1203.94,288.34
             1208.42,286.00 1208.31,277.18 1203.12,271.58
             1197.94,267.55 1196.40,258.41 1196.84,256.90
             1196.84,252.34 1196.30,242.20 1212.68,247.27
             1225.25,253.35 1224.70,259.94 1226.89,262.99
             1229.62,274.65 1223.61,286.82 1223.61,286.82
             1223.61,286.82 1230.71,275.15 1245.46,268.56 Z" />

      <path id="weirdOrchidPistil" fill="white" stroke="black" stroke-width="2" vector-effect="non-scaling-stroke" d="M 1205.04,331.94
             C 1205.04,331.94 1207.22,315.21 1202.31,309.13
               1200.12,298.99 1201.21,284.79 1210.50,282.25
               1232.35,278.70 1232.90,293.92 1233.99,296.96
               1237.81,307.10 1229.07,314.20 1224.70,316.73
               1214.32,318.76 1205.04,331.94 1205.04,331.94 Z" />
    </g>
  </svg>