<svg xmlns="http://www.w3.org/2000/svg" viewBox="0 0 1336 768" id="flower_geranium" class="flowers">

    <g id="geranium">
      <path id="geraniumPetals" fill="white" stroke="black" stroke-width="2" vector-effect="non-scaling-stroke" d="M 919.53,337.35
           C 919.53,337.35 911.52,315.72 922.44,312.00
             932.64,300.85 947.21,307.61 947.57,307.27
             952.67,319.10 958.49,311.66 962.14,310.99
             974.52,312.68 977.07,324.51 976.34,324.17
             983.26,333.97 967.96,336.68 961.41,346.48
             967.23,343.10 976.70,329.24 986.54,336.00
             986.54,336.00 993.82,345.46 989.45,348.51
             985.44,360.68 991.63,364.73 991.63,364.06
             1001.10,376.56 992.73,384.34 986.90,391.44
             971.97,389.41 953.76,380.62 951.21,377.24
             970.88,397.86 993.09,384.34 988.36,404.96
             988.36,404.96 989.45,411.04 971.60,415.44
             948.30,412.39 951.58,419.49 949.39,425.58
             926.08,442.48 917.71,434.37 918.80,434.70
             889.30,433.35 913.34,409.69 912.97,404.96
             895.49,422.54 910.06,430.99 886.75,434.37
             866.72,431.32 869.27,418.48 868.91,418.82
             873.28,399.89 860.90,406.31 860.90,405.97
             848.52,404.62 844.87,378.25 852.52,376.23
             864.17,361.69 870.37,376.23 885.66,370.14
             855.07,370.82 856.89,359.32 856.89,359.32
             849.61,349.52 864.90,331.27 869.64,334.31
             876.92,335.32 878.01,334.31 881.65,324.85
             892.58,309.63 904.60,308.62 909.70,315.38
             915.16,326.87 919.53,337.35 919.53,337.35 Z" />

      <path id="geraniumStamen" fill="white" stroke="black" stroke-width="2" vector-effect="non-scaling-stroke" d="M 900.59,441.80M 905.14,381.13
           C 917.16,367.94 921.53,373.52 911.70,353.75
             923.72,363.38 922.08,367.94 933.55,351.21
             934.09,366.93 931.91,364.90 945.02,366.42
             935.73,371.49 932.46,373.01 935.73,390.25
             924.81,377.07 928.63,375.04 905.14,381.13 Z" />
    </g>


  </svg>
