<svg xmlns="http://www.w3.org/2000/svg" viewBox="0 0 1336 768" id="flower_strife" class="flowers">

    <g id="loosestrife">
      <path id="loosestrifeCorolla" fill="white" stroke="black" stroke-width="2" vector-effect="non-scaling-stroke" d="M 1082.31,699.83
           C 1065.80,711.32 1073.33,717.63 1073.33,717.63
             1073.33,717.63 1074.06,726.87 1063.13,726.65
             1068.96,731.61 1065.56,732.96 1068.72,736.56
             1067.99,745.13 1076.49,748.51 1076.49,748.51
             1076.49,748.51 1072.21,750.17 1068.47,748.96
             1067.53,748.65 1061.92,743.77 1061.92,743.77
             1061.92,743.77 1051.48,731.61 1051.48,731.61
             1051.48,731.61 1054.15,738.14 1048.81,743.77
             1046.62,752.11 1043.22,749.18 1029.87,757.75
             1038.85,748.28 1039.10,739.27 1039.10,739.27
             1039.10,739.27 1042.74,726.87 1038.13,729.58
             1033.51,732.28 1025.50,731.83 1025.50,731.83
             1025.50,731.83 1008.51,731.38 1004.38,736.34
             1004.38,736.34 1018.70,722.37 1025.26,720.79
             1025.26,720.79 1032.30,722.82 1038.61,718.99
             1034.73,709.97 1037.40,710.65 1035.94,702.08
             1030.60,696.68 1038.37,690.14 1040.80,682.03
             1039.10,702.31 1053.66,699.38 1052.21,712.00
             1052.21,712.00 1058.28,712.23 1066.05,706.37
             1071.63,703.66 1074.06,698.70 1082.31,699.83 Z" />

      <path id="loosestrifePetals" fill="white" stroke="black" stroke-width="2" vector-effect="non-scaling-stroke" d="M 1046.38,717.86
           C 1046.38,717.86 1040.07,714.03 1041.04,705.69
             1040.31,697.80 1045.65,697.58 1046.14,691.72
             1047.11,686.31 1043.47,683.61 1043.22,674.82
             1050.26,673.92 1053.91,681.35 1053.91,681.35
             1054.15,690.37 1058.03,693.30 1058.28,693.97
             1063.62,698.03 1064.83,706.59 1064.59,706.59
             1067.02,713.58 1056.33,719.21 1056.33,719.21
             1056.33,719.21 1067.75,710.65 1076.24,717.18
             1085.95,721.01 1095.42,708.85 1102.46,708.85
             1103.43,715.38 1096.64,719.44 1096.15,724.85
             1090.81,732.73 1084.74,729.58 1081.58,733.86
             1073.81,740.39 1060.46,733.86 1055.85,728.68
             1061.43,736.11 1061.68,735.44 1059.98,741.52
             1056.33,746.48 1057.31,749.86 1059.73,753.24
             1061.19,763.38 1066.53,767.89 1063.13,777.13
             1058.52,772.62 1046.38,768.11 1047.84,760.00
             1047.84,751.21 1036.43,749.86 1049.29,729.58
             1049.29,729.58 1042.50,741.07 1036.91,742.87
             1028.90,748.06 1029.14,748.28 1022.35,757.07
             1019.19,760.45 1003.89,759.32 1001.71,756.39
             1001.22,753.69 1005.84,750.31 1019.67,743.77
             1026.47,737.46 1019.67,738.14 1023.56,730.70
             1030.11,724.39 1039.10,725.30 1044.92,722.82
             1023.80,727.77 1018.95,713.80 1018.70,707.04
             1019.43,696.00 1012.88,698.93 1008.75,691.72
             1006.32,685.86 1009.72,679.77 1010.69,679.55
             1016.52,689.01 1015.06,689.01 1022.59,693.75
             1029.14,696.90 1033.51,693.75 1036.18,702.31
             1042.25,719.66 1046.38,717.86 1046.38,717.86 Z" />
    </g>


  </svg>
