<svg xmlns="http://www.w3.org/2000/svg" viewBox="0 0 1336 768" id="flower_ghost" class="flowers">

    <g id="ghostFlower">
      <path id="ghostFlowerCorolla" fill="white" stroke="black" stroke-width="2" vector-effect="non-scaling-stroke" d="M 1128.68,381.63
           C 1114.60,388.39 1121.16,393.58 1118.00,397.18
             1118.00,397.18 1111.20,400.11 1106.59,394.25
             1104.65,397.63 1100.76,398.08 1098.09,400.79
             1098.09,400.79 1096.39,400.34 1092.75,399.66
             1091.78,398.99 1097.12,396.28 1099.31,393.58
             1100.28,391.55 1098.82,386.37 1103.68,384.34
             1107.80,383.89 1111.93,382.31 1128.68,381.63 Z
           M 1108.29,389.30
           C 1108.29,389.30 1114.12,391.32 1115.57,393.35
             1115.57,393.35 1115.09,387.04 1116.54,385.46
             1112.42,385.24 1108.29,389.30 1108.29,389.30 Z
           M 1072.84,395.38
           C 1066.53,396.73 1059.49,396.28 1054.15,394.03
             1050.02,391.32 1042.01,376.90 1036.91,373.07
             1046.14,377.80 1052.21,375.10 1056.82,376.68
             1058.03,377.58 1062.40,379.15 1063.86,382.31
             1064.35,384.56 1061.43,385.24 1061.43,386.37
             1062.65,388.62 1065.07,392.68 1072.84,395.38 Z
           M 1074.79,473.58
           C 1075.27,456.90 1089.84,452.85 1092.02,446.54
             1093.68,440.78 1093.76,431.10 1093.48,425.58
             1093.43,424.61 1092.51,418.14 1091.29,414.08
             1090.02,414.79 1089.47,417.76 1088.62,421.07
             1089.84,430.31 1087.41,433.69 1085.71,435.04
             1082.55,431.89 1079.64,430.76 1076.49,432.56
             1073.81,435.27 1071.39,444.06 1071.39,444.28
             1071.14,450.82 1069.93,460.96 1074.79,473.58 Z
           M 1075.03,453.30
           C 1075.03,453.30 1076.24,448.56 1076.24,442.03
             1075.51,438.42 1078.18,436.62 1079.88,437.30
             1079.88,437.30 1084.50,440.45 1086.68,438.65
             1084.74,442.93 1080.61,448.11 1075.03,453.30 Z
           M 1061.19,392.03
           C 1061.10,390.68 1057.18,389.07 1055.45,386.45
             1054.45,384.42 1056.00,383.07 1056.46,382.31
             1054.82,379.77 1048.26,380.03 1048.26,380.03
             1048.99,381.63 1056.27,391.27 1061.19,392.03 Z" />

      <path id="ghostFlowerPetals" fill="white" stroke="black" stroke-width="2" vector-effect="non-scaling-stroke" d="M 1086.20,405.52
           C 1087.41,407.10 1086.20,411.83 1084.25,413.86
             1082.41,415.94 1078.67,418.37 1072.67,418.53
             1068.80,419.38 1064.82,420.00 1062.16,420.62
             1065.32,418.14 1074.30,415.44 1074.30,415.44
             1079.88,415.21 1086.44,407.32 1086.20,405.52 Z
           M 1069.20,406.65
           C 1066.05,403.72 1059.98,404.17 1058.03,405.30
             1054.39,408.90 1048.32,411.61 1046.62,411.61
             1055.36,409.80 1055.61,410.93 1059.25,408.68
             1060.22,407.55 1064.10,405.52 1069.20,406.65 Z
           M 1038.61,431.89
           C 1043.47,433.69 1047.84,431.44 1049.29,430.31
             1050.51,427.61 1052.94,425.80 1055.12,423.32
             1052.21,424.45 1050.02,426.25 1048.32,427.61
             1047.11,428.73 1042.01,432.11 1038.61,431.89 Z
           M 1027.20,431.66
           C 1027.93,428.06 1033.51,423.77 1035.46,422.65
             1037.88,421.30 1045.89,419.94 1048.08,420.39
             1041.04,422.87 1036.91,425.35 1036.91,425.13
             1036.91,424.90 1028.90,429.63 1027.20,431.66 Z
           M 1032.78,433.92
           C 1032.78,435.94 1029.87,437.52 1028.66,437.75
             1026.96,438.20 1023.56,436.62 1023.56,436.62
             1025.74,436.85 1028.41,436.62 1032.78,433.92 Z
           M 1018.95,433.69
           C 1018.95,433.69 1017.98,433.46 1015.79,433.92
             1014.58,434.82 1013.85,438.20 1013.85,438.20
             1013.85,438.20 1016.76,434.14 1018.95,433.69 Z
           M 1102.71,403.04
           C 1108.29,403.27 1112.66,408.68 1114.36,411.83
             1115.82,414.76 1115.09,421.97 1116.30,427.83
             1113.87,425.35 1112.17,417.01 1111.69,414.31
             1110.96,412.51 1109.50,409.58 1102.71,403.04 Z
           M 1103.19,423.10
           C 1099.79,429.86 1102.95,435.72 1104.89,437.97
             1107.08,440.00 1112.17,438.87 1113.63,437.97
             1106.35,436.39 1104.40,433.92 1103.19,423.10 Z
           M 1118.97,432.56
           C 1123.12,434.74 1127.95,439.77 1130.14,444.28
             1131.11,447.21 1129.17,451.72 1129.17,451.72
             1128.44,445.63 1129.90,446.08 1118.97,432.56 Z
           M 1114.36,452.17
           C 1118.49,449.92 1116.06,461.18 1131.60,463.44
             1127.95,463.66 1124.07,462.54 1120.43,461.18
             1118.00,458.48 1112.17,453.52 1114.36,452.17 Z
           M 1128.68,470.87
           C 1127.47,478.99 1129.65,479.89 1129.65,479.89
             1129.65,479.89 1135.48,483.72 1138.15,483.49
             1135.48,481.69 1129.65,478.99 1128.68,470.87 Z
           M 1136.94,464.11
           C 1140.34,467.27 1138.88,467.04 1138.88,470.42
             1138.64,470.87 1136.21,475.15 1136.21,475.15
             1136.94,470.42 1138.15,467.49 1136.94,464.11 Z
           M 1082.80,390.20
           C 1076.49,389.52 1076.97,385.92 1076.24,382.99
             1077.21,376.23 1084.01,370.14 1090.81,365.86
             1081.10,378.25 1075.27,385.24 1082.80,390.20 Z
           M 1102.71,358.87
           C 1102.71,359.32 1100.52,362.70 1100.03,364.51
             1101.25,368.79 1104.65,372.17 1104.40,375.10
             1103.43,378.48 1096.15,381.86 1096.15,381.86
             1096.15,381.86 1098.82,378.48 1101.01,375.77
             1101.01,375.77 1101.01,372.39 1097.36,366.31
             1097.85,361.58 1102.71,358.42 1102.71,358.87 Z
           M 1099.55,350.08
           C 1093.72,352.34 1092.21,357.59 1094.94,360.23
             1088.14,357.30 1092.02,351.21 1092.27,351.21
             1097.85,348.28 1098.82,347.83 1102.22,343.55
             1101.49,347.38 1101.84,346.29 1099.55,350.08 Z
           M 1102.95,353.46
           C 1102.95,353.46 1109.02,348.96 1109.99,346.48
             1109.99,346.48 1109.99,343.10 1107.56,337.92
             1106.59,343.55 1107.56,348.06 1102.95,353.46 Z
           M 1103.92,337.69
           C 1103.92,337.69 1102.71,334.99 1102.95,331.83
             1104.65,330.93 1105.86,329.58 1110.72,327.77
             1105.13,333.41 1103.92,337.69 1103.92,337.69 Z
           M 1112.42,329.80
           C 1112.42,329.80 1118.24,327.55 1118.73,326.65
             1118.73,326.65 1119.70,323.94 1119.46,320.34
             1119.21,320.79 1116.54,326.87 1112.42,329.80 Z" />
    </g>
  </svg>
