<svg xmlns="http://www.w3.org/2000/svg" viewBox="0 0 1336 768" id="flower_orchid" class="flowers">

    <g id="orchid">
      <path id="orchidPetals" fill="white" stroke="black" stroke-width="2" vector-effect="non-scaling-stroke" d="M 1116.54,649.35
           C 1107.80,660.51 1083.22,681.30 1087.05,687.89
             1122.01,697.01 1128.56,675.72 1154.78,661.52
             1164.07,648.85 1165.16,630.08 1163.52,621.97
             1160.79,616.90 1150.41,607.77 1150.41,607.77
             1150.41,607.77 1160.24,615.38 1169.53,616.90
             1187.56,608.28 1198.48,610.31 1211.05,610.31
             1244.91,606.76 1247.10,592.56 1242.73,585.97
             1240.54,560.11 1199.57,571.27 1179.91,569.24
             1155.33,573.80 1155.33,570.76 1146.59,565.69
             1141.13,555.55 1159.15,540.34 1160.24,515.49
             1164.61,489.63 1163.52,490.14 1158.61,477.97
             1147.68,464.28 1141.13,472.39 1136.21,475.44
             1128.56,495.21 1119.82,506.37 1117.64,509.92
             1105.62,517.52 1096.33,522.59 1091.96,532.23
             1089.23,542.37 1092.51,545.92 1097.42,552.51
             1084.86,542.87 1073.94,539.32 1059.73,541.86
             1005.65,552.00 1001.83,606.25 1011.12,604.73
             1018.76,605.75 1020.40,590.03 1059.19,584.45
             1068.47,584.45 1087.59,575.32 1091.42,563.66
             1091.42,563.66 1118.18,555.55 1137.85,575.83
             1149.87,583.44 1147.13,600.68 1143.31,606.25
             1125.83,598.14 1124.19,618.42 1124.19,618.42
             1124.19,618.42 1120.91,641.24 1116.54,649.35 Z" />

      <path id="orchidPetalTop" fill="white" stroke="black" stroke-width="2" vector-effect="non-scaling-stroke" d="M 1144.95,529.18
           C 1153.69,522.59 1167.35,535.27 1167.89,539.32
             1185.37,541.35 1179.78,553.14 1176.63,556.06
             1181.00,564.68 1179.91,574.31 1174.99,574.82
             1167.89,581.41 1140.58,573.80 1134.02,576.85
             1134.02,569.24 1130.20,547.44 1144.95,529.18 Z" />

      <path id="orchidPetalBottom" fill="white" stroke="black" stroke-width="2" vector-effect="non-scaling-stroke" d="M 1070.66,615.89
             C 1067.93,621.97 1061.92,625.52 1067.38,628.06
               1072.26,630.00 1076.67,628.06 1082.76,630.46
               1086.15,630.07 1092.19,629.29 1098.52,626.54
               1107.80,624.00 1095.79,618.93 1110.54,614.87
               1116.09,616.49 1118.18,617.41 1124.74,614.87
               1128.00,613.66 1126.19,608.80 1128.56,606.25
               1130.16,604.54 1135.93,604.66 1137.85,604.73
               1154.24,606.25 1150.96,594.08 1150.41,590.03
               1149.32,586.99 1144.95,582.93 1146.59,576.85
               1147.68,574.82 1152.05,566.70 1146.59,564.68
               1144.40,559.61 1137.30,565.18 1135.66,565.69
               1119.28,553.52 1109.99,552.51 1107.80,556.06
               1094.69,557.07 1104.53,571.77 1102.34,576.85
               1103.98,578.87 1103.98,585.97 1095.24,586.48
               1095.24,586.48 1094.69,585.46 1090.87,592.56
               1088.98,593.98 1079.35,593.40 1077.76,596.11
               1074.70,602.30 1071.75,608.79 1070.66,615.89 Z" />
    </g>


  </svg>
