<svg xmlns="http://www.w3.org/2000/svg" viewBox="0 0 1336 768" id="flower_trillium" class="flowers">

    <g id="trillium">
      <path id="trilliumCorolla" fill="white" stroke="black" stroke-width="2" vector-effect="non-scaling-stroke" d="M 1022.04,613.35
           C 1022.04,613.35 979.43,618.42 963.59,611.32
             959.77,607.77 955.40,601.18 944.47,599.66
             929.72,601.18 908.42,612.85 885.48,603.21
             859.26,591.04 867.45,575.32 850.52,558.08
             841.23,549.46 836.32,555.55 829.76,548.96
             816.10,536.79 804.09,525.63 793.16,510.42
             806.27,530.20 811.19,533.75 817.74,552.51
             817.20,567.21 812.83,565.18 820.47,580.90
             840.14,605.24 843.96,603.21 840.69,626.03
             841.78,647.83 836.86,670.14 825.94,679.77
             817.74,688.39 825.94,703.61 821.57,712.23
             817.74,721.35 801.90,732.51 788.25,742.65
             788.25,742.65 818.29,728.45 827.58,718.31
             836.32,708.68 861.44,709.18 861.44,700.56
             865.27,687.38 866.91,671.15 891.49,651.38
             904.05,635.66 947.75,635.15 947.75,635.15
             947.75,635.15 963.05,630.59 965.78,625.52
             973.43,619.94 1022.04,613.35 1022.04,613.35 Z" />

      <path id="trilliumPetals" fill="white" stroke="black" stroke-width="2" vector-effect="non-scaling-stroke" d="M 823.21,582.42
           C 846.69,573.80 854.89,595.10 849.97,603.72
             829.21,619.44 839.59,632.11 845.60,639.21
             869.64,653.41 857.62,677.75 842.87,674.70
             812.83,662.03 819.93,667.61 788.79,646.82
             773.50,633.63 699.75,637.69 697.02,625.01
             697.02,610.31 756.56,616.90 783.33,605.24
             805.18,596.62 800.81,597.13 823.21,582.42 Z
           M 897.50,636.17
           C 907.87,609.30 936.83,612.85 936.28,632.62
             936.28,632.62 938.03,648.56 939.01,650.37
             943.04,657.76 951.41,675.64 963.59,691.94
             981.07,711.21 996.80,730.30 992.00,735.04
             983.80,746.70 940.65,711.21 923.17,709.18
             910.61,704.62 892.03,706.65 872.91,702.59
             855.98,694.48 842.32,667.61 870.73,664.06
             882.75,661.01 889.30,664.06 897.50,636.17 Z
           M 935.19,589.01
           C 936.28,600.68 926.99,627.04 902.96,609.30
             902.96,609.30 895.31,591.55 869.64,589.52
             869.64,589.52 833.58,591.04 854.34,562.14
             863.08,543.89 889.85,543.89 901.87,533.75
             914.98,525.63 946.66,477.46 960.32,485.07
             979.43,491.15 932.46,534.76 935.19,589.01 Z" />

      <path id="trilliumStamenOuter" fill="white" stroke="black" stroke-width="2" vector-effect="non-scaling-stroke" d="M 861.14,624.34
           C 859.97,619.69 854.74,624.77 853.86,630.87
             851.67,628.62 855.31,623.44 857.01,623.21
             855.31,614.20 857.74,612.85 859.20,612.62
             857.98,611.04 856.04,606.76 859.93,605.86
             856.77,596.85 866.48,592.34 867.94,592.79
             873.04,592.79 868.67,598.42 866.48,602.70
             874.74,595.27 874.98,600.45 874.98,603.83
             878.62,599.55 882.26,603.61 882.50,608.79
             885.66,596.85 893.91,604.28 889.06,613.30
             897.31,607.44 896.59,614.87 890.27,622.76
             899.01,613.07 898.53,622.08 893.91,627.04
             893.91,627.04 889.54,630.87 889.54,630.87
             889.54,630.87 892.46,637.41 887.36,641.01
             887.36,641.01 884.93,651.15 883.23,650.70
             883.09,646.51 884.28,642.04 883.96,640.11
             881.05,634.70 878.53,643.29 878.13,649.13
             878.13,649.13 874.74,655.21 872.79,657.01
             880.56,639.21 868.91,648.45 869.15,650.93
             869.15,650.93 869.90,645.69 871.34,641.01
             874.01,637.63 874.57,634.77 873.28,634.03
             873.39,632.19 871.09,633.35 868.18,636.51
             869.39,640.56 867.99,642.61 866.72,645.30
             868.91,631.55 863.57,639.66 863.32,645.75
             863.32,645.75 860.65,640.34 865.51,636.73
             863.57,635.15 867.94,629.07 869.64,625.24
             869.15,621.72 863.42,624.47 859.44,634.70
             859.83,630.66 861.57,626.04 861.14,624.34 Z" />

      <path id="trilliumStamenInner" fill="white" stroke="black" stroke-width="2" vector-effect="non-scaling-stroke" d="M 885.17,635.83
             C 886.90,631.15 889.30,627.04 887.85,625.01
               885.90,623.21 884.97,624.99 882.07,630.44
               881.70,630.96 883.12,622.87 882.99,623.21
               877.65,615.10 878.13,627.27 875.71,630.65
               875.71,623.66 873.28,627.49 870.85,627.94
               871.34,620.73 868.67,622.99 866.24,622.99
               864.30,616.45 862.84,620.96 861.14,622.31
               863.32,617.58 861.38,612.39 861.38,612.39
               861.38,612.39 860.65,606.31 865.02,609.92
               864.54,604.96 872.31,598.65 867.94,613.52
               867.94,613.52 875.46,606.99 877.65,615.10
               876.92,611.49 884.45,605.63 881.53,616.23
               883.72,613.52 889.30,611.49 886.15,621.18
               886.15,621.41 894.64,621.18 885.17,635.83 Z
             M 904.60,619.83" />
    </g>

  </svg>
