<svg xmlns="http://www.w3.org/2000/svg" viewBox="0 -200 1336 768" id="flower_fasle_rue" class="flowers">
    <g id="falseRueAll">
      <path id="falseRue2" fill="white" stroke="black" stroke-width="2" vector-effect="non-scaling-stroke" d="M 651.14,59.49
           C 683.91,63.21 681.36,60.51 699.93,50.03
             709.04,39.89 724.70,15.21 720.69,12.17
             714.86,7.44 679.54,9.80 670.80,13.86
             658.05,14.87 636.20,52.39 636.20,52.39
             636.20,52.39 636.93,27.72 634.38,19.94
             623.46,-0.34 597.24,-3.72 594.32,-2.37
             588.86,-2.37 588.86,24.34 589.59,29.07
             593.96,43.27 610.71,58.48 610.71,58.48
             610.71,58.48 589.23,40.23 581.21,38.87
             553.90,26.70 527.68,35.15 526.95,41.24
             524.04,43.61 544.43,66.25 555.72,69.97
             585.58,78.08 612.90,68.28 612.90,68.28
             612.90,68.28 601.97,87.21 603.43,105.46
             608.89,126.76 612.90,138.59 623.82,139.61
             635.84,139.61 646.04,114.25 647.13,109.18
             648.22,93.30 636.20,71.32 636.20,71.32
             636.20,71.32 644.22,86.87 651.86,95.66
             662.79,108.51 688.64,118.65 691.19,114.25
             696.66,107.83 689.74,82.48 685.73,80.45
             674.81,63.21 651.14,59.83 651.14,59.49 Z" />

      <path id="falseRue3" fill="white" stroke="black" stroke-width="2" vector-effect="non-scaling-stroke" d="M 841.60,63.55
           C 841.60,63.21 869.64,71.32 880.20,67.61
             888.57,65.58 913.34,57.46 914.07,46.99
             908.60,37.52 888.21,34.48 880.93,33.46
             863.81,32.79 845.24,52.06 842.32,48.68
             840.87,46.31 848.52,47.32 866.72,26.03
             874.37,8.45 878.01,-14.20 869.27,-15.21
             852.89,-12.85 848.52,-7.44 831.03,13.18
             825.94,22.31 824.12,45.63 824.12,45.63
             824.12,45.63 813.55,28.39 801.54,20.62
             778.96,8.11 766.94,9.80 757.11,8.79
             739.26,8.79 750.92,26.03 760.02,36.17
             760.02,36.17 771.68,51.72 776.41,52.73
             776.77,54.08 796.07,56.79 808.82,59.49
             808.82,59.49 771.68,65.58 757.47,81.80
             756.74,85.18 748.73,108.51 752.74,114.93
             760.39,121.35 789.52,106.48 793.53,102.42
             803.36,95.66 800.81,73.69 812.46,72.34
             812.46,72.34 804.81,90.59 813.92,105.13
             825.94,120.34 848.15,136.90 851.06,130.14
             854.71,122.03 857.26,108.17 856.89,90.59
             855.43,74.70 841.60,63.89 841.60,63.55 Z" />

      <path id="falseRue1" fill="white" stroke="black" stroke-width="2" vector-effect="non-scaling-stroke" d="M 709.04,135.21
             C 704.04,124.55 697.21,117.30 690.02,112.38
               679.54,104.45 653.68,101.07 652.96,107.15
               652.23,120.34 657.33,128.45 661.12,136.42
               667.56,144.40 678.34,151.53 696.29,154.82
               686.53,152.82 670.86,158.93 662.06,171.04
               655.87,186.59 652.57,197.75 656.96,202.14
               663.88,206.54 682.16,202.09 691.19,197.41
               704.79,190.36 712.32,178.82 711.59,170.70
               715.59,170.37 705.12,198.01 726.88,212.96
               744.66,222.98 759.29,227.49 762.21,223.77
               767.10,217.94 769.05,206.05 765.44,193.76
               761.51,180.41 751.00,166.59 730.52,159.55
               730.52,159.55 755.21,168.53 774.89,161.87
               784.29,158.68 797.17,147.04 796.44,138.93
               798.26,135.89 790.30,130.94 773.91,128.27
               766.79,127.11 757.61,126.62 745.82,127.44
               722.51,144.68 726.14,142.31 724.70,141.97
               741.77,131.35 747.93,121.20 749.83,108.51
               752.74,93.97 752.37,81.46 748.73,77.75
               740.72,69.30 687.92,92.96 709.04,135.21 Z
             M 785.88,222.76" />
    </g>
  </svg>
