<svg viewBox="0 0 4000 3000" version="1.1" xmlns="http://www.w3.org/2000/svg">
  <path id="frontRightLegOutline"
    d="M 2140,1948.7 C 2133.6,1956.6 2117,1974.4 2099.7,2000.7 2085.9,2021.5 2072.2,2048.8 2059,2071.7 2044.9,2096.1 2031.4,2129.4 2027,2138 2045,2151 2045.1,2129.1 2059.8,2131.8 2074.4,2134.4 2075.4,2133.5 2071.4,2157.5 2067.4,2181.5 2038.9,2217.4 2040.9,2258.4 2041.8,2277.5 2049.4,2311.3 2049.5,2338.8 2049.5,2349.4 2053.1,2355.4 2055.8,2367.5 2059.9,2386.6 2078,2408.7 2082.6,2416.6 2096.6,2440.6 2160.2,2506.1 2152.7,2511.1 2150,2515 2100,2482 2017,2485 1986.9,2492.9 1882.4,2536.9 1875,2537 1872.4,2534.4 1881.8,2507.1 1893.8,2467.1 1899.2,2449.2 1918.7,2417.1 1914,2372.7 1911,2344.9 1875.5,2301.6 1865.7,2275.5 1856.1,2249.9 1855.4,2227.6 1851.3,2219.4 1836.3,2189.4 1834,2140 1840,2097 1843.8,2069.7 1906.4,1975.2 1949.6,1905.2 1974.5,1865 1982.1,1830.2 1996,1828 2034,1822 2157,1927.7 2140,1948.7 Z" />
  <path id="frontRightLegFill" fill="#771e1e"
    d="M 2032.07,1906.19           C 2035.09,1903.64 2025.45,1879.09 2027.45,1876.18             2029.45,1873.27 2104.00,1896.73 2114.00,1952.00             2114.00,1952.00 2105.91,1966.82 2093.75,1989.15             2088.59,1998.62 2076.95,2007.61 2070.00,2019.00             2062.46,2031.34 2059.50,2046.21 2051.02,2059.58             2011.64,2121.73 1968.68,2188.10 1983.00,2195.00             2003.25,2204.75 2022.00,2182.00 2023.00,2182.00             2024.14,2183.71 1993.46,2236.57 1996.75,2248.00             2000.70,2261.72 2016.83,2287.96 2014.50,2302.25             2013.11,2310.80 2040.19,2370.88 2066.25,2420.75             2083.77,2454.27 2104.70,2484.23 2101.64,2486.91             2098.23,2489.89 2055.88,2474.40 2013.50,2479.75             1986.99,2483.10 1977.28,2491.14 1957.75,2499.00             1948.94,2502.55 1938.50,2509.50 1928.44,2508.78             1918.39,2508.06 1908.52,2513.93 1907.27,2513.64             1902.55,2512.52 1926.25,2471.00 1938.50,2430.75             1950.75,2390.50 1911.45,2310.18 1911.45,2310.18             1911.45,2310.18 1894.52,2293.31 1880.75,2262.00             1864.43,2224.89 1851.08,2170.28 1854.73,2138.91             1861.45,2081.07 1939.09,1990.18 1939.09,1990.18             1939.09,1990.18 1999.00,1899.75 2015.64,1896.91             2019.45,1896.73 2029.27,1921.09 2031.82,1919.82             2032.72,1919.37 2028.55,1909.09 2032.07,1906.19 Z" />
  <path id="frontRightHoofOutline"
    d="M 2119.50,2556.25           C 2103.50,2579.25 2055.50,2577.75 2043.25,2574.50             2029.23,2570.40 2019.75,2558.50 1999.25,2558.00             1978.75,2557.50 1987.00,2576.00 1953.50,2576.00             1920.00,2576.00 1875.50,2580.25 1874.00,2578.25             1872.50,2576.25 1875.25,2569.75 1875.75,2561.25             1876.25,2552.75 1884.50,2543.00 1913.50,2510.00             1942.50,2477.00 2017.00,2445.00 2017.00,2445.00             2017.00,2445.00 2126.50,2486.50 2126.50,2506.00             2126.50,2525.50 2135.50,2533.25 2119.50,2556.25 Z" />
  <path id="frontRightHoofFill" fill="white"
    d="M 1887.27,2569.09           C 1886.94,2568.09 1888.00,2560.33 1891.00,2557.67             1894.00,2555.00 1899.64,2544.94 1903.64,2537.27             1907.64,2529.61 1914.00,2532.67 1927.33,2523.00             1940.67,2513.33 1953.33,2520.33 1965.33,2511.00             1977.33,2501.67 1981.67,2500.00 1987.67,2501.67             1993.67,2503.33 2001.00,2501.00 1999.00,2511.67             1997.00,2522.33 1991.67,2520.00 1992.67,2530.33             1993.67,2540.67 1978.00,2554.00 1958.33,2555.67             1938.67,2557.33 1935.00,2553.33 1922.67,2559.00             1910.33,2564.67 1887.61,2570.09 1887.27,2569.09 Z           M 2047.67,2495.00           C 2069.67,2501.67 2096.00,2499.33 2103.33,2512.67             2110.67,2526.00 2110.00,2551.33 2096.33,2558.67             2077.64,2564.91 2053.33,2551.67 2046.00,2551.67             2038.67,2551.67 2032.00,2552.33 2020.00,2549.00             2008.00,2545.67 2006.00,2519.67 2010.00,2512.67             2014.00,2505.67 2025.67,2488.33 2047.67,2495.00 Z" />
  <path id="rearRightLegOutline"
    d="M 3376.50,1914.00           C 3391.86,1912.76 3346.80,1948.11 3304.09,1999.37             3286.00,2005.67 3254.61,2017.91 3242.67,2040.00             3237.53,2049.50 3236.64,2069.34 3234.00,2079.92             3223.40,2122.37 3232.93,2171.32 3262.73,2209.64             3262.17,2212.48 3252.63,2213.00 3249.09,2217.45             3237.29,2225.16 3225.80,2237.35 3208.67,2253.33             3187.79,2272.81 3161.25,2297.92 3149.67,2327.33             3139.84,2352.26 3134.50,2381.13 3127.67,2407.33             3123.83,2422.07 3116.54,2435.64 3115.00,2448.00             3112.52,2467.92 3117.80,2480.76 3118.00,2492.00             3096.80,2484.14 3090.31,2494.76 3069.40,2495.99             3059.03,2496.60 3052.50,2505.50 3035.00,2510.50             3017.50,2515.50 3018.44,2504.79 3008.50,2507.75             2980.04,2516.22 2952.07,2516.11 2945.50,2512.00             2935.48,2505.74 2958.76,2487.94 2977.00,2453.50             2987.89,2432.95 2987.50,2425.25 2991.50,2415.50             2992.93,2412.36 3005.73,2391.69 3019.05,2358.41             3023.68,2346.84 3032.70,2350.91 3037.00,2336.50             3052.84,2283.35 3073.00,2220.67 3085.33,2198.67             3088.10,2193.72 3096.77,2188.77 3097.00,2185.00             3097.80,2171.99 3086.70,2148.58 3092.50,2123.00             3097.43,2101.27 3093.94,2091.66 3096.50,2065.50             3096.99,2060.44 3090.21,2053.17 3091.33,2048.23             3104.67,1989.39 3117.00,1935.00 3117.00,1935.00             3117.00,1935.00 3338.33,1892.33 3376.50,1914.00 Z" />
  <path id="rearRightLegFill" fill="#771e1e"
    d="M 3108.38,2104.25           C 3115.63,2074.23 3135.25,2058.75 3135.25,2058.75             3147.75,2035.75 3215.00,2029.73 3215.82,2037.64             3212.39,2047.93 3214.02,2070.31 3216.64,2096.00             3218.25,2111.83 3219.97,2129.38 3223.73,2144.55             3231.07,2174.14 3244.73,2184.18 3243.36,2197.73             3242.82,2203.27 3226.55,2214.09 3213.64,2230.36             3210.69,2235.84 3196.47,2240.34 3186.25,2250.88             3180.32,2256.99 3178.60,2269.78 3173.75,2273.88             3159.26,2286.13 3153.48,2286.00 3147.00,2299.00             3143.00,2307.01 3143.06,2320.43 3139.88,2328.50             3137.25,2335.15 3133.51,2336.11 3131.38,2342.62             3126.46,2357.64 3129.01,2367.87 3126.00,2380.88             3118.63,2412.76 3109.50,2425.62 3110.00,2440.00             3107.42,2438.24 3094.18,2436.46 3087.62,2433.50             3082.71,2431.28 3085.10,2427.37 3079.00,2427.88             3045.93,2430.63 2987.88,2454.62 2987.88,2454.62             2987.88,2454.62 2991.38,2448.77 2996.54,2440.17             2999.39,2435.42 2996.96,2428.16 3000.50,2422.25             3002.47,2418.96 3006.52,2416.84 3008.75,2413.50             3011.90,2408.77 3009.03,2405.29 3012.12,2400.75             3022.73,2385.21 3028.88,2371.12 3038.00,2371.00             3038.00,2371.00 3046.00,2343.00 3046.00,2343.00             3046.00,2343.00 3066.25,2224.50 3100.00,2217.75             3100.00,2217.75 3112.75,2200.00 3109.12,2181.12             3107.27,2171.45 3100.75,2135.81 3108.38,2104.25 Z" />
  <path id="rearRightHoofFill" fill="white"
    d="M 3066.00,2486.38           C 3074.15,2484.07 3080.56,2477.64 3087.75,2476.62             3100.41,2474.84 3106.83,2483.66 3108.12,2482.25             3111.79,2478.25 3107.33,2464.42 3101.00,2460.75             3088.75,2455.38 3093.00,2443.67 3088.00,2445.33             3083.00,2447.00 3063.21,2440.12 3061.88,2447.12             3060.54,2454.12 3019.62,2486.62 3028.00,2493.67             3028.74,2493.67 3047.82,2491.52 3066.00,2486.38 Z           M 2974.88,2481.12           C 2978.86,2473.53 2972.38,2474.50 2980.88,2465.38             2994.12,2466.62 3031.12,2450.00 3031.67,2451.67             3025.75,2458.50 3000.00,2493.75 2998.33,2499.67             2997.00,2500.33 2970.75,2507.38 2962.67,2500.33             2962.03,2498.73 2970.16,2490.11 2974.88,2481.12 Z" />
  <path id="tailFill" fill="#771e1e"
    d="M 3674.75,1418.00           C 3680.25,1425.25 3698.00,1464.25 3698.00,1490.25             3698.00,1516.25 3690.00,1541.50 3682.00,1565.50             3674.00,1589.50 3655.00,1610.00 3657.50,1628.00             3660.00,1646.00 3652.00,1656.75 3666.50,1673.25             3681.00,1689.75 3673.00,1720.00 3667.50,1734.50             3662.00,1749.00 3651.50,1765.50 3657.00,1773.50             3662.50,1781.50 3684.00,1823.50 3682.00,1848.00             3680.00,1863.00 3660.50,1895.00 3660.50,1904.50             3660.50,1914.00 3643.75,1921.00 3675.50,1950.50             3688.50,1965.50 3693.50,2012.75 3691.00,2027.25             3687.20,2034.20 3682.00,2061.00 3671.50,2089.25             3667.17,2110.24 3665.60,2159.16 3668.50,2208.00             3669.30,2221.46 3682.37,2239.30 3681.38,2251.24             3679.62,2272.40 3674.27,2289.95 3662.50,2299.50             3650.11,2263.02 3628.45,2198.82 3645.50,2178.50             3662.55,2158.18 3621.50,2140.50 3616.50,2116.00             3611.50,2091.50 3643.00,2061.00 3623.00,2034.75             3618.50,2020.75 3589.67,2023.00 3580.00,1972.00             3573.50,1950.00 3624.33,1901.67 3602.67,1884.67             3602.67,1884.67 3571.33,1861.33 3568.33,1827.00             3565.33,1792.67 3607.33,1758.33 3601.50,1735.17             3562.50,1679.50 3612.67,1608.00 3612.67,1600.00             3595.33,1572.33 3583.33,1535.00 3583.33,1535.00             3583.33,1535.00 3588.50,1346.00 3588.50,1346.00             3588.50,1346.00 3651.75,1389.50 3674.75,1418.00 Z" />
  <path id="tailOutline"
    d="M 3663.82,1589.09           C 3666.97,1582.32 3673.35,1578.23 3676.47,1569.63             3685.36,1545.07 3692.80,1514.14 3691.27,1482.91             3687.09,1427.64 3634.73,1372.36 3642.50,1357.50             3644.00,1358.50 3673.50,1402.50 3678.25,1411.50             3680.82,1416.37 3704.25,1461.50 3704.00,1499.50             3702.00,1525.00 3681.13,1581.89 3674.25,1600.25             3672.57,1604.72 3668.08,1609.19 3672.00,1614.62             3675.92,1620.06 3667.09,1623.48 3666.23,1628.11             3665.02,1634.66 3671.83,1639.97 3665.75,1643.75             3659.67,1647.53 3667.88,1655.12 3670.00,1665.38             3671.82,1667.20 3675.35,1683.35 3677.50,1686.00             3680.22,1688.23 3678.98,1698.93 3678.62,1706.75             3677.57,1729.83 3668.88,1747.50 3668.00,1755.75             3665.12,1761.62 3659.50,1769.00 3668.00,1785.50             3670.67,1790.68 3677.92,1804.35 3683.12,1820.38             3685.78,1828.57 3687.61,1840.76 3688.62,1845.75             3690.75,1851.75 3689.67,1854.72 3686.88,1858.62             3676.50,1873.12 3681.56,1878.39 3681.12,1885.50             3680.89,1889.25 3672.00,1883.88 3672.62,1895.38             3671.74,1902.24 3669.00,1908.00 3669.62,1915.12             3671.62,1924.00 3664.12,1920.62 3663.62,1923.00             3664.12,1926.12 3669.29,1931.65 3672.50,1935.00             3684.00,1947.00 3704.50,2042.00 3695.00,2052.50             3685.50,2063.00 3672.00,2082.00 3679.50,2095.00             3687.00,2108.00 3687.00,2131.00 3681.50,2144.00             3676.00,2157.00 3676.00,2176.00 3678.00,2183.50             3680.00,2191.00 3671.09,2199.00 3673.09,2210.00             3675.09,2221.00 3686.91,2255.45 3684.14,2256.73             3677.09,2257.82 3675.09,2218.55 3661.64,2217.82             3652.73,2216.64 3657.09,2192.36 3660.55,2180.36             3657.45,2174.00 3655.68,2136.27 3658.18,2125.27             3659.25,2119.85 3667.45,2100.73 3660.00,2096.18             3666.18,2081.45 3641.95,2063.63 3635.09,2060.36             3622.18,2056.55 3590.50,2008.50 3590.50,2007.50             3590.50,2006.50 3604.25,2003.12 3607.25,2004.62             3609.11,2005.55 3618.75,2029.38 3636.50,2031.62             3643.45,2037.66 3646.60,2041.21 3649.50,2037.50             3661.50,2042.00 3663.00,2055.88 3671.25,2054.25             3679.50,2052.62 3687.88,2015.62 3686.38,2010.12             3685.94,2008.53 3681.28,1999.90 3680.25,1992.25             3676.51,1983.42 3672.73,1970.43 3667.62,1960.00             3660.76,1945.97 3652.47,1934.90 3648.00,1929.00             3637.00,1914.50 3598.38,1897.75 3596.38,1892.25             3594.38,1886.75 3585.00,1866.50 3584.50,1858.50             3584.00,1850.50 3604.00,1861.50 3608.50,1869.50             3613.00,1877.50 3613.50,1879.00 3619.50,1885.50             3625.50,1892.00 3639.25,1903.75 3646.00,1906.00             3649.81,1905.26 3653.38,1904.25 3653.38,1893.38             3653.24,1893.42 3656.42,1889.74 3659.25,1884.12             3661.07,1880.51 3659.07,1879.26 3660.88,1875.12             3668.62,1870.88 3671.75,1857.26 3671.75,1855.62             3671.75,1853.50 3678.42,1837.53 3675.00,1825.25             3669.57,1805.75 3651.14,1782.66 3648.38,1777.75             3643.88,1769.75 3632.38,1770.12 3623.00,1765.00             3617.68,1760.74 3608.94,1750.92 3600.12,1739.75             3596.87,1735.63 3591.85,1731.25 3589.50,1727.00             3586.24,1721.12 3590.72,1720.69 3589.50,1716.75             3587.91,1711.63 3582.72,1699.78 3584.63,1695.57             3585.58,1693.46 3589.04,1693.43 3590.38,1691.88             3593.96,1687.71 3596.13,1684.03 3598.25,1686.62             3599.51,1688.17 3598.76,1692.65 3600.00,1697.62             3600.45,1699.44 3602.87,1700.80 3603.34,1702.85             3605.01,1710.12 3603.73,1716.13 3605.88,1722.75             3607.37,1727.36 3612.10,1733.47 3614.00,1735.50             3621.50,1743.50 3630.38,1747.88 3634.00,1748.12             3636.00,1748.26 3644.26,1760.46 3651.25,1755.75             3656.92,1751.92 3661.75,1731.07 3661.75,1730.62             3661.75,1730.07 3669.93,1707.55 3668.25,1692.88             3666.88,1680.95 3654.17,1673.06 3653.50,1669.25             3652.63,1664.34 3651.64,1651.11 3648.75,1643.38             3646.64,1637.72 3642.56,1636.90 3641.50,1635.00             3641.09,1634.27 3637.31,1631.67 3634.12,1626.38             3630.33,1620.08 3626.84,1610.88 3623.38,1609.25             3605.00,1599.12 3591.69,1579.51 3595.62,1573.00             3604.62,1566.62 3604.12,1581.06 3614.12,1589.88             3617.83,1593.14 3623.55,1593.63 3627.38,1596.88             3630.59,1599.60 3631.44,1604.23 3633.88,1607.25             3640.36,1615.29 3646.49,1621.27 3651.12,1620.00             3652.43,1619.64 3656.15,1605.59 3663.82,1589.09 Z" />
  <path id="tailHair"
    d="M 3653.45,2250.55           C 3654.55,2258.64 3656.92,2268.36 3657.36,2268.36             3664.16,2280.28 3659.27,2260.00 3666.73,2261.64             3670.30,2258.68 3679.52,2279.92 3696.75,2306.38             3706.98,2322.08 3719.19,2340.99 3729.88,2357.25             3740.04,2372.73 3750.87,2386.51 3753.25,2389.38             3758.12,2395.25 3761.28,2399.65 3759.88,2405.25             3749.93,2403.74 3736.76,2384.85 3724.88,2368.12             3710.16,2347.42 3697.32,2328.16 3694.00,2327.12             3704.50,2346.25 3729.12,2385.50 3739.88,2402.50             3739.88,2402.50 3737.88,2410.00 3734.62,2409.75             3731.38,2409.50 3713.25,2372.62 3707.62,2369.00             3711.75,2378.62 3720.62,2404.62 3726.38,2418.38             3726.38,2418.38 3722.38,2424.04 3720.38,2423.38             3719.67,2423.14 3715.86,2416.44 3711.12,2409.12             3702.44,2395.71 3690.51,2377.08 3688.00,2370.12             3697.88,2397.50 3696.12,2430.25 3699.38,2438.38             3690.00,2439.25 3687.62,2379.50 3683.38,2378.00             3683.38,2378.00 3681.50,2435.38 3684.00,2439.33             3669.50,2432.50 3684.00,2372.12 3664.67,2353.33             3663.12,2357.12 3664.38,2435.50 3654.00,2444.00             3656.50,2422.00 3648.96,2326.75 3647.62,2322.75             3647.02,2320.92 3650.88,2304.99 3650.00,2287.88             3648.96,2267.54 3643.47,2245.77 3647.45,2247.09             3649.96,2247.92 3652.05,2247.29 3653.45,2250.55 Z" />
  <path id="torsoOutline"
    d="M 1753.00,972.00           C 1918.00,932.00 2013.00,1038.00 2064.00,1050.00             2115.00,1062.00 2109.50,1070.00 2143.50,1074.00             2147.94,1085.11 2164.86,1102.99 2173.00,1135.50             2190.51,1205.43 2184.50,1284.50 2250.50,1314.00             2316.50,1343.50 2402.50,1274.50 2407.00,1226.50             2411.50,1178.50 2402.50,1162.50 2452.00,1081.00             2501.50,999.50 2486.50,923.50 2528.00,863.50             2543.70,840.80 2574.02,807.05 2617.00,770.00             2639.33,750.75 2664.99,723.96 2694.00,711.50             2756.75,684.56 2845.99,686.81 2888.50,725.50             2988.50,816.50 3082.00,1172.50 3211.00,1221.50             3440.50,1304.50 3525.00,1217.00 3623.00,1271.50             3618.51,1287.20 3521.67,1783.26 3323.00,1983.00             3293.39,2012.77 3245.53,2012.71 3197.00,2024.00             3135.60,2038.28 3072.45,2058.46 3036.50,2044.50             2781.50,1945.50 2764.50,1918.00 2734.50,1831.00             2704.50,1744.00 2712.00,1674.00 2643.00,1671.00             2618.19,1669.92 2540.77,1727.12 2440.50,1794.00             2398.03,1822.32 2357.50,1821.00 2296.00,1878.00             2248.13,1919.94 2216.32,1961.46 2194.00,1999.50             2187.29,2010.94 2181.29,2022.80 2176.75,2033.75             2174.24,2039.81 2167.38,2054.18 2162.50,2059.00             2138.50,2088.00 2146.00,2124.00 2136.75,2126.50             2134.95,2126.77 2129.45,2122.55 2128.36,2115.45             2127.27,2108.36 2127.60,2099.94 2122.00,2093.27             2106.05,2074.31 2122.56,2019.62 2097.00,1986.50             2078.60,1962.66 2071.47,1917.91 2048.50,1892.00             2014.16,1853.26 1972.21,1834.27 1936.50,1803.00             1917.27,1786.16 1899.58,1764.69 1885.00,1752.67             1875.43,1744.78 1867.33,1745.41 1860.56,1738.48             1848.29,1725.91 1841.14,1714.19 1841.00,1700.67             1840.67,1668.33 1728.00,1006.00 1753.00,972.00 Z" />
  <path id="torsoFill" fill="brown"
    d="M 1769.00,984.00           C 1917.00,958.00 2047.00,1082.00 2047.00,1082.00             2047.00,1082.00 2100.06,1084.92 2143.00,1130.00             2180.00,1171.00 2147.27,1261.24 2182.00,1311.00             2199.46,1336.01 2273.82,1370.33 2323.00,1371.00             2470.00,1373.00 2430.67,1165.33 2491.00,1104.00             2491.00,1104.00 2513.33,1071.33 2513.33,1024.00             2514.29,1011.88 2542.98,937.30 2584.67,864.00             2630.11,784.10 2692.18,706.06 2780.67,720.67             2914.67,736.67 2858.67,772.67 2961.33,871.33             3049.00,965.00 3047.00,1259.00 3360.00,1309.00             3360.00,1309.00 3552.67,1332.00 3605.00,1285.00             3620.00,1281.67 3334.25,1963.75 3302.00,1984.00             3258.25,2008.50 3209.25,1998.75 3174.25,2014.25             3139.25,2029.75 3073.74,2029.12 3056.25,2018.50             3022.50,1998.00 2843.50,1936.00 2801.50,1882.50             2733.00,1830.00 2706.50,1670.50 2666.00,1643.00             2643.70,1627.86 2479.69,1767.01 2405.50,1784.50             2331.31,1801.99 2207.13,1930.95 2146.00,2024.00             2145.25,2025.34 2138.77,1994.99 2133.67,1965.67             2130.67,1948.42 2132.88,1935.93 2124.33,1918.67             2119.15,1908.20 2110.59,1904.73 2102.75,1895.75             2086.95,1877.64 2077.96,1862.72 2058.67,1847.00             2019.48,1815.07 1966.49,1785.84 1928.67,1762.00             1908.85,1749.51 1895.33,1734.33 1876.09,1727.07             1856.85,1719.81 1844.08,1697.14 1848.00,1682.00             1838.00,1632.67 1761.00,1033.00 1769.00,984.00 Z" />
  <path id="rearLeftHoofOutline"
    d="M 3487.50,2379.75           C 3489.75,2382.50 3496.12,2383.25 3496.62,2391.25             3497.88,2399.00 3506.25,2417.00 3508.50,2427.50             3510.75,2438.00 3514.00,2449.00 3518.00,2452.75             3522.00,2456.50 3526.38,2469.50 3524.62,2474.25             3522.88,2479.00 3513.25,2485.00 3514.62,2493.88             3515.50,2499.00 3518.75,2498.00 3500.50,2505.50             3482.25,2513.00 3399.00,2515.50 3392.00,2516.50             3344.38,2519.75 3308.50,2529.75 3304.00,2528.50             3299.50,2527.25 3289.75,2500.38 3299.75,2480.50             3306.12,2473.25 3301.75,2470.50 3304.00,2464.75             3306.25,2459.00 3312.25,2446.00 3314.25,2443.50             3316.25,2441.00 3360.00,2356.50 3360.00,2356.50             3360.00,2356.50 3476.50,2339.25 3476.50,2339.25             3476.50,2339.25 3485.25,2377.00 3487.50,2379.75 Z" />
  <path id="rearLeftHoofFill" fill="white"
    d="M 3311.91,2513.82           C 3309.73,2511.09 3322.09,2494.36 3322.09,2494.36             3322.09,2494.36 3323.85,2492.16 3323.55,2490.09             3318.55,2478.55 3318.32,2462.34 3327.09,2456.18             3335.55,2452.00 3348.18,2443.36 3349.82,2439.64             3349.80,2438.90 3349.09,2433.27 3353.00,2431.73             3356.31,2412.71 3364.00,2365.00 3364.00,2365.00             3364.00,2365.00 3470.00,2346.00 3470.00,2346.00             3470.00,2346.00 3484.75,2373.00 3474.25,2390.75             3467.17,2391.46 3472.50,2402.60 3476.75,2412.50             3479.26,2418.33 3478.31,2421.63 3482.51,2427.77             3488.80,2436.97 3496.06,2445.32 3501.50,2449.25             3509.96,2455.35 3509.30,2470.09 3504.88,2479.88             3494.50,2489.12 3494.02,2490.37 3496.25,2494.88             3495.50,2497.75 3420.25,2510.88 3401.75,2506.00             3401.47,2504.24 3401.64,2500.27 3406.18,2496.27             3406.36,2488.27 3408.22,2481.93 3412.82,2474.00             3420.86,2460.14 3434.90,2444.01 3436.12,2441.62             3441.75,2430.44 3434.44,2421.94 3428.88,2428.56             3427.10,2430.67 3422.33,2434.99 3416.62,2441.81             3415.83,2442.76 3410.14,2441.13 3409.31,2442.12             3401.38,2460.94 3388.00,2478.38 3388.00,2483.00             3388.44,2488.94 3367.27,2496.00 3359.27,2495.27             3374.36,2509.27 3314.09,2516.55 3311.91,2513.82 Z" />
  <path id="rearLegLeftOutline"
    d="M 3280.73,1584.36           C 3292.81,1556.01 3312.30,1519.29 3331.27,1478.18             3344.42,1465.67 3364.76,1486.36 3367.09,1494.36             3421.82,1539.64 3460.15,1307.58 3441.82,1314.91             3424.55,1317.64 3395.45,1318.36 3397.00,1312.00             3407.00,1286.00 3568.00,1230.00 3578.00,1238.00             3588.00,1246.00 3668.67,1250.00 3684.00,1328.00             3693.30,1375.31 3630.67,1536.67 3555.33,1654.00             3540.08,1686.66 3525.17,1718.77 3512.57,1748.84             3508.38,1758.85 3502.50,1757.50 3498.75,1776.25             3491.25,1788.75 3489.00,1795.75 3489.14,1809.95             3480.98,1835.75 3477.33,1857.39 3478.00,1876.00             3476.95,1881.79 3481.27,1886.36 3471.64,1887.82             3475.09,1900.55 3467.07,1907.78 3465.64,1912.73             3461.51,1926.93 3463.05,1931.32 3463.64,1945.64             3464.16,1958.41 3467.60,1976.23 3475.33,2009.33             3487.00,2062.33 3499.82,2059.45 3493.33,2078.00             3491.41,2084.75 3505.14,2089.83 3507.00,2096.33             3508.48,2101.51 3498.14,2107.67 3497.33,2115.67             3494.95,2139.29 3478.67,2132.33 3483.67,2187.00             3484.92,2196.92 3490.00,2254.33 3489.67,2262.33             3489.33,2270.33 3511.87,2308.66 3513.33,2338.33             3513.59,2343.44 3508.91,2349.09 3513.64,2355.64             3507.82,2358.55 3504.74,2359.65 3504.67,2365.00             3513.00,2370.33 3506.40,2377.57 3504.33,2377.33             3464.00,2382.00 3411.50,2383.00 3380.00,2405.25             3342.50,2428.75 3312.92,2455.62 3307.00,2451.25             3305.57,2449.13 3308.00,2435.26 3312.61,2415.16             3313.99,2409.15 3325.78,2385.98 3327.50,2379.00             3329.45,2371.10 3321.24,2374.23 3323.50,2365.50             3325.85,2356.41 3335.86,2349.23 3338.25,2341.00             3339.44,2336.92 3335.25,2335.01 3336.25,2331.00             3342.76,2304.95 3349.40,2280.62 3355.50,2260.00             3356.90,2255.27 3356.94,2237.65 3358.25,2233.75             3362.27,2221.77 3366.28,2214.98 3369.00,2213.00             3369.66,2212.59 3371.40,2200.25 3369.00,2192.25             3362.75,2181.75 3353.50,2170.00 3348.25,2156.00             3341.50,2138.00 3340.50,2112.25 3342.25,2092.75             3353.75,2087.00 3353.00,2077.00 3356.75,2070.75             3355.82,2048.13 3356.00,2039.25 3338.25,2023.25             3324.40,2000.78 3306.16,1974.59 3288.50,1955.75             3283.06,1948.03 3276.24,1939.89 3269.79,1930.86             3265.08,1924.27 3265.39,1917.73 3261.75,1910.00             3257.77,1901.55 3250.02,1891.78 3249.00,1881.50             3244.61,1837.08 3236.48,1788.88 3239.75,1746.00             3241.95,1717.17 3242.02,1692.58 3245.25,1677.25             3252.50,1662.75 3258.82,1645.92 3265.75,1628.00             3267.05,1625.23 3271.16,1606.82 3280.73,1584.36 Z" />
  <path id="rearLegLeftFill" fill="brown"
    d="M 3323.75,1588.75           C 3324.00,1578.25 3333.67,1569.03 3340.75,1553.75             3353.00,1527.30 3365.64,1496.67 3365.64,1496.67             3365.64,1496.67 3360.00,1475.67 3332.67,1478.00             3344.77,1440.74 3370.44,1349.28 3400.00,1316.00             3405.33,1312.67 3442.33,1319.33 3444.73,1311.03             3474.67,1285.33 3529.50,1268.25 3534.55,1265.27             3552.00,1268.25 3585.55,1265.66 3587.25,1263.75             3597.12,1265.40 3611.67,1275.00 3627.00,1285.00             3644.28,1296.28 3661.37,1305.51 3661.50,1320.75             3661.50,1320.75 3669.25,1375.50 3660.00,1397.67             3657.92,1403.03 3635.17,1463.78 3606.75,1518.75             3573.78,1582.52 3542.50,1625.75 3536.00,1643.00             3531.98,1648.25 3525.38,1666.98 3516.00,1688.75             3510.46,1701.61 3502.40,1714.96 3497.50,1728.75             3491.75,1758.00 3481.81,1786.65 3475.00,1794.25             3454.00,1838.25 3445.45,1869.64 3438.75,1925.75             3433.44,1970.28 3453.75,2025.75 3457.33,2048.67             3457.33,2048.67 3471.50,2101.00 3466.00,2111.75             3470.00,2116.75 3470.28,2123.10 3470.25,2128.50             3470.18,2139.59 3460.00,2135.00 3461.50,2144.75             3463.00,2154.50 3456.19,2159.77 3457.00,2167.00             3460.28,2196.15 3469.25,2226.50 3469.75,2255.00             3475.25,2267.75 3484.50,2292.00 3479.00,2306.50             3479.92,2310.96 3480.13,2313.96 3481.00,2317.75             3487.50,2328.75 3488.97,2340.07 3490.67,2344.67             3497.75,2354.75 3490.08,2366.33 3480.50,2368.00             3467.50,2369.00 3378.25,2368.00 3325.33,2423.33             3335.50,2392.00 3363.00,2273.25 3377.75,2263.25             3378.75,2256.00 3376.83,2234.83 3375.75,2221.75             3390.08,2215.83 3378.25,2176.25 3378.25,2166.75             3354.00,2152.50 3352.75,2125.00 3352.67,2110.00             3353.00,2099.75 3374.25,2056.75 3386.00,2053.33             3385.75,2050.33 3363.00,2012.50 3337.75,1981.50             3338.51,1978.35 3336.75,1970.50 3323.50,1963.00             3322.25,1956.50 3322.75,1952.25 3315.25,1956.25             3308.25,1950.00 3290.75,1942.00 3285.00,1923.75             3285.90,1917.01 3255.50,1860.25 3269.50,1861.75             3259.75,1845.50 3255.70,1825.57 3255.00,1815.75             3252.55,1787.38 3256.50,1639.75 3323.75,1588.75 Z" />
  <path id="frontLeftLegOutline"
    d="M 2870.00,1291.50           C 2988.00,1295.00 3002.00,1335.00 3003.00,1405.00             3003.38,1431.47 2988.83,1478.72 2963.00,1522.50             2920.51,1594.52 2857.74,1667.01 2856.50,1695.00             2854.50,1740.00 2850.00,1760.00 2833.00,1766.00             2816.00,1772.00 2787.50,1755.50 2730.50,1831.00             2711.24,1856.51 2690.72,1890.80 2679.00,1938.00             2656.03,2030.51 2640.50,2115.50 2663.00,2185.00             2678.00,2239.00 2732.00,2380.50 2705.00,2406.50             2678.00,2432.50 2647.00,2484.50 2605.00,2482.00             2563.00,2479.50 2457.00,2507.00 2447.00,2494.00             2437.00,2481.00 2422.00,2460.00 2424.00,2434.00             2426.00,2408.00 2516.00,2224.00 2520.00,2204.00             2522.21,2192.96 2532.00,2171.00 2537.00,2118.50             2538.84,2099.13 2534.95,2079.14 2529.20,2060.73             2526.87,2053.25 2519.18,2059.31 2516.50,2052.50             2516.09,2024.01 2505.33,1998.45 2503.00,1991.00             2493.00,1943.00 2483.00,1786.50 2489.00,1745.50             2490.95,1732.15 2498.35,1711.94 2505.00,1676.50             2518.79,1603.06 2540.21,1494.73 2579.33,1460.33             2637.33,1409.33 2752.00,1288.00 2870.00,1291.50 Z" />
  <path id="frontLeftLegFill" fill="brown"
    d="M 2862.33,1316.33           C 2897.00,1316.22 2929.45,1316.37 2938.33,1328.67             2955.67,1352.67 2985.33,1396.00 2975.33,1429.33             2965.33,1462.67 2925.67,1546.67 2883.67,1614.33             2859.87,1652.67 2815.76,1708.88 2778.67,1741.33             2752.67,1753.00 2729.47,1765.15 2704.33,1803.00             2678.53,1841.86 2661.10,1948.00 2647.00,2015.33             2642.00,2039.22 2634.31,2032.46 2631.00,2055.67             2622.66,2114.07 2623.64,2158.46 2628.67,2186.00             2635.23,2221.91 2648.28,2269.43 2655.33,2305.33             2657.37,2315.69 2664.60,2327.76 2664.00,2335.00             2661.33,2367.33 2678.89,2384.12 2679.33,2387.00             2680.67,2395.67 2682.00,2405.33 2672.00,2418.67             2662.00,2432.00 2633.33,2476.67 2604.00,2475.33             2574.67,2474.00 2456.00,2510.67 2451.33,2482.67             2446.67,2454.67 2456.17,2400.42 2464.25,2399.75             2466.86,2399.53 2472.25,2394.50 2476.00,2373.50             2479.75,2352.50 2511.00,2268.25 2523.33,2248.00             2528.83,2238.27 2546.34,2174.75 2553.50,2123.50             2557.62,2094.00 2553.51,2070.60 2554.00,2058.67             2558.00,2007.25 2547.50,2028.25 2529.25,1960.75             2522.82,1936.83 2521.33,1913.99 2521.33,1908.67             2521.33,1900.71 2512.32,1826.61 2511.75,1762.75             2511.36,1719.64 2513.75,1687.85 2513.75,1679.25             2513.75,1670.59 2533.25,1626.25 2527.75,1618.50             2522.25,1610.75 2549.52,1562.40 2558.25,1545.50             2579.88,1503.64 2608.42,1471.82 2615.75,1458.00             2623.22,1443.93 2643.00,1424.75 2661.00,1408.75             2694.00,1394.50 2738.49,1373.98 2768.67,1342.67             2794.52,1315.84 2829.33,1316.45 2862.33,1316.33 Z" />
  <path id="frontLeftHoofOutline"
    d="M 2481.45,2545.64           C 2426.91,2549.45 2420.76,2557.63 2399.64,2559.09             2395.71,2559.36 2394.03,2557.38 2390.91,2556.73             2383.22,2555.12 2376.42,2553.17 2376.00,2551.50             2375.51,2549.55 2382.30,2541.74 2391.75,2529.00             2402.86,2514.03 2404.19,2483.36 2421.75,2461.50             2432.10,2448.61 2443.73,2435.83 2455.47,2423.83             2468.58,2410.42 2470.13,2420.04 2480.55,2410.36             2500.64,2391.70 2519.64,2360.98 2528.18,2358.91             2530.83,2359.47 2543.38,2370.52 2556.50,2386.50             2566.88,2399.14 2570.75,2417.41 2582.12,2415.75             2585.63,2415.24 2595.83,2413.36 2601.12,2417.88             2605.44,2421.55 2607.45,2429.45 2613.64,2436.00             2619.82,2442.55 2626.36,2451.45 2628.36,2461.64             2628.85,2464.09 2631.94,2467.50 2637.27,2476.18             2643.12,2485.70 2643.38,2491.43 2651.09,2504.00             2653.24,2507.51 2657.63,2509.01 2660.00,2512.73             2661.95,2515.79 2660.46,2519.03 2662.36,2522.18             2667.77,2531.13 2676.94,2534.64 2681.45,2542.00             2683.35,2545.09 2680.21,2546.97 2680.91,2550.36             2682.02,2555.78 2687.09,2557.45 2686.00,2563.64             2684.73,2565.82 2668.00,2556.73 2660.00,2558.91             2657.46,2559.60 2653.38,2557.34 2649.09,2557.45             2639.90,2557.70 2627.77,2559.30 2613.82,2557.09             2600.34,2554.95 2585.74,2550.18 2572.73,2548.18             2551.74,2544.96 2548.25,2547.32 2544.55,2547.09             2542.14,2546.94 2536.00,2541.82 2481.45,2545.64 Z" />
  <path id="frontLeftHoofFill" fill="white"
    d="M 2484.50,2421.38           C 2502.26,2406.81 2518.28,2391.21 2520.75,2387.88             2526.12,2380.62 2530.92,2386.00 2532.25,2390.00             2533.58,2394.00 2536.67,2403.33 2541.75,2411.00             2546.83,2418.67 2558.17,2431.67 2562.50,2435.00             2564.50,2436.54 2568.25,2436.75 2572.25,2440.25             2576.25,2443.75 2579.77,2443.66 2584.25,2443.12             2592.58,2442.12 2593.88,2442.12 2597.50,2446.62             2601.12,2451.12 2612.79,2456.79 2616.12,2463.12             2619.46,2469.46 2632.21,2482.04 2632.88,2499.38             2633.54,2516.71 2639.33,2526.33 2645.33,2529.00             2651.33,2531.67 2656.67,2541.33 2655.33,2541.33             2654.00,2541.33 2646.12,2536.62 2638.33,2536.00             2638.33,2535.67 2592.83,2542.33 2588.25,2534.00             2583.67,2525.67 2579.67,2532.00 2579.67,2532.00             2579.67,2532.00 2570.67,2538.33 2559.33,2536.00             2548.00,2533.67 2528.33,2529.00 2519.67,2532.67             2511.00,2536.33 2509.12,2532.83 2512.12,2527.50             2515.12,2522.17 2514.92,2500.71 2518.25,2496.38             2519.86,2494.28 2524.62,2490.75 2524.25,2486.12             2523.88,2481.50 2530.50,2474.38 2530.62,2472.25             2530.88,2468.12 2518.69,2460.50 2516.75,2460.69             2514.56,2462.19 2506.06,2472.71 2504.06,2477.38             2502.06,2482.04 2506.90,2507.69 2503.56,2512.69             2500.23,2517.69 2500.77,2531.31 2487.44,2531.31             2474.10,2531.31 2471.02,2524.44 2461.69,2529.44             2452.35,2534.44 2419.29,2548.69 2412.62,2545.69             2405.96,2542.69 2407.67,2522.67 2410.67,2514.33             2411.94,2510.79 2414.59,2499.25 2420.25,2488.81             2427.91,2474.69 2438.98,2461.07 2439.94,2457.81             2440.84,2454.75 2463.69,2438.45 2484.50,2421.38 Z" />
  <path id="hornRightOutline"
    d="M 1264,1154 C 1234.2,1158.3 1170.5,1149 1105.7,1131.7 1080.9,1125.1 1059.3,1124.3 1034.2,1112.2 988.7,1090.4 947.91,1050.8 912,1013.2 896.83,997.38 884.89,987.79 873.25,968.5 850.64,931.04 838.26,886.37 834.5,835 831.21,790.06 833.68,740.28 852.76,681.9 857.03,668.81 859.48,655.02 865,641.25 874.41,617.77 885.82,602.2 899.1,576.67 909.43,570.25 910.61,568.98 910,577.38 908.06,580.19 879.22,638.91 877.33,699 875.28,764.41 901,834.52 936.73,864.55 956.92,881.52 985.41,891.59 1011.6,902.55 1020.3,906.16 1024.7,913.06 1033.8,916.11 1043.4,919.35 1056.8,915.17 1066.7,917.82 1093,924.83 1137.4,925.4 1179.6,919.45 1212.3,914.86 1244,903.67 1263.1,905.45 1343.7,907 1372.7,882 1403.7,900 1408,906.67 1300,1126 1264,1154 Z" />
  <path id="hornRightFill" fill="white"
    d="M 1140.75,1119.50           C 1119.67,1115.72 1100.45,1108.72 1078.00,1099.75             1053.26,1089.86 1024.61,1076.26 1004.25,1060.75             983.04,1044.59 970.27,1026.37 951.00,1009.33             854.58,924.06 862.33,794.67 862.00,788.00             870.00,798.33 869.65,896.73 994.00,926.00             1011.89,930.21 1029.70,936.77 1050.67,938.67             1094.12,942.60 1144.52,938.49 1190.85,935.92             1221.33,928.00 1222.33,916.33 1393.00,913.00             1393.00,913.00 1260.00,1140.00 1260.00,1140.00             1190.50,1113.00 1200.87,1130.28 1140.75,1119.50 Z" />
  <path id="faceFill" fill="#a52a2a"
    d="M 1636.5,940.5 C 1815.3,1051.3 1777.8,1351 1883.3,1237.3 L 2016,1123.5 2038.5,1132 2033,1218.5 1975.5,1357 C 1975.5,1357 1908.7,1407.3 1925.5,1428.5 1942.7,1469.7 1954.8,1530.5 1948,1597.3 1948,1597.3 1944.3,1660.7 1889,1695.5 1854.7,1698.3 1776,1719.3 1713.5,1739 1689.3,1746.6 1661.3,1756.9 1639.3,1781.3 1611.3,1829.3 1578.8,1878 1560,1895 1543.1,1912 1522.6,1931.7 1486.7,1937.3 1429.7,1946.2 1350,1935.1 1306,1940 1214.8,1950.1 1214,1974 1193,1968 1176.8,1967 1174.8,1926.7 1161,1886.5 1131.4,1851.1 1117.1,1801.5 1120,1800 1125,1792.2 1195.3,1795.3 1281.3,1792.6 1371.9,1789.8 1472,1791 1535,1779.6 1569.2,1773.4 1585.9,1735 1597,1732 1608.7,1728.8 1623.6,1701.2 1651.3,1668 1671.7,1643.6 1696,1626.5 1712,1600.7 1733.4,1566.2 1741.5,1524.7 1719,1512 1710.7,1508 1697.3,1550.7 1662,1546 1634.9,1552.6 1507,1515.7 1384.7,1514 1248.5,1512.1 1127,1543.7 1127,1543.7 1127,1543.7 1130.7,1532 1122.3,1499 1112,1458.1 1081.5,1393.7 1098.7,1370 1135.2,1319.5 1198.7,1361.3 1204.7,1358.7 1249.3,1336 1353.3,1381 1371.3,1329.3 1371.3,1329.3 1408,1278 1384,1233 L 1192,1139 C 1192,1139 1513.3,867.33 1636.5,940.5 Z" />
  <path id="noseFill" fill="pink"
    d="M 1333.33,1492.00           C 1315.33,1502.00 1303.67,1519.00 1303.67,1519.00             1303.67,1519.00 1127.67,1543.00 1127.67,1543.00             1127.67,1543.00 1084.00,1402.67 1098.67,1374.67             1114.67,1350.00 1204.33,1364.00 1204.33,1364.00             1204.33,1364.00 1274.33,1347.52 1316.00,1360.67             1355.38,1373.09 1366.53,1415.01 1367.67,1421.00             1370.00,1433.33 1351.33,1482.00 1333.33,1492.00 Z" />
  <path id="noseOutline"
    d="M 1108.50,1506.62           C 1106.54,1503.44 1107.48,1496.79 1104.12,1493.38             1101.20,1490.40 1099.17,1488.90 1096.38,1485.88             1092.27,1481.45 1090.15,1475.33 1086.62,1471.47             1079.21,1463.38 1073.65,1457.18 1072.38,1455.62             1070.90,1453.83 1071.32,1450.80 1071.00,1444.88             1070.50,1435.39 1070.19,1420.41 1072.88,1405.88             1073.76,1401.08 1076.27,1396.79 1077.38,1391.88             1080.00,1380.17 1079.92,1365.80 1087.38,1359.88             1093.74,1354.82 1091.51,1352.91 1100.12,1349.62             1110.43,1345.70 1123.86,1344.46 1136.00,1342.25             1155.19,1338.75 1172.25,1335.57 1176.88,1336.50             1186.88,1338.50 1199.00,1348.00 1206.75,1345.62             1214.50,1343.25 1220.12,1336.20 1225.25,1335.25             1226.50,1343.00 1252.88,1336.00 1266.50,1342.62             1281.75,1341.75 1347.92,1362.46 1357.25,1375.12             1361.22,1380.51 1373.88,1389.75 1385.00,1394.38             1381.53,1404.72 1384.00,1414.00 1391.62,1424.38             1389.14,1426.95 1387.25,1432.12 1391.50,1437.62             1391.53,1439.98 1389.41,1442.59 1389.12,1444.25             1385.12,1467.58 1332.88,1499.38 1327.12,1497.62             1326.00,1497.28 1324.64,1493.55 1326.25,1489.50             1328.70,1483.33 1336.57,1487.08 1342.00,1476.50             1339.62,1465.12 1361.00,1429.00 1358.50,1411.62             1364.17,1390.29 1284.79,1346.25 1246.12,1362.25             1239.25,1365.10 1240.53,1369.47 1236.50,1374.25             1228.00,1384.32 1221.89,1398.10 1220.25,1410.50             1219.23,1418.21 1216.60,1425.19 1217.12,1431.38             1217.61,1437.06 1223.00,1442.68 1223.00,1445.33             1223.00,1448.97 1216.27,1449.87 1214.75,1447.12             1210.93,1440.23 1195.53,1409.16 1193.70,1397.27             1191.88,1385.38 1185.73,1385.95 1180.62,1381.50             1157.77,1361.55 1119.94,1370.09 1113.12,1377.50             1105.62,1385.66 1104.86,1414.79 1114.00,1439.50             1123.53,1465.28 1143.11,1486.64 1141.75,1494.12             1139.08,1508.79 1140.50,1520.12 1128.50,1523.00             1118.96,1525.29 1116.11,1519.02 1108.50,1506.62 Z" />
  <path id="faceOutline"
    d="M 1929.7,1454.3 C 1929.1,1447.3 1923,1433.8 1923,1432.1 1923,1430.5 1922,1422.4 1927.5,1428.2 1935.1,1436.8 1931.9,1439.6 1934.9,1447.3 1937.9,1454.9 1934.8,1447.5 1943.6,1475 1949.7,1498.3 1954.3,1522.8 1957,1534 1961.6,1546.4 1959.4,1591.8 1951.5,1606 1950.5,1609.2 1948.7,1625.8 1942.7,1636.7 1940,1641.8 1938.6,1649.7 1935.2,1655 1931.9,1660.3 1931.1,1667.4 1927.5,1672.3 1924.7,1676 1918.7,1678.6 1915.8,1681.9 1904,1695.4 1893.6,1703.7 1892.7,1704.5 1891.8,1705.3 1873.6,1703.4 1855.7,1705.8 1846.8,1707 1838,1709.7 1829.4,1711.4 1812.4,1714.8 1797.6,1717.9 1794.1,1721.7 1792.9,1723 1789.5,1725 1784.3,1727.4 1775.4,1731.6 1758,1734 1742.2,1740.1 1701.5,1756 1652.4,1778.9 1643.7,1788 1622.4,1801.8 1605.2,1852.2 1582.7,1877.6 1545,1920.3 1512.7,1936 1512.7,1936 1512.7,1936 1365.9,1940.4 1274.2,1952.9 1234.4,1958.3 1202.8,1978.5 1201.6,1978.5 1200.2,1978.5 1200.4,1974 1196.5,1973.6 1189.5,1973 1180.8,1980 1178.9,1976.5 1177.9,1974.8 1174.7,1966.7 1166.3,1954.3 1165,1949.9 1168.4,1946.5 1167.3,1941.7 1163.4,1923.3 1157.7,1900.4 1154,1894.9 1147,1884.6 1132.7,1865.3 1119.7,1852.3 1110.7,1845.8 1114.6,1839 1113.5,1831.1 1111.9,1820.8 1108.4,1809.5 1107.5,1807.5 1104.2,1801.2 1124.6,1788.7 1127.6,1788 1142.2,1783.5 1191.7,1791.3 1222.7,1788.3 1244.8,1786.2 1430.8,1792.1 1532.7,1773.7 1573.6,1766.2 1596.7,1722.7 1596.7,1722.7 1596.7,1722.7 1624.5,1675 1635.2,1666 1640.9,1661.2 1660.9,1647.2 1677.5,1627.7 1680.3,1624.5 1680.2,1620.2 1682.7,1616.7 1693.7,1601.7 1704.7,1586.9 1708,1585.5 1716.5,1581.7 1739.6,1531.7 1710.7,1522 1710.2,1525.7 1705.2,1532.2 1706,1536 1706.6,1539.1 1712.2,1536.3 1711.7,1538.8 1711.4,1540.5 1706.6,1542.2 1706,1542.7 1704.9,1543.5 1679.5,1553.9 1645.4,1556.1 1596.6,1559.1 1523.7,1551 1523.7,1551 1523.7,1551 1430,1529.7 1408.5,1527.2 1398.5,1526.1 1310.3,1522.8 1246.5,1529.2 1173.6,1536.6 1153.5,1554.5 1121.3,1552.7 1115.3,1550.7 1124.7,1512 1124.7,1512 L 1099.3,1438.7 C 1099.3,1438.7 1080.7,1369.7 1128.7,1358 L 1205.3,1366.7 C 1205.3,1366.7 1334,1354.2 1354.7,1342 1367.3,1334 1376,1315.3 1380.5,1302.2 1387.4,1282.3 1385.7,1268.6 1381.3,1271.3 1381.3,1271.3 1379.1,1269.4 1378.4,1266.2 1378.1,1265.1 1379,1256.7 1378.5,1255.3 1375.9,1246.1 1368.7,1238.2 1363.3,1233.6 1358.1,1230.8 1345.9,1222.7 1335.2,1219.5 1322.6,1215.8 1310.6,1216.8 1294.5,1210 1281.2,1204.4 1269.8,1192.4 1255.4,1186.4 1239.9,1180 1221.4,1170.1 1206.5,1164 1159.2,1144.7 1123.5,1138 1122.7,1132.7 1122.7,1132.7 1178.2,1119.1 1232.1,1136 1257.4,1140.4 1292.2,1158.9 1295.5,1166.5 1297.2,1170.8 1306.5,1173.1 1308.2,1179.3 1308.9,1182.5 1353.2,1191.5 1375.8,1207.8 1400.8,1225.8 1399.2,1242.5 1400.1,1251.5 1400.3,1254 1394.4,1277.9 1396.1,1287.7 1396.8,1291.8 1392.1,1307.8 1385.5,1321 1380.9,1330.1 1373.5,1336.1 1368.6,1342 1363.5,1348.3 1361.1,1354.2 1361.1,1354.2 1361.1,1354.2 1355.8,1359.6 1336.4,1359.2 1326.2,1358.9 1158.4,1339.8 1109.5,1369.6 1056.5,1402 1132.2,1523.5 1137,1531.2 1148.9,1522.7 1184.8,1523.4 1211,1522.5 1224.4,1522.1 1238.7,1518.7 1238.7,1518.7 1238.7,1518.7 1249.3,1513.7 1265.7,1512 1289.5,1509.5 1315.9,1510 1343.7,1508.5 1365.6,1507.3 1391.6,1503.7 1396,1504 1401.3,1505.4 1416.2,1511.4 1432.5,1512.2 1466.3,1514.1 1511.6,1510.8 1528,1517.7 1538.4,1522.1 1576.8,1535.6 1618,1540.5 1639,1543 1662.7,1541.3 1679.7,1539.2 1699.3,1536.9 1693.7,1506.3 1706.3,1505.3 1711.7,1504.9 1716.1,1504.6 1719.3,1504.7 1727.3,1504.7 1749.8,1524.2 1741,1545.7 1734.7,1561 1738.4,1582.5 1725.7,1602 1705,1637.3 1673.1,1651.7 1651.3,1676 1628.8,1701.1 1618.6,1729.1 1618.7,1734.3 1618.7,1734.3 1613,1737.8 1607.7,1744.3 1596.5,1758.1 1576,1783.4 1543,1789.3 1462.3,1803.9 1332.6,1787.1 1249.1,1798.4 1201,1804.8 1155,1800.7 1153.3,1800 1146.6,1797.4 1135.6,1798.8 1134.9,1800.5 1128.8,1815.2 1181.3,1918 1181.3,1918 L 1522,1912 C 1522,1912 1574.4,1847.6 1627.5,1791.6 1629.5,1789.5 1627.8,1784.8 1629.8,1782.7 1632.6,1779.8 1635.2,1780.5 1638.5,1777.8 1642.4,1774.8 1647.1,1768.3 1650.2,1765.3 1651.5,1764 1650.4,1759.4 1651.6,1758.2 1653.8,1756.1 1660.2,1756.7 1662.4,1754.7 1671,1746.9 1683.9,1743 1693.8,1737.6 1697.9,1735.4 1695.7,1730.1 1699.5,1728.2 1701.9,1726.9 1705.7,1727.7 1708.2,1726.7 1723.2,1720.5 1736,1716.7 1736,1716.7 1736,1716.7 1869.1,1715.4 1922.2,1643.4 1963.3,1587.6 1930,1457.4 1929.7,1454.3 Z" />
  <path id="eye"
    d="M 1584.12,1423.88           C 1581.68,1426.57 1572.73,1430.44 1572.00,1430.00             1570.87,1429.32 1560.16,1414.71 1548.25,1402.75             1533.98,1388.42 1518.11,1374.60 1516.50,1348.50             1515.33,1329.46 1519.26,1308.20 1531.82,1290.91             1538.56,1281.62 1549.52,1274.09 1559.64,1267.27             1568.94,1261.00 1572.89,1249.75 1584.73,1246.73             1597.01,1243.59 1617.27,1248.84 1632.36,1251.27             1648.69,1253.90 1658.72,1257.95 1669.27,1262.18             1679.18,1266.16 1689.92,1270.18 1695.82,1276.91             1714.97,1298.77 1717.71,1329.87 1710.18,1357.45             1699.97,1394.85 1673.76,1426.54 1670.88,1426.88             1665.89,1425.52 1663.88,1410.98 1658.50,1395.62             1655.49,1387.05 1652.09,1374.32 1648.12,1366.25             1645.48,1360.87 1642.12,1359.78 1640.12,1355.25             1638.57,1351.73 1639.88,1341.25 1638.00,1338.38             1636.12,1335.50 1635.01,1342.01 1634.25,1343.12             1629.45,1350.17 1598.36,1408.17 1584.12,1423.88 Z" />
  <path id="tongueFill" fill="pink"
    d="M 1352.00,1700.00           C 1390.81,1694.60 1467.78,1689.14 1480.36,1724.55             1486.34,1741.37 1453.19,1762.95 1441.27,1786.91             1436.91,1795.68 1440.97,1819.77 1442.91,1822.73             1453.45,1838.80 1487.91,1907.82 1495.64,1965.27             1501.38,2007.92 1482.00,2045.00 1482.00,2045.00             1482.00,2045.00 1471.67,2218.00 1258.00,2303.00             1258.00,2303.00 1219.00,2183.00 1219.00,2183.00             1219.00,2183.00 1314.00,2003.00 1314.00,2003.00             1314.00,2003.00 1264.00,1848.00 1263.00,1812.00             1262.00,1776.00 1288.00,1708.91 1352.00,1700.00 Z" />
  <path id="tongueOutline" fill-rule="evenodd"
    d="M 1487.64,1740.00           C 1485.09,1790.36 1450.07,1790.84 1445.00,1798.67             1433.33,1816.67 1475.50,1857.88 1484.88,1874.12             1487.69,1879.01 1488.78,1888.92 1494.12,1903.50             1495.71,1907.84 1499.28,1911.09 1501.38,1916.62             1505.66,1927.93 1516.13,1948.63 1519.25,1960.38             1521.79,1969.95 1518.29,1979.06 1520.12,1987.62             1521.29,1993.07 1525.25,1990.59 1526.50,1994.50             1528.93,2002.10 1528.18,2014.51 1526.25,2020.62             1523.16,2030.43 1518.12,2084.62 1496.50,2120.38             1487.04,2133.80 1481.65,2148.86 1472.75,2162.75             1458.22,2185.44 1439.90,2206.81 1420.50,2226.25             1378.26,2268.59 1328.58,2300.92 1319.12,2298.88             1313.06,2297.57 1297.12,2310.19 1281.38,2318.75             1272.55,2323.55 1264.72,2326.12 1261.12,2326.00             1251.12,2325.67 1218.36,2312.00 1209.25,2304.75             1206.28,2302.39 1208.36,2293.99 1207.64,2285.45             1206.14,2267.80 1204.45,2244.01 1204.00,2233.00             1203.33,2216.67 1206.50,2157.25 1223.00,2144.00             1238.25,2132.75 1226.25,2126.50 1239.75,2101.25             1245.83,2090.64 1257.59,2078.56 1264.25,2066.00             1268.04,2058.85 1266.55,2050.58 1270.50,2044.75             1272.71,2041.48 1277.88,2042.66 1279.83,2039.73             1286.98,2028.99 1293.00,2022.50 1293.50,2013.75             1294.00,2005.00 1295.25,1988.00 1286.25,1968.75             1280.58,1948.75 1239.83,1861.92 1235.75,1837.75             1234.75,1828.75 1246.33,1745.33 1275.00,1724.33             1303.67,1703.33 1318.50,1689.75 1346.25,1684.25             1360.15,1681.50 1377.32,1677.46 1397.50,1678.50             1417.61,1679.53 1430.50,1687.25 1445.50,1687.00             1454.97,1687.14 1489.50,1710.77 1487.64,1740.00 Z           M 1394.36,1889.64           C 1395.61,1899.65 1394.62,1917.43 1395.25,1917.75             1396.75,1918.50 1399.75,1920.75 1402.00,1918.00             1404.25,1915.25 1409.27,1908.02 1409.27,1903.27             1409.27,1898.52 1410.36,1878.07 1404.36,1871.82             1398.36,1865.57 1391.23,1851.27 1388.73,1839.27             1386.23,1827.27 1393.25,1798.75 1395.00,1791.75             1396.75,1784.75 1412.32,1751.70 1423.82,1749.45             1435.32,1747.20 1456.25,1744.00 1457.50,1741.75             1458.75,1739.50 1469.70,1722.70 1472.45,1723.45             1475.20,1724.20 1477.50,1723.59 1475.25,1729.75             1473.00,1735.91 1463.00,1743.25 1463.00,1743.25             1463.00,1743.25 1454.25,1761.00 1449.25,1764.25             1444.25,1767.50 1435.25,1779.75 1433.00,1792.75             1430.75,1805.75 1426.84,1814.23 1432.09,1818.73             1437.34,1823.23 1442.36,1843.45 1446.36,1853.45             1448.83,1859.61 1452.99,1866.86 1454.45,1877.09             1455.37,1883.48 1453.60,1894.94 1454.75,1896.00             1462.45,1896.55 1460.23,1917.39 1464.73,1928.64             1469.23,1939.89 1476.64,1946.36 1471.50,1961.75             1466.36,1977.14 1473.18,1979.11 1473.18,1992.36             1473.18,1995.21 1472.13,2002.80 1470.21,2013.36             1468.59,2022.30 1468.47,2035.54 1465.73,2047.64             1457.00,2071.64 1450.85,2097.12 1442.45,2120.55             1436.71,2136.57 1425.50,2159.62 1413.91,2176.27             1407.72,2183.20 1385.60,2200.53 1366.62,2218.25             1358.52,2225.82 1359.09,2227.38 1351.38,2234.62             1345.45,2240.19 1337.63,2244.71 1331.38,2250.12             1325.65,2255.09 1320.43,2262.48 1315.62,2266.62             1312.52,2269.30 1309.46,2269.13 1306.96,2271.08             1302.64,2274.44 1299.34,2276.50 1297.50,2276.50             1290.90,2276.50 1268.05,2274.09 1257.38,2258.62             1244.99,2240.69 1246.38,2228.00 1245.00,2203.50             1243.62,2179.00 1288.12,2092.50 1286.50,2077.00             1285.90,2071.24 1296.21,2063.06 1303.50,2051.50             1315.83,2031.96 1328.25,2006.80 1328.25,1996.75             1328.25,1980.75 1295.00,1907.88 1289.50,1887.75             1284.00,1867.62 1288.46,1841.12 1286.00,1817.82             1285.41,1812.18 1279.30,1785.59 1278.91,1782.91             1277.37,1772.32 1298.76,1748.54 1320.91,1731.27             1327.51,1726.13 1330.07,1718.75 1337.25,1716.00             1368.55,1704.00 1409.75,1706.75 1415.25,1707.25             1420.75,1707.75 1416.55,1712.73 1419.82,1712.91             1423.09,1713.09 1424.36,1708.91 1429.09,1709.27             1433.82,1709.64 1436.36,1711.64 1427.64,1715.64             1426.18,1717.09 1387.27,1742.18 1385.45,1745.27             1381.82,1754.55 1369.85,1758.57 1361.64,1776.00             1356.87,1786.13 1356.19,1801.92 1357.45,1810.00             1360.91,1832.00 1384.55,1853.27 1387.09,1862.73             1388.56,1868.20 1392.65,1875.87 1394.36,1889.64 Z           M 1395.12,2023.69           C 1393.62,2034.69 1397.88,2055.06 1383.38,2067.56             1375.97,2073.95 1363.38,2087.75 1350.89,2104.13             1338.94,2119.81 1321.00,2130.00 1315.06,2158.38             1309.12,2186.75 1298.44,2186.00 1298.44,2176.50             1298.44,2174.15 1302.26,2167.94 1305.00,2158.31             1306.31,2153.71 1305.41,2145.71 1308.25,2141.50             1318.37,2126.50 1331.62,2108.98 1341.94,2095.81             1347.15,2089.16 1356.75,2077.75 1361.19,2072.00             1367.12,2063.06 1370.75,2057.58 1374.50,2047.62             1379.10,2035.40 1380.46,2016.99 1381.56,2015.06             1383.56,2011.56 1396.62,2012.69 1395.12,2023.69 Z" />
  <path id="teethBottomOutline"
    d="M 1154.67,1829.67           C 1154.22,1815.59 1154.87,1807.64 1155.00,1796.67             1155.06,1791.27 1150.61,1783.07 1156.00,1779.00             1172.33,1766.67 1208.00,1742.00 1213.33,1747.00             1218.67,1752.00 1231.00,1765.67 1232.00,1775.67             1233.00,1785.67 1237.00,1809.00 1235.33,1817.33             1233.67,1825.67 1220.67,1845.00 1214.67,1848.00             1208.67,1851.00 1190.67,1855.67 1184.33,1853.00             1178.67,1846.67 1155.33,1850.67 1154.67,1829.67 Z           M 1483.00,1825.00           C 1470.67,1823.67 1437.00,1799.33 1440.00,1792.67             1443.00,1786.00 1471.67,1742.00 1474.67,1736.67             1477.67,1731.33 1483.67,1714.67 1492.00,1717.00             1500.33,1719.33 1507.00,1728.00 1512.33,1738.00             1517.67,1748.00 1521.67,1756.00 1526.00,1764.33             1530.33,1772.67 1540.45,1779.48 1535.45,1789.82             1530.45,1800.15 1524.30,1799.00 1523.64,1808.00             1522.97,1817.00 1495.33,1826.33 1483.00,1825.00 Z           M 1561.82,1696.18           C 1569.45,1701.45 1574.73,1706.36 1578.00,1710.55             1581.27,1714.73 1597.27,1732.18 1600.36,1736.36             1603.45,1740.55 1607.82,1748.36 1609.09,1752.55             1610.36,1756.73 1608.55,1768.36 1604.73,1774.00             1600.91,1779.64 1601.64,1786.36 1593.09,1787.64             1584.55,1788.91 1555.82,1789.82 1551.82,1788.36             1547.82,1786.91 1540.55,1794.91 1537.82,1782.00             1535.09,1769.09 1540.91,1762.73 1540.91,1753.09             1540.91,1743.45 1540.91,1733.09 1542.91,1726.91             1544.91,1720.73 1550.55,1717.09 1561.82,1696.18 Z" />
  <path id="teethTopOutline"
    d="M 1132.00,1536.00           C 1132.00,1536.00 1108.00,1577.67 1107.00,1583.00             1106.00,1588.33 1102.67,1595.67 1106.33,1606.33             1110.00,1617.00 1103.67,1631.00 1106.00,1641.67             1108.33,1652.33 1127.21,1655.50 1144.88,1653.50             1162.54,1651.50 1185.08,1655.42 1186.62,1649.75             1188.17,1644.08 1188.08,1643.50 1214.75,1639.50             1241.42,1635.50 1272.38,1633.88 1274.38,1632.12             1274.71,1631.12 1277.00,1615.00 1278.00,1617.33             1279.00,1619.67 1277.71,1624.08 1292.38,1622.75             1298.99,1622.15 1305.74,1620.44 1312.75,1620.38             1321.29,1620.30 1329.96,1621.84 1336.00,1620.38             1347.00,1617.71 1347.67,1607.00 1351.67,1607.00             1355.67,1607.00 1416.25,1618.25 1423.25,1617.62             1430.25,1617.00 1434.58,1605.38 1442.25,1610.38             1447.64,1613.89 1458.19,1617.50 1470.88,1622.00             1476.24,1623.91 1479.71,1628.42 1486.25,1628.12             1508.25,1627.12 1536.00,1621.12 1544.00,1611.00             1552.00,1600.88 1547.33,1616.33 1553.00,1616.67             1558.67,1617.00 1576.12,1631.38 1611.00,1629.25             1618.40,1628.57 1626.50,1621.50 1627.88,1614.00             1642.00,1594.62 1647.09,1557.75 1643.67,1551.67             1643.67,1551.67 1482.00,1530.33 1482.00,1530.33             1482.00,1530.33 1309.67,1519.67 1309.67,1519.67             1309.67,1519.67 1132.00,1536.00 1132.00,1536.00 Z" />
  <path id="teethFill" fill="white"
    d="M 1124.25,1577.00           C 1126.25,1575.00 1131.00,1555.27 1141.09,1550.91             1141.09,1550.91 1179.54,1538.86 1224.00,1530.64             1278.33,1520.59 1339.09,1526.00 1339.09,1526.00             1339.09,1526.00 1370.37,1524.68 1406.73,1528.55             1446.42,1532.77 1497.82,1548.36 1506.18,1547.09             1514.55,1545.82 1537.09,1555.64 1551.50,1555.00             1565.91,1554.36 1540.91,1570.73 1529.45,1573.64             1522.81,1575.32 1507.49,1575.24 1493.82,1580.18             1483.93,1583.76 1476.17,1591.04 1467.09,1598.36             1466.28,1598.37 1451.23,1600.43 1451.27,1598.91             1451.35,1595.89 1463.70,1595.25 1467.45,1588.55             1469.82,1582.55 1458.83,1590.28 1460.36,1585.45             1464.55,1572.30 1480.18,1553.45 1475.64,1547.27             1473.75,1546.71 1468.45,1548.41 1463.82,1552.18             1460.43,1554.95 1457.99,1559.34 1454.55,1562.18             1448.36,1567.28 1443.99,1569.41 1438.55,1573.64             1424.16,1584.82 1415.69,1587.94 1408.18,1589.82             1401.89,1591.39 1396.14,1593.79 1390.18,1594.91             1375.50,1597.67 1362.58,1597.84 1359.09,1596.55             1358.13,1596.19 1357.65,1588.95 1360.73,1586.00             1363.41,1583.44 1369.62,1585.51 1370.00,1580.73             1370.32,1576.70 1368.67,1572.38 1368.18,1567.82             1367.30,1559.56 1364.55,1556.18 1364.91,1546.91             1365.27,1537.64 1361.92,1535.72 1361.27,1535.82             1359.53,1536.08 1357.88,1535.65 1355.09,1539.27             1352.77,1542.28 1355.70,1543.03 1352.91,1547.64             1351.05,1550.71 1353.99,1561.69 1351.82,1565.27             1339.07,1586.34 1329.64,1602.73 1311.64,1610.73             1309.31,1612.58 1285.63,1616.66 1282.91,1610.36             1278.98,1601.28 1289.00,1582.82 1290.55,1570.73             1291.04,1566.89 1287.92,1566.13 1286.36,1564.00             1284.34,1561.23 1283.49,1557.71 1281.64,1558.36             1270.73,1562.18 1275.16,1581.66 1270.91,1596.18             1269.41,1601.31 1257.85,1610.10 1256.73,1611.27             1250.15,1618.14 1234.62,1621.43 1220.91,1625.82             1209.23,1629.56 1199.23,1634.98 1193.36,1634.64             1187.53,1634.29 1196.82,1616.91 1195.45,1608.64             1194.09,1600.36 1205.63,1571.40 1199.82,1571.36             1198.82,1571.36 1197.04,1574.23 1195.27,1574.91             1191.76,1576.26 1187.76,1576.43 1186.27,1580.36             1182.51,1590.35 1187.64,1604.75 1181.18,1618.00             1176.00,1628.64 1158.86,1638.49 1156.25,1640.75             1149.75,1646.00 1123.00,1648.00 1116.50,1643.75             1110.00,1639.50 1122.25,1579.00 1124.25,1577.00 Z           M 1578.25,1562.38           C 1578.25,1562.38 1602.38,1560.00 1602.62,1563.62             1602.76,1565.52 1592.42,1572.83 1584.00,1579.62             1576.33,1585.82 1570.60,1591.62 1568.88,1591.62             1565.25,1591.62 1578.50,1567.88 1578.25,1562.38 Z           M 1554.88,1768.56           C 1556.87,1761.86 1559.28,1753.25 1563.09,1747.64             1562.63,1747.03 1562.91,1743.72 1560.73,1739.64             1558.82,1736.06 1554.40,1731.85 1554.18,1728.91             1553.37,1718.17 1559.58,1711.18 1562.19,1710.31             1567.56,1713.25 1565.98,1713.28 1567.44,1722.38             1571.15,1725.99 1572.90,1715.65 1574.25,1717.69             1578.80,1719.95 1587.10,1733.95 1593.44,1745.50             1597.66,1753.20 1602.10,1759.30 1600.00,1762.00             1596.07,1767.07 1588.06,1777.92 1578.06,1780.94             1567.27,1784.19 1554.16,1781.48 1552.36,1778.36             1551.65,1777.12 1553.45,1773.36 1554.88,1768.56 Z           M 1471.75,1760.00           C 1473.35,1752.88 1479.16,1743.58 1485.75,1737.38             1488.42,1734.86 1492.81,1729.89 1494.62,1730.38             1498.25,1732.88 1499.25,1741.25 1504.50,1749.25             1510.18,1765.67 1513.90,1785.77 1506.25,1791.38             1500.76,1802.35 1484.88,1807.62 1472.88,1798.88             1464.75,1793.00 1460.38,1797.25 1459.00,1792.38             1458.37,1790.13 1469.88,1772.25 1471.75,1760.00 Z           M 1176.03,1807.24           C 1172.66,1801.89 1174.22,1796.68 1172.00,1792.38             1169.85,1788.22 1163.88,1784.88 1163.88,1784.88             1163.88,1784.88 1199.62,1760.38 1216.25,1766.50             1218.75,1769.75 1217.50,1796.25 1215.88,1799.12             1215.88,1800.38 1201.62,1823.62 1191.62,1823.25             1187.21,1823.08 1181.27,1815.57 1176.03,1807.24 Z" />
  <path id="ear"
    d="M 1875.00,1268.00           C 1871.02,1267.46 1868.91,1262.19 1865.67,1262.33             1861.12,1262.54 1862.62,1267.47 1858.28,1266.33             1849.00,1263.90 1842.54,1258.15 1849.00,1248.00             1863.00,1226.00 1891.67,1194.33 1913.00,1194.00             1934.33,1193.67 1950.18,1135.27 1980.18,1125.27             1984.45,1123.85 1986.84,1118.31 1991.09,1116.73             1999.43,1113.62 2009.64,1114.89 2018.18,1116.36             2032.15,1118.76 2042.90,1123.07 2047.64,1140.18             2048.89,1144.71 2052.79,1156.01 2052.91,1161.45             2053.34,1180.92 2051.27,1193.45 2039.43,1216.27             2027.59,1239.08 2018.27,1272.93 2015.27,1279.27             2010.00,1290.45 2019.27,1302.74 2015.34,1321.66             2013.37,1331.15 2010.88,1340.87 2008.00,1349.64             2006.26,1354.92 2006.98,1361.27 2004.73,1365.45             2001.90,1370.70 1995.88,1369.68 1991.64,1371.27             1987.09,1372.98 1984.29,1377.12 1980.36,1377.27             1970.56,1377.66 1963.09,1371.45 1960.00,1364.36             1956.91,1357.27 1952.04,1362.15 1948.91,1358.91             1941.98,1351.73 1939.00,1350.79 1939.00,1342.00             1939.00,1331.67 1942.55,1320.55 1941.09,1313.82             1947.64,1312.73 1952.20,1317.67 1962.36,1315.64             1992.36,1334.97 1999.33,1275.67 2001.47,1255.55             2009.67,1244.67 2016.80,1238.64 2022.33,1224.67             2030.76,1203.38 2034.77,1172.18 2037.67,1156.00             2036.33,1117.33 2022.51,1134.51 2019.33,1131.00             2015.45,1126.71 2010.39,1142.57 1993.33,1158.67             1989.73,1162.07 1981.82,1162.99 1977.00,1166.67             1963.55,1176.93 1951.26,1190.91 1947.33,1203.67             1942.00,1221.00 1888.42,1259.27 1886.33,1263.00             1885.54,1264.41 1879.39,1268.60 1875.00,1268.00 Z" />
  <path id="hairOutline"
    d="M 1716.00,1036.00           C 1697.00,1037.00 1647.50,1112.50 1595.50,1136.50             1569.20,1148.64 1466.30,1154.21 1400.00,1153.25             1335.20,1152.31 1276.84,1161.99 1263.00,1161.00             1235.00,1159.00 1176.50,1119.00 1164.50,1095.00             1152.50,1071.00 1120.00,1009.50 1234.50,936.50             1267.86,915.23 1308.68,906.97 1353.00,895.00             1460.78,865.90 1572.14,850.17 1634.50,853.00             1655.50,853.95 1682.28,858.95 1711.16,866.04             1746.96,874.82 1767.77,892.03 1803.00,903.50             1858.44,921.54 1922.69,933.07 1932.00,934.00             1952.00,936.00 1735.00,1035.00 1716.00,1036.00 Z" />
  <path id="hairFill" fill="brown"
    d="M 1289.00,1022.00           C 1283.51,1029.83 1279.42,1038.58 1276.30,1047.56             1272.22,1059.30 1280.70,1071.76 1279.00,1082.73             1275.42,1105.89 1269.52,1127.22 1263.38,1125.62             1249.88,1122.12 1223.00,1112.00 1212.50,1112.50             1202.00,1113.00 1189.00,1113.50 1184.00,1090.50             1179.00,1067.50 1171.25,1066.50 1178.75,1035.00             1186.25,1003.50 1205.50,971.75 1232.50,962.25             1259.50,952.75 1238.50,934.75 1300.00,932.25             1334.21,930.86 1338.01,932.82 1348.75,932.75             1357.32,932.70 1370.06,932.73 1408.00,918.75             1493.50,887.25 1488.50,905.50 1496.25,895.50             1504.00,885.50 1545.50,888.50 1578.50,891.00             1611.50,893.50 1601.25,900.00 1637.25,899.50             1665.00,896.25 1653.58,902.16 1667.00,903.50             1706.09,907.41 1695.50,889.25 1743.25,907.50             1808.75,931.00 1828.50,956.00 1828.00,957.00             1827.50,958.00 1673.50,1003.50 1649.75,1053.75             1641.18,1071.88 1627.46,1082.99 1615.00,1093.50             1592.93,1112.11 1569.59,1123.21 1548.50,1128.00             1515.50,1135.50 1496.50,1128.00 1486.50,1096.75             1476.50,1065.50 1505.00,1034.25 1511.00,1031.25             1505.25,982.25 1537.00,944.75 1578.50,935.50             1541.14,921.20 1512.23,954.13 1491.04,996.87             1461.48,1056.52 1468.00,1127.25 1445.50,1136.00             1441.03,1137.74 1437.16,1127.69 1432.91,1124.91             1415.79,1113.72 1403.45,1091.64 1396.36,1079.82             1393.81,1075.57 1399.12,1050.96 1398.88,1036.50             1398.72,1027.16 1391.63,1029.74 1394.09,1018.97             1396.83,1006.98 1398.70,996.38 1406.38,985.50             1409.23,981.46 1413.52,976.35 1418.38,972.25             1421.08,969.97 1427.03,968.62 1426.00,967.50             1424.22,966.09 1420.25,963.75 1413.75,968.62             1407.25,973.50 1406.51,971.42 1404.00,973.62             1398.14,978.76 1392.38,989.43 1387.62,998.00             1380.27,1011.24 1375.39,1023.61 1376.75,1035.00             1377.25,1039.18 1375.12,1047.24 1375.06,1053.25             1374.99,1060.32 1376.85,1065.53 1375.62,1072.50             1375.21,1074.89 1372.12,1074.09 1371.75,1076.50             1370.94,1081.79 1372.74,1090.47 1372.44,1095.62             1372.19,1099.91 1369.92,1100.70 1368.75,1104.75             1364.29,1120.19 1362.18,1133.07 1351.18,1140.36             1342.73,1145.97 1332.97,1141.37 1325.82,1131.82             1320.74,1125.03 1316.29,1115.88 1312.59,1106.54             1311.84,1104.64 1308.19,1103.86 1307.45,1102.55             1300.28,1089.75 1296.93,1100.13 1298.91,1069.55             1298.91,1069.55 1305.40,1069.13 1306.00,1065.09             1307.28,1056.46 1300.43,1042.90 1301.55,1028.55             1301.80,1025.26 1309.65,1017.83 1309.73,1014.91             1309.95,1006.32 1311.23,1001.65 1308.82,1000.36             1300.03,1005.49 1294.47,1014.20 1289.00,1022.00 Z" />
  <path id="hornLeftOutline"
    d="M 1654.00,1083.00           C 1653.44,1070.04 1663.30,1053.53 1659.50,1038.50             1653.45,1014.55 1656.50,992.29 1667.00,984.50             1680.46,974.51 1702.02,963.96 1729.50,951.00             1765.32,934.10 1795.05,915.21 1850.00,910.50             1918.50,901.00 1968.89,852.56 2015.00,820.50             2030.75,809.55 2048.40,803.68 2052.00,800.00             2066.13,785.53 2081.00,785.00 2082.00,752.00             2082.21,744.94 2087.74,717.49 2091.50,685.00             2093.82,664.95 2098.79,644.20 2091.50,621.50             2079.46,584.01 2063.75,539.69 2044.00,503.50             2004.47,431.07 1958.33,376.34 1960.00,370.00             1974.50,371.00 2113.50,480.00 2150.00,525.50             2166.48,546.04 2191.58,561.58 2199.33,620.67             2202.56,645.25 2210.01,671.20 2210.25,698.50             2210.71,750.90 2199.36,803.35 2184.18,826.18             2175.22,839.65 2163.90,858.68 2154.00,880.50             2145.24,899.81 2138.39,922.31 2123.50,930.50             2091.78,947.94 2097.53,961.18 2079.00,973.00             2022.81,1008.83 1990.80,1029.88 1937.00,1070.00             1924.73,1079.15 1906.37,1085.56 1891.33,1098.00             1849.06,1132.97 1820.24,1158.20 1789.50,1166.00             1761.34,1173.15 1735.47,1161.91 1707.50,1149.00             1667.80,1130.67 1655.19,1110.39 1654.00,1083.00 Z" />
  <path id="hornLeftFill" fill="white"
    d="M 1674.00,1082.50           C 1663.00,1057.50 1706.00,961.00 1793.00,944.50             1843.52,934.92 1874.55,931.72 1935.00,909.00             1978.66,892.59 2058.66,859.65 2072.50,837.00             2076.92,829.76 2086.08,808.57 2094.00,796.00             2112.53,766.57 2132.65,733.37 2129.50,671.00             2125.50,606.00 2073.33,490.02 2046.00,458.00             2071.00,467.00 2185.50,576.00 2188.50,646.50             2189.12,661.09 2202.31,670.16 2199.50,691.50             2188.72,773.28 2140.45,899.07 2100.00,930.00             2073.39,950.35 1986.85,1004.63 1916.50,1052.00             1852.01,1095.42 1802.61,1132.76 1794.00,1138.50             1714.50,1174.50 1685.00,1107.50 1674.00,1082.50 Z" />
</svg>