<svg xmlns="http://www.w3.org/2000/svg" xmlns:xlink="http://www.w3.org/1999/xlink" id="flamingoneMap"
  class="flamingoneMap" preserveAspectRatio="none" viewBox="0 0 200 600">
  
<g id="tree">
    <path id="treeBottomBack" fill="#524632" vector-effect="non-scaling-stroke" stroke="black" stroke-width="1" d="M 72.55,315.45
          C 72.55,315.45 83.82,297.45 83.82,297.45
            83.82,297.45 108.36,287.64 108.91,286.18
            109.45,284.73 114.91,276.73 114.91,276.73
            114.91,276.73 133.27,297.45 133.09,297.45
            132.91,297.45 138.00,299.64 138.00,299.64
            138.00,299.64 154.36,313.09 154.36,313.09
            154.36,313.09 155.45,316.00 156.36,319.82
            160.00,322.36 164.00,324.00 165.09,327.27
            165.09,327.27 167.90,331.39 170.00,334.36
            171.43,336.39 171.89,338.90 171.82,340.00
            171.82,340.00 167.82,347.64 168.18,358.36
            167.84,358.46 165.13,357.54 163.45,354.91
            158.00,346.36 153.27,345.09 153.27,345.09
            153.27,345.09 153.92,352.78 154.36,358.55
            155.45,361.64 157.09,365.09 155.27,364.91
            151.45,363.09 145.27,348.91 136.55,341.82
            137.45,347.09 138.88,357.17 142.18,364.18
            143.09,366.36 143.45,368.36 141.82,369.27
            140.09,368.20 138.73,366.00 134.00,363.27
            131.09,353.82 127.76,348.99 125.27,344.91
            123.09,349.09 123.09,365.09 119.82,366.91
            117.09,362.73 118.59,354.83 116.18,347.82
            113.87,341.07 109.09,342.27 109.09,342.36
            109.09,342.46 104.06,345.53 102.55,352.73
            101.26,358.84 94.00,364.36 92.73,366.18
            91.79,364.31 92.17,361.72 91.45,357.82
            91.27,349.27 86.78,354.72 86.00,355.09
            86.00,355.09 78.18,367.54 78.73,364.73
            80.06,363.54 75.76,366.76 76.73,362.55
            78.13,356.43 72.00,348.36 72.00,348.36
          69.52,352.68 73.50,322.53 72.55,315.45 Z" />
    <path id="trunk" fill="#86836d" vector-effect="non-scaling-stroke" stroke="black" stroke-width="1" d="M 121.44,425.44
           C 121.71,427.22 122.00,428.81 122.56,430.75
             123.30,433.30 124.38,435.89 124.69,439.00
             124.62,439.92 124.79,440.99 124.75,442.00
             124.68,443.67 124.37,445.34 124.00,447.00
             125.35,445.79 125.70,444.02 125.88,442.19
             125.96,441.28 125.67,437.44 125.56,436.44
             125.39,434.73 125.42,432.80 125.00,431.19
             124.39,429.34 123.59,428.06 123.12,426.19
             122.79,424.82 122.51,422.89 122.56,421.44
             122.62,419.77 123.08,418.60 123.94,417.25
             124.19,415.62 126.31,415.75 126.69,416.38
             127.31,418.75 127.94,418.75 128.25,421.75
             128.28,422.45 128.25,423.84 127.94,424.44
             127.65,424.99 126.88,424.81 126.62,424.38
             126.88,423.31 126.88,422.88 126.81,422.12
             126.56,421.69 125.50,421.75 125.25,422.19
             124.50,423.56 125.44,424.75 126.25,427.25
             126.94,428.25 127.77,427.38 128.06,427.06
             129.32,424.69 129.45,421.07 128.94,418.25
             128.12,416.25 128.31,414.75 127.00,414.25
             126.25,413.88 125.42,414.40 124.81,414.69
             123.95,415.10 123.39,415.54 122.88,416.50
             121.62,418.12 121.12,420.63 121.04,422.00
             120.96,423.42 121.28,424.41 121.44,425.44 Z
           M 124.73,405.18
           C 124.81,404.15 125.37,403.42 125.55,402.27
             125.73,401.12 125.98,399.46 125.82,398.45
             125.47,396.31 125.48,396.85 125.09,395.82
             124.86,395.21 124.00,396.00 124.00,396.00
             124.00,396.00 124.66,397.85 124.50,399.94
             124.43,400.81 123.91,401.69 123.64,402.55
             123.16,404.04 123.38,404.75 122.62,405.94
             122.14,406.62 120.55,407.93 120.00,408.55
             119.52,409.70 119.69,411.00 119.56,412.44
             119.46,413.67 119.04,415.06 119.00,416.00
             119.00,416.00 120.73,417.00 121.00,416.00
             120.97,415.32 121.13,414.33 121.12,413.62
             121.12,412.49 120.99,411.65 121.12,410.81
             121.42,408.90 122.00,408.00 122.00,408.00
             122.00,408.00 122.73,407.64 124.00,408.36
             124.33,408.90 125.73,409.74 126.00,410.27
             126.55,411.37 126.62,412.62 127.27,412.73
             128.00,412.81 129.36,413.36 129.27,412.45
             128.83,411.39 128.48,410.98 127.94,410.31
             127.55,409.83 127.13,409.11 126.75,408.75
             125.80,407.85 125.00,407.64 125.00,407.64
             125.11,406.82 124.67,405.87 124.73,405.18 Z
           M 64.88,489.75
           C 69.75,484.62 71.12,483.62 77.38,480.12
             88.29,466.38 97.62,447.75 97.25,444.00
             97.68,440.38 99.02,438.19 99.88,433.38
             100.02,432.53 101.88,428.75 101.00,426.75
             99.12,424.12 101.62,421.12 100.75,416.12
             100.75,416.12 100.25,413.50 101.12,411.75
             103.62,409.75 100.12,398.38 99.75,395.25
             99.75,392.88 100.50,390.25 102.50,380.00
             102.62,377.25 100.84,369.26 100.00,367.00
             100.00,367.00 100.38,362.12 101.75,356.38
             102.48,344.32 104.00,332.25 102.50,325.50
             101.62,322.50 103.00,312.25 96.00,303.50
             94.12,299.88 95.50,297.00 88.00,290.00
             85.62,288.88 86.12,286.88 84.50,282.50
             90.25,289.12 93.00,289.75 95.50,290.50
             97.25,291.12 97.00,296.75 99.00,298.00
             101.75,299.62 107.00,300.50 108.50,301.50
             110.62,303.00 109.38,308.75 113.50,308.00
             121.50,305.00 120.75,300.62 120.00,296.00
             119.12,280.88 112.38,281.38 112.50,276.50
             112.50,272.38 115.50,268.00 115.50,268.00
             115.50,268.00 118.12,264.88 121.50,264.00
             118.50,273.88 119.38,273.75 120.50,277.25
             124.88,288.62 131.12,291.12 132.75,295.38
             133.50,300.12 128.25,309.50 128.50,311.50
             129.00,315.00 129.50,326.00 131.00,326.00
             132.75,326.00 137.12,321.62 137.50,319.00
             137.75,314.75 139.62,312.88 139.00,309.00
             138.75,304.88 141.00,302.62 143.00,299.00
             142.88,305.00 144.38,306.50 145.00,307.50
             147.00,311.75 144.25,318.00 144.50,321.50
             144.25,326.12 142.12,328.50 140.50,331.00
             138.41,334.19 135.38,338.88 135.50,343.00
             135.50,344.12 132.12,354.75 134.62,363.12
             135.62,364.62 137.00,367.88 136.12,372.00
             135.25,374.12 134.38,375.50 134.88,380.00
             134.62,383.62 136.16,384.62 136.12,389.12
             135.63,389.50 135.62,389.12 134.12,393.00
             133.56,394.49 133.62,407.62 132.75,419.12
             133.07,427.83 134.25,429.88 134.75,431.25
             135.10,432.25 136.38,439.00 133.50,445.88
             132.92,447.75 133.62,453.25 135.25,456.25
             136.50,458.62 136.62,460.00 136.88,462.12
             137.14,465.08 139.10,471.55 142.00,475.62
             144.49,479.13 147.00,480.25 148.00,480.50
             148.78,481.02 150.61,482.72 151.75,486.12
             152.33,487.85 152.33,491.74 152.75,492.62
             155.88,497.99 160.00,498.62 159.50,499.50
             157.88,500.25 150.50,492.62 145.50,492.00
             143.83,490.37 142.62,490.88 141.38,487.25
             140.38,485.62 141.25,487.00 136.88,486.75
             134.82,486.79 131.09,486.62 130.00,488.25
             127.77,491.58 130.25,494.88 129.50,498.00
             129.41,499.09 129.64,503.91 131.25,507.25
             129.33,507.48 125.85,503.14 125.73,500.64
             125.62,499.73 123.31,498.04 123.00,497.18
             122.21,495.03 122.45,492.35 120.88,491.75
             117.42,490.44 116.38,490.88 112.00,492.50
             109.21,493.69 107.91,497.82 107.82,502.45
             107.73,507.18 103.89,511.86 102.45,512.91
             102.45,512.91 103.50,508.12 102.50,504.38
             101.38,501.68 99.43,499.50 98.25,498.00
             97.12,495.75 101.50,494.12 98.75,490.62
             99.29,487.78 100.74,486.25 100.50,484.62
             100.50,484.62 90.25,483.62 87.50,488.00
             86.25,489.75 80.00,487.00 80.00,487.00
            80.00,487.00 69.38,487.50 64.88,489.75 Z" />
    <path id="treeBottomFront" class="tree treePines" fill="#363a55" vector-effect="non-scaling-stroke" stroke="black"
      stroke-width="1" d="M 74.36,364.00
          C 71.11,368.09 66.09,371.69 62.91,373.09
            62.91,373.09 63.12,363.87 65.64,352.00
            71.27,337.45 73.50,322.53 72.55,315.45
            72.55,315.45 83.82,297.45 83.82,297.45
            83.82,297.45 108.36,287.64 108.91,286.18
            109.45,284.73 114.91,276.73 114.91,276.73
            114.91,276.73 133.27,297.45 133.09,297.45
            132.91,297.45 138.00,299.64 138.00,299.64
            138.00,299.64 154.36,313.09 154.36,313.09
            154.36,313.09 155.45,316.00 156.36,319.82
            160.00,322.36 164.00,324.00 165.09,327.27
            165.09,327.27 167.90,331.39 170.00,334.36
            171.43,336.39 171.89,338.90 171.82,340.00
            171.82,340.00 176.55,353.82 176.18,358.00
            176.18,358.00 152.55,332.91 152.55,332.91
            152.55,332.91 159.09,349.64 159.82,357.27
            159.82,357.27 144.36,345.09 140.55,340.55
            141.45,345.82 147.24,356.63 150.55,363.64
            151.45,365.82 150.73,366.55 149.09,367.45
            145.27,365.09 130.36,345.27 130.36,345.27
            130.36,345.27 126.91,361.45 127.64,370.36
            124.95,367.49 122.41,356.29 120.00,349.27
            117.69,342.53 115.45,339.91 115.45,340.00
            115.45,340.10 114.79,350.44 113.27,357.64
            111.99,363.75 111.09,365.09 109.82,366.91
            108.88,365.04 106.89,362.81 106.18,358.91
            106.00,350.36 104.55,346.18 105.09,341.45
            96.93,347.64 87.45,358.91 84.36,368.18
            82.85,370.13 80.24,371.27 79.45,371.64
            79.45,371.64 78.00,371.54 78.55,368.73
            79.88,367.54 82.48,364.03 83.45,359.82
            84.86,353.70 84.36,346.55 84.36,346.55
            81.88,350.86 78.91,357.09 74.36,364.00 Z" />
    <path id="treeMiddle" class="tree treePines" fill="#363a55" vector-effect="non-scaling-stroke" stroke="black"
      stroke-width="1" d="M 57.45,334.18
           C 57.64,334.91 58.28,329.13 58.00,328.73
             57.27,326.00 65.82,310.00 67.64,306.91
             67.64,306.91 69.45,300.36 69.45,300.36
             69.45,300.36 78.00,288.73 78.00,288.73
             78.00,288.73 81.09,275.64 81.09,275.45
             81.09,275.27 82.73,257.82 82.73,257.82
             82.73,257.82 90.73,226.55 90.73,226.18
             90.73,225.82 98.91,216.91 99.09,217.27
             99.27,217.64 108.00,222.36 108.18,222.73
             108.36,223.09 118.18,235.82 118.36,236.18
             118.49,236.44 123.22,243.89 127.09,250.73
             128.73,253.62 131.08,258.46 131.45,259.27
             131.89,260.21 135.97,263.92 138.55,267.64
             143.48,274.77 148.18,283.45 148.18,283.45
             148.18,283.45 153.27,302.18 154.91,303.45
             156.36,306.00 155.64,308.55 156.73,311.45
             153.82,307.82 141.82,302.73 140.36,302.91
             140.36,302.91 136.55,313.45 136.91,316.55
             136.91,316.55 132.18,308.18 131.09,307.64
             131.09,307.64 127.09,313.27 125.27,317.27
             125.09,313.82 120.91,303.64 120.91,303.64
             120.91,303.64 116.91,294.00 114.73,292.36
             114.55,292.18 112.00,294.00 111.82,296.18
             111.82,296.18 111.82,306.73 111.45,309.82
             111.45,309.82 106.18,316.91 105.09,318.55
             103.64,316.73 103.27,311.27 101.09,306.91
             100.18,305.27 99.45,300.18 99.45,300.18
             99.45,300.18 98.36,307.09 95.09,311.45
             94.36,312.36 91.37,314.28 88.36,318.73
             85.64,325.27 81.51,331.15 78.18,332.91
             76.55,330.55 80.00,317.09 78.91,313.27
             76.91,317.82 70.00,327.09 65.09,329.64
            61.78,331.13 62.36,333.45 57.45,334.18 Z" />
    <path id="treeTop" class="tree treePines" fill="#363a55" vector-effect="non-scaling-stroke" stroke="black"
      stroke-width="1" d="M 98.91,194.00
                C 98.62,190.19 97.00,185.25 98.91,184.36
                  99.81,185.83 100.18,189.09 101.64,192.18
                  104.36,195.45 104.55,196.73 105.64,197.82
                  105.96,198.21 106.12,203.41 106.91,211.09
                  107.20,213.12 108.48,217.13 111.09,220.55
                  116.73,226.18 118.73,228.00 120.73,230.18
                  123.27,232.73 129.82,244.00 130.55,246.73
                  130.55,248.91 128.73,249.09 126.73,248.00
                  124.36,244.91 117.82,239.27 115.64,238.73
                  114.36,240.00 111.27,248.36 110.36,251.45
                  110.00,252.91 107.82,253.27 106.55,252.18
                  106.38,251.12 106.25,248.62 105.09,246.55
                  103.67,244.00 102.73,243.64 101.09,241.82
                  100.55,240.18 101.09,237.27 100.36,234.91
                  99.45,238.18 95.82,241.45 96.36,244.36
                  96.36,246.36 94.91,248.36 94.18,250.55
                  93.27,252.18 91.45,252.55 90.36,252.55
                  89.45,249.82 90.18,239.27 90.36,239.27
                  90.55,239.27 89.27,237.82 88.73,236.18
                  87.45,239.82 76.00,251.45 76.00,251.45
                  76.00,251.45 80.18,238.55 80.18,238.55
                  80.18,238.55 81.27,223.09 81.27,223.09
                  81.27,223.09 82.73,214.00 82.73,214.00
                  82.73,214.00 90.73,210.55 90.73,210.36
                  90.73,210.18 94.36,203.09 94.36,203.27
                  94.36,203.45 98.00,199.45 98.00,199.45
            98.63,198.70 99.06,196.02 98.91,194.00 Z" />
</svg>
